%TF.GenerationSoftware,KiCad,Pcbnew,10.0.4*%
%TF.CreationDate,2026-08-13T11:40:52+06:00*%
%TF.ProjectId,NodePilot,4e6f6465-5069-46c6-9f74-2e6b69636164,rev?*%
%TF.SameCoordinates,Original*%
%TF.FileFunction,Copper,L2,Bot*%
%TF.FilePolarity,Positive*%
%FSLAX46Y46*%
G04 Gerber Fmt 4.6, Leading zero omitted, Abs format (unit mm)*
G04 Created by KiCad (PCBNEW 10.0.4) date 2026-08-13 11:40:52*
%MOMM*%
%LPD*%
G01*
G04 APERTURE LIST*
G04 Aperture macros list*
%AMRoundRect*
0 Rectangle with rounded corners*
0 $1 Rounding radius*
0 $2 $3 $4 $5 $6 $7 $8 $9 X,Y pos of 4 corners*
0 Add a 4 corners polygon primitive as box body*
4,1,4,$2,$3,$4,$5,$6,$7,$8,$9,$2,$3,0*
0 Add four circle primitives for the rounded corners*
1,1,$1+$1,$2,$3*
1,1,$1+$1,$4,$5*
1,1,$1+$1,$6,$7*
1,1,$1+$1,$8,$9*
0 Add four rect primitives between the rounded corners*
20,1,$1+$1,$2,$3,$4,$5,0*
20,1,$1+$1,$4,$5,$6,$7,0*
20,1,$1+$1,$6,$7,$8,$9,0*
20,1,$1+$1,$8,$9,$2,$3,0*%
G04 Aperture macros list end*
%TA.AperFunction,ComponentPad*%
%ADD10RoundRect,0.250000X0.550000X-0.550000X0.550000X0.550000X-0.550000X0.550000X-0.550000X-0.550000X0*%
%TD*%
%TA.AperFunction,ComponentPad*%
%ADD11C,1.600000*%
%TD*%
%TA.AperFunction,ComponentPad*%
%ADD12C,1.400000*%
%TD*%
%TA.AperFunction,ComponentPad*%
%ADD13R,1.600000X1.600000*%
%TD*%
%TA.AperFunction,ComponentPad*%
%ADD14O,1.600000X1.600000*%
%TD*%
%TA.AperFunction,ComponentPad*%
%ADD15R,1.500000X1.050000*%
%TD*%
%TA.AperFunction,ComponentPad*%
%ADD16O,1.500000X1.050000*%
%TD*%
%TA.AperFunction,ComponentPad*%
%ADD17RoundRect,0.250000X-0.550000X0.550000X-0.550000X-0.550000X0.550000X-0.550000X0.550000X0.550000X0*%
%TD*%
%TA.AperFunction,ComponentPad*%
%ADD18RoundRect,0.250001X0.949999X-0.949999X0.949999X0.949999X-0.949999X0.949999X-0.949999X-0.949999X0*%
%TD*%
%TA.AperFunction,ComponentPad*%
%ADD19C,2.400000*%
%TD*%
%TA.AperFunction,ComponentPad*%
%ADD20RoundRect,0.250000X-0.550000X-0.550000X0.550000X-0.550000X0.550000X0.550000X-0.550000X0.550000X0*%
%TD*%
%TA.AperFunction,ComponentPad*%
%ADD21C,1.440000*%
%TD*%
%TA.AperFunction,ComponentPad*%
%ADD22C,1.600200*%
%TD*%
%TA.AperFunction,ComponentPad*%
%ADD23RoundRect,0.250000X0.550000X0.550000X-0.550000X0.550000X-0.550000X-0.550000X0.550000X-0.550000X0*%
%TD*%
%TA.AperFunction,ComponentPad*%
%ADD24C,3.000000*%
%TD*%
%TA.AperFunction,ComponentPad*%
%ADD25C,2.500000*%
%TD*%
G04 APERTURE END LIST*
D10*
%TO.P,C5,1*%
%TO.N,Net-(D3-K)*%
X144785113Y-118500000D03*
D11*
%TO.P,C5,2*%
%TO.N,Net-(Q2-E)*%
X144785113Y-116000000D03*
%TD*%
D12*
%TO.P,R13,1*%
%TO.N,Net-(Q2-E)*%
X153205113Y-129500000D03*
%TO.P,R13,2*%
%TO.N,RIGGND*%
X158285113Y-129500000D03*
%TD*%
%TO.P,R6,1*%
%TO.N,Net-(T2-SB)*%
X175285113Y-72920000D03*
%TO.P,R6,2*%
%TO.N,RIGGND*%
X175285113Y-78000000D03*
%TD*%
D13*
%TO.P,T1,1,AA_1*%
%TO.N,GROUND*%
X163665113Y-91420000D03*
D14*
%TO.P,T1,2,AB_2*%
%TO.N,Net-(T1-AB)*%
X163665113Y-96500000D03*
%TO.P,T1,3,SA_3*%
%TO.N,Net-(T1-SA)*%
X171285113Y-96500000D03*
%TO.P,T1,4,SB_4*%
%TO.N,Net-(Q1-E)*%
X171285113Y-91420000D03*
%TD*%
D12*
%TO.P,R4,1*%
%TO.N,GPIO3*%
X128785113Y-116460000D03*
%TO.P,R4,2*%
%TO.N,Net-(C10-Pad2)*%
X128785113Y-121540000D03*
%TD*%
D15*
%TO.P,Q2,1,E_1*%
%TO.N,Net-(Q2-E)*%
X149285113Y-129540000D03*
D16*
%TO.P,Q2,2,B_2*%
%TO.N,Net-(Q2-B)*%
X149285113Y-128270000D03*
%TO.P,Q2,3,C_3*%
%TO.N,Net-(D3-A)*%
X149285113Y-127000000D03*
%TD*%
D15*
%TO.P,Q1,1,E_1*%
%TO.N,Net-(Q1-E)*%
X176285113Y-107540000D03*
D16*
%TO.P,Q1,2,B_2*%
%TO.N,Net-(Q1-B)*%
X176285113Y-106270000D03*
%TO.P,Q1,3,C_3*%
%TO.N,Net-(Q1-C)*%
X176285113Y-105000000D03*
%TD*%
D11*
%TO.P,C10,1*%
%TO.N,Net-(C10-Pad1)*%
X126600113Y-127000000D03*
%TO.P,C10,2*%
%TO.N,Net-(C10-Pad2)*%
X126600113Y-124500000D03*
%TD*%
D12*
%TO.P,R12,1*%
%TO.N,MICIN*%
X145000000Y-95000000D03*
%TO.P,R12,2*%
%TO.N,Net-(C1-Pad2)*%
X150080000Y-95000000D03*
%TD*%
%TO.P,R7,1*%
%TO.N,Net-(R7-Pad1)*%
X145705113Y-122500000D03*
%TO.P,R7,2*%
%TO.N,Net-(D3-K)*%
X150785113Y-122500000D03*
%TD*%
%TO.P,R1,1*%
%TO.N,Net-(Q1-B)*%
X187785113Y-108920000D03*
%TO.P,R1,2*%
%TO.N,EXT_COR*%
X192865113Y-108920000D03*
%TD*%
D17*
%TO.P,C3,1*%
%TO.N,Net-(C3-Pad1)*%
X186000000Y-74000000D03*
D11*
%TO.P,C3,2*%
%TO.N,RIGMICIN*%
X186000000Y-76500000D03*
%TD*%
D12*
%TO.P,R10,1*%
%TO.N,Net-(Q4-B)*%
X155245113Y-104500000D03*
%TO.P,R10,2*%
%TO.N,Net-(R10-Pad2)*%
X160325113Y-104500000D03*
%TD*%
D18*
%TO.P,JP1,1,A_1*%
%TO.N,Net-(JP1-A)*%
X192667500Y-97750000D03*
D19*
%TO.P,JP1,2,B_2*%
%TO.N,RIGAF*%
X192667500Y-94250000D03*
%TD*%
D11*
%TO.P,C9,1*%
%TO.N,GROUND*%
X139285113Y-109250000D03*
%TO.P,C9,2*%
%TO.N,USBPWR*%
X139285113Y-111750000D03*
%TD*%
D12*
%TO.P,R3,1*%
%TO.N,VOLDN*%
X144785113Y-101960000D03*
%TO.P,R3,2*%
%TO.N,GROUND*%
X144785113Y-107040000D03*
%TD*%
D13*
%TO.P,T2,1,AA_1*%
%TO.N,Net-(T2-AA)*%
X163665113Y-73000000D03*
D14*
%TO.P,T2,2,AB_2*%
%TO.N,GROUND*%
X163665113Y-78080000D03*
%TO.P,T2,3,SA_3*%
%TO.N,RIGGND*%
X171285113Y-78080000D03*
%TO.P,T2,4,SB_4*%
%TO.N,Net-(T2-SB)*%
X171285113Y-73000000D03*
%TD*%
D18*
%TO.P,,1*%
%TO.N,N/C*%
X192667500Y-120000000D03*
D19*
%TO.P,,2*%
%TO.N,EXT_COR*%
X192667500Y-116500000D03*
%TD*%
D12*
%TO.P,R15,1*%
%TO.N,GROUND*%
X134285113Y-107420000D03*
%TO.P,R15,2*%
%TO.N,Net-(C10-Pad1)*%
X134285113Y-112500000D03*
%TD*%
D10*
%TO.P,C6,1*%
%TO.N,Net-(D3-K)*%
X138785113Y-118500000D03*
D11*
%TO.P,C6,2*%
%TO.N,Net-(Q2-E)*%
X138785113Y-116000000D03*
%TD*%
%TO.P,C7,1*%
%TO.N,Net-(D3-K)*%
X133285113Y-118500000D03*
%TO.P,C7,2*%
%TO.N,Net-(Q2-E)*%
X133285113Y-116000000D03*
%TD*%
D18*
%TO.P,,1*%
%TO.N,PTT*%
X192667500Y-128500000D03*
D19*
%TO.P,,2*%
%TO.N,RIGGND*%
X192667500Y-125000000D03*
%TD*%
D11*
%TO.P,C11,1*%
%TO.N,Net-(Q1-B)*%
X181285113Y-106250000D03*
%TO.P,C11,2*%
%TO.N,Net-(Q1-E)*%
X181285113Y-108750000D03*
%TD*%
D20*
%TO.P,U1,1*%
%TO.N,Net-(C10-Pad2)*%
X129980113Y-124500000D03*
D11*
%TO.P,U1,2*%
%TO.N,Net-(C10-Pad1)*%
X129980113Y-127040000D03*
%TO.P,U1,3*%
%TO.N,Net-(R8-Pad1)*%
X137600113Y-127040000D03*
%TO.P,U1,4*%
%TO.N,Net-(R7-Pad1)*%
X137600113Y-124500000D03*
%TD*%
D12*
%TO.P,R9,1*%
%TO.N,GROUND*%
X159785113Y-91280000D03*
%TO.P,R9,2*%
%TO.N,Net-(T1-AB)*%
X159785113Y-96360000D03*
%TD*%
D18*
%TO.P,,1*%
%TO.N,RIGAF*%
X192500000Y-79500000D03*
D19*
%TO.P,,2*%
%TO.N,RIGMICIN*%
X192500000Y-76000000D03*
%TD*%
D17*
%TO.P,C2,1*%
%TO.N,LOL*%
X158500000Y-70500000D03*
D11*
%TO.P,C2,2*%
%TO.N,Net-(T2-AA)*%
X158500000Y-73000000D03*
%TD*%
D17*
%TO.P,D3,1,K_1*%
%TO.N,Net-(D3-K)*%
X157785113Y-118190000D03*
D11*
%TO.P,D3,2,A_2*%
%TO.N,Net-(D3-A)*%
X157785113Y-125810000D03*
%TD*%
D10*
%TO.P,C8,1*%
%TO.N,USBPWR*%
X144785113Y-112000000D03*
D11*
%TO.P,C8,2*%
%TO.N,GROUND*%
X144785113Y-109500000D03*
%TD*%
D21*
%TO.P,RV1,1,1_1*%
%TO.N,RIGGND*%
X179785113Y-78000000D03*
%TO.P,RV1,2,2_2*%
%TO.N,Net-(C3-Pad1)*%
X179785113Y-75460000D03*
%TO.P,RV1,3,3_3*%
%TO.N,Net-(T2-SB)*%
X179785113Y-72920000D03*
%TD*%
D15*
%TO.P,Q4,1,E_1*%
%TO.N,VOLDN*%
X149285113Y-103000000D03*
D16*
%TO.P,Q4,2,B_2*%
%TO.N,Net-(Q4-B)*%
X149285113Y-104270000D03*
%TO.P,Q4,3,C_3*%
%TO.N,Net-(Q4-C)*%
X149285113Y-105540000D03*
%TD*%
D22*
%TO.P,U3,1,GND_1*%
%TO.N,GROUND*%
X150060113Y-110190000D03*
%TO.P,U3,2,VIN_2*%
%TO.N,USBPWR*%
X150060113Y-112730000D03*
%TO.P,U3,3,0V_3*%
%TO.N,Net-(Q2-E)*%
X150060113Y-115270000D03*
%TO.P,U3,4,+VO_4*%
%TO.N,Net-(D3-K)*%
X150060113Y-117810000D03*
%TD*%
D12*
%TO.P,R8,1*%
%TO.N,Net-(R8-Pad1)*%
X140205113Y-128000000D03*
%TO.P,R8,2*%
%TO.N,Net-(Q2-B)*%
X145285113Y-128000000D03*
%TD*%
D21*
%TO.P,RV2,1,1_1*%
%TO.N,Net-(C4-Pad2)*%
X179785113Y-96320000D03*
%TO.P,RV2,2,2_2*%
%TO.N,Net-(T1-SA)*%
X179785113Y-93780000D03*
%TO.P,RV2,3,3_3*%
%TO.N,Net-(Q1-E)*%
X179785113Y-91240000D03*
%TD*%
D12*
%TO.P,R17,1*%
%TO.N,Net-(JP1-A)*%
X192825113Y-106500000D03*
%TO.P,R17,2*%
%TO.N,Net-(Q1-B)*%
X187745113Y-106500000D03*
%TD*%
D17*
%TO.P,C4,1*%
%TO.N,RIGAF*%
X186000000Y-94000000D03*
D11*
%TO.P,C4,2*%
%TO.N,Net-(C4-Pad2)*%
X186000000Y-96500000D03*
%TD*%
D12*
%TO.P,R16,1*%
%TO.N,Net-(Q1-B)*%
X184785113Y-106420000D03*
%TO.P,R16,2*%
%TO.N,Net-(Q1-E)*%
X184785113Y-111500000D03*
%TD*%
D23*
%TO.P,U2,1*%
%TO.N,Net-(R2-Pad1)*%
X171285113Y-107275000D03*
D11*
%TO.P,U2,2*%
%TO.N,Net-(Q1-C)*%
X171285113Y-104735000D03*
%TO.P,U2,3*%
%TO.N,Net-(R10-Pad2)*%
X163665113Y-104735000D03*
%TO.P,U2,4*%
%TO.N,Net-(Q4-C)*%
X163665113Y-107275000D03*
%TD*%
D24*
%TO.P,K1,1*%
%TO.N,RIGGND*%
X161635113Y-122450000D03*
D25*
%TO.P,K1,2*%
%TO.N,Net-(D3-A)*%
X163585113Y-128500000D03*
D24*
%TO.P,K1,3*%
%TO.N,Net-(K1-Pad3)*%
X175785113Y-128500000D03*
%TO.P,K1,4*%
%TO.N,Net-(Q1-E)*%
X175835113Y-116450000D03*
D25*
%TO.P,K1,5*%
%TO.N,Net-(D3-K)*%
X163585113Y-116500000D03*
%TD*%
D12*
%TO.P,R5,1*%
%TO.N,Net-(K1-Pad3)*%
X181705113Y-128500000D03*
%TO.P,R5,2*%
%TO.N,PTT*%
X186785113Y-128500000D03*
%TD*%
%TO.P,R2,1*%
%TO.N,Net-(R2-Pad1)*%
X169785113Y-111500000D03*
%TO.P,R2,2*%
%TO.N,Net-(D3-K)*%
X164705113Y-111500000D03*
%TD*%
%TO.P,R11,1*%
%TO.N,Net-(Q4-C)*%
X158785113Y-107500000D03*
%TO.P,R11,2*%
%TO.N,USBPWR*%
X158785113Y-112580000D03*
%TD*%
D10*
%TO.P,C1,1*%
%TO.N,Net-(T1-AB)*%
X155000000Y-96205113D03*
D11*
%TO.P,C1,2*%
%TO.N,Net-(C1-Pad2)*%
X155000000Y-93705113D03*
%TD*%
%TA.AperFunction,Conductor*%
%TO.N,RIGGND*%
G36*
X197943039Y-65519685D02*
G01*
X197988794Y-65572489D01*
X198000000Y-65624000D01*
X198000000Y-133376000D01*
X197980315Y-133443039D01*
X197927511Y-133488794D01*
X197876000Y-133500000D01*
X160124000Y-133500000D01*
X160056961Y-133480315D01*
X160011206Y-133427511D01*
X160000000Y-133376000D01*
X160000000Y-128385258D01*
X161834613Y-128385258D01*
X161834613Y-128614741D01*
X161856518Y-128781118D01*
X161864565Y-128842238D01*
X161864566Y-128842240D01*
X161923955Y-129063887D01*
X162011763Y-129275876D01*
X162011769Y-129275888D01*
X162092483Y-129415690D01*
X162126505Y-129474617D01*
X162266194Y-129656661D01*
X162266202Y-129656670D01*
X162428443Y-129818911D01*
X162428451Y-129818918D01*
X162610495Y-129958607D01*
X162610498Y-129958608D01*
X162610501Y-129958611D01*
X162809225Y-130073344D01*
X162809230Y-130073346D01*
X162809236Y-130073349D01*
X162900593Y-130111190D01*
X163021226Y-130161158D01*
X163242875Y-130220548D01*
X163470379Y-130250500D01*
X163470386Y-130250500D01*
X163699840Y-130250500D01*
X163699847Y-130250500D01*
X163927351Y-130220548D01*
X164149000Y-130161158D01*
X164361001Y-130073344D01*
X164559725Y-129958611D01*
X164741774Y-129818919D01*
X164741778Y-129818914D01*
X164741783Y-129818911D01*
X164904024Y-129656670D01*
X164904027Y-129656665D01*
X164904032Y-129656661D01*
X165043724Y-129474612D01*
X165158457Y-129275888D01*
X165246271Y-129063887D01*
X165305661Y-128842238D01*
X165335613Y-128614734D01*
X165335613Y-128385266D01*
X165333455Y-128368872D01*
X173784613Y-128368872D01*
X173784613Y-128631127D01*
X173804361Y-128781118D01*
X173818843Y-128891116D01*
X173865137Y-129063887D01*
X173886715Y-129144418D01*
X173886718Y-129144428D01*
X173987066Y-129386690D01*
X173987071Y-129386700D01*
X174118188Y-129613803D01*
X174277831Y-129821851D01*
X174277839Y-129821860D01*
X174463253Y-130007274D01*
X174463261Y-130007281D01*
X174671309Y-130166924D01*
X174898412Y-130298041D01*
X174898422Y-130298046D01*
X175140684Y-130398394D01*
X175140694Y-130398398D01*
X175393997Y-130466270D01*
X175653993Y-130500500D01*
X175654000Y-130500500D01*
X175916226Y-130500500D01*
X175916233Y-130500500D01*
X176176229Y-130466270D01*
X176429532Y-130398398D01*
X176671810Y-130298043D01*
X176898916Y-130166924D01*
X177106964Y-130007282D01*
X177106968Y-130007277D01*
X177106973Y-130007274D01*
X177292387Y-129821860D01*
X177292390Y-129821855D01*
X177292395Y-129821851D01*
X177452037Y-129613803D01*
X177583156Y-129386697D01*
X177683511Y-129144419D01*
X177751383Y-128891116D01*
X177785613Y-128631120D01*
X177785613Y-128405513D01*
X180504613Y-128405513D01*
X180504613Y-128594486D01*
X180534172Y-128781118D01*
X180592567Y-128960836D01*
X180645075Y-129063887D01*
X180678353Y-129129199D01*
X180789423Y-129282073D01*
X180923040Y-129415690D01*
X181075914Y-129526760D01*
X181155460Y-129567290D01*
X181244276Y-129612545D01*
X181244278Y-129612545D01*
X181244281Y-129612547D01*
X181340610Y-129643846D01*
X181423994Y-129670940D01*
X181610627Y-129700500D01*
X181610632Y-129700500D01*
X181799599Y-129700500D01*
X181986231Y-129670940D01*
X182030149Y-129656670D01*
X182165945Y-129612547D01*
X182334312Y-129526760D01*
X182487186Y-129415690D01*
X182620803Y-129282073D01*
X182731873Y-129129199D01*
X182817660Y-128960832D01*
X182876053Y-128781118D01*
X182905613Y-128594486D01*
X182905613Y-128405513D01*
X185584613Y-128405513D01*
X185584613Y-128594486D01*
X185614172Y-128781118D01*
X185672567Y-128960836D01*
X185725075Y-129063887D01*
X185758353Y-129129199D01*
X185869423Y-129282073D01*
X186003040Y-129415690D01*
X186155914Y-129526760D01*
X186235460Y-129567290D01*
X186324276Y-129612545D01*
X186324278Y-129612545D01*
X186324281Y-129612547D01*
X186420610Y-129643846D01*
X186503994Y-129670940D01*
X186690627Y-129700500D01*
X186690632Y-129700500D01*
X186879599Y-129700500D01*
X187066231Y-129670940D01*
X187110149Y-129656670D01*
X187245945Y-129612547D01*
X187414312Y-129526760D01*
X187567186Y-129415690D01*
X187700803Y-129282073D01*
X187811873Y-129129199D01*
X187897660Y-128960832D01*
X187956053Y-128781118D01*
X187985613Y-128594486D01*
X187985613Y-128405513D01*
X187956053Y-128218881D01*
X187928959Y-128135497D01*
X187897660Y-128039168D01*
X187897658Y-128039165D01*
X187897658Y-128039163D01*
X187845151Y-127936113D01*
X187811873Y-127870801D01*
X187700803Y-127717927D01*
X187567186Y-127584310D01*
X187451122Y-127499984D01*
X190967000Y-127499984D01*
X190967000Y-129500015D01*
X190977500Y-129602795D01*
X190977501Y-129602796D01*
X191032686Y-129769335D01*
X191032687Y-129769337D01*
X191124786Y-129918651D01*
X191124789Y-129918655D01*
X191248844Y-130042710D01*
X191248848Y-130042713D01*
X191398162Y-130134812D01*
X191398164Y-130134813D01*
X191398166Y-130134814D01*
X191564703Y-130189999D01*
X191667492Y-130200500D01*
X191667497Y-130200500D01*
X193667503Y-130200500D01*
X193667508Y-130200500D01*
X193770297Y-130189999D01*
X193936834Y-130134814D01*
X194086155Y-130042711D01*
X194210211Y-129918655D01*
X194302314Y-129769334D01*
X194357499Y-129602797D01*
X194368000Y-129500008D01*
X194368000Y-127499992D01*
X194357499Y-127397203D01*
X194302314Y-127230666D01*
X194271734Y-127181089D01*
X194210213Y-127081348D01*
X194210210Y-127081344D01*
X194086155Y-126957289D01*
X194086151Y-126957286D01*
X193936837Y-126865187D01*
X193936835Y-126865186D01*
X193853565Y-126837593D01*
X193770297Y-126810001D01*
X193770295Y-126810000D01*
X193667515Y-126799500D01*
X193667508Y-126799500D01*
X193388826Y-126799500D01*
X193321787Y-126779815D01*
X193276032Y-126727011D01*
X193266088Y-126657853D01*
X193295113Y-126594297D01*
X193341373Y-126560939D01*
X193421002Y-126527954D01*
X193421014Y-126527949D01*
X193613998Y-126416530D01*
X193679903Y-126365957D01*
X193679904Y-126365956D01*
X192878559Y-125564612D01*
X192899091Y-125559111D01*
X193035908Y-125480119D01*
X193147619Y-125368408D01*
X193226611Y-125231591D01*
X193232112Y-125211059D01*
X194033456Y-126012404D01*
X194033457Y-126012403D01*
X194084030Y-125946498D01*
X194195449Y-125753514D01*
X194195454Y-125753502D01*
X194280736Y-125547618D01*
X194338411Y-125332367D01*
X194338414Y-125332354D01*
X194367500Y-125111424D01*
X194367500Y-124888575D01*
X194338414Y-124667645D01*
X194338411Y-124667632D01*
X194280736Y-124452381D01*
X194195454Y-124246497D01*
X194195449Y-124246485D01*
X194084033Y-124053507D01*
X194033456Y-123987595D01*
X194033455Y-123987595D01*
X193232112Y-124788939D01*
X193226611Y-124768409D01*
X193147619Y-124631592D01*
X193035908Y-124519881D01*
X192899091Y-124440889D01*
X192878558Y-124435387D01*
X193679903Y-123634043D01*
X193679903Y-123634040D01*
X193614004Y-123583473D01*
X193613991Y-123583464D01*
X193421020Y-123472054D01*
X193421002Y-123472045D01*
X193215118Y-123386763D01*
X192999867Y-123329088D01*
X192999854Y-123329085D01*
X192778925Y-123300000D01*
X192556075Y-123300000D01*
X192335145Y-123329085D01*
X192335132Y-123329088D01*
X192119881Y-123386763D01*
X191913997Y-123472045D01*
X191913979Y-123472054D01*
X191721011Y-123583462D01*
X191655095Y-123634042D01*
X192456441Y-124435387D01*
X192435909Y-124440889D01*
X192299092Y-124519881D01*
X192187381Y-124631592D01*
X192108389Y-124768409D01*
X192102887Y-124788940D01*
X191301542Y-123987595D01*
X191250962Y-124053511D01*
X191139554Y-124246479D01*
X191139545Y-124246497D01*
X191054263Y-124452381D01*
X190996588Y-124667632D01*
X190996585Y-124667645D01*
X190967500Y-124888575D01*
X190967500Y-125111424D01*
X190996585Y-125332354D01*
X190996588Y-125332367D01*
X191054263Y-125547618D01*
X191139545Y-125753502D01*
X191139554Y-125753520D01*
X191250964Y-125946491D01*
X191250973Y-125946504D01*
X191301540Y-126012403D01*
X191301543Y-126012403D01*
X192102887Y-125211059D01*
X192108389Y-125231591D01*
X192187381Y-125368408D01*
X192299092Y-125480119D01*
X192435909Y-125559111D01*
X192456440Y-125564612D01*
X191655095Y-126365955D01*
X191655095Y-126365956D01*
X191721007Y-126416533D01*
X191913985Y-126527949D01*
X191913997Y-126527954D01*
X191993627Y-126560939D01*
X192048031Y-126604780D01*
X192070095Y-126671075D01*
X192052815Y-126738774D01*
X192001678Y-126786384D01*
X191946174Y-126799500D01*
X191667484Y-126799500D01*
X191564704Y-126810000D01*
X191564703Y-126810001D01*
X191398164Y-126865186D01*
X191398162Y-126865187D01*
X191248848Y-126957286D01*
X191248844Y-126957289D01*
X191124789Y-127081344D01*
X191124786Y-127081348D01*
X191032687Y-127230662D01*
X191032686Y-127230664D01*
X190977501Y-127397203D01*
X190977500Y-127397204D01*
X190967000Y-127499984D01*
X187451122Y-127499984D01*
X187414312Y-127473240D01*
X187245949Y-127387454D01*
X187066231Y-127329059D01*
X186879599Y-127299500D01*
X186879594Y-127299500D01*
X186690632Y-127299500D01*
X186690627Y-127299500D01*
X186503994Y-127329059D01*
X186324276Y-127387454D01*
X186155913Y-127473240D01*
X186119104Y-127499984D01*
X186003040Y-127584310D01*
X186003038Y-127584312D01*
X186003037Y-127584312D01*
X185869425Y-127717924D01*
X185869425Y-127717925D01*
X185869423Y-127717927D01*
X185821723Y-127783579D01*
X185758353Y-127870800D01*
X185672567Y-128039163D01*
X185614172Y-128218881D01*
X185584613Y-128405513D01*
X182905613Y-128405513D01*
X182876053Y-128218881D01*
X182848959Y-128135497D01*
X182817660Y-128039168D01*
X182817658Y-128039165D01*
X182817658Y-128039163D01*
X182765151Y-127936113D01*
X182731873Y-127870801D01*
X182620803Y-127717927D01*
X182487186Y-127584310D01*
X182334312Y-127473240D01*
X182165949Y-127387454D01*
X181986231Y-127329059D01*
X181799599Y-127299500D01*
X181799594Y-127299500D01*
X181610632Y-127299500D01*
X181610627Y-127299500D01*
X181423994Y-127329059D01*
X181244276Y-127387454D01*
X181075913Y-127473240D01*
X181039104Y-127499984D01*
X180923040Y-127584310D01*
X180923038Y-127584312D01*
X180923037Y-127584312D01*
X180789425Y-127717924D01*
X180789425Y-127717925D01*
X180789423Y-127717927D01*
X180741723Y-127783579D01*
X180678353Y-127870800D01*
X180592567Y-128039163D01*
X180534172Y-128218881D01*
X180504613Y-128405513D01*
X177785613Y-128405513D01*
X177785613Y-128368880D01*
X177751383Y-128108884D01*
X177683511Y-127855581D01*
X177683507Y-127855571D01*
X177583159Y-127613309D01*
X177583154Y-127613299D01*
X177452037Y-127386196D01*
X177292394Y-127178148D01*
X177292387Y-127178140D01*
X177106973Y-126992726D01*
X177106964Y-126992718D01*
X176898916Y-126833075D01*
X176671813Y-126701958D01*
X176671803Y-126701953D01*
X176429541Y-126601605D01*
X176429534Y-126601603D01*
X176429532Y-126601602D01*
X176176229Y-126533730D01*
X176118452Y-126526123D01*
X175916240Y-126499500D01*
X175916233Y-126499500D01*
X175653993Y-126499500D01*
X175653985Y-126499500D01*
X175422885Y-126529926D01*
X175393997Y-126533730D01*
X175167957Y-126594297D01*
X175140694Y-126601602D01*
X175140684Y-126601605D01*
X174898422Y-126701953D01*
X174898412Y-126701958D01*
X174671309Y-126833075D01*
X174463261Y-126992718D01*
X174277831Y-127178148D01*
X174118188Y-127386196D01*
X173987071Y-127613299D01*
X173987066Y-127613309D01*
X173886718Y-127855571D01*
X173886715Y-127855581D01*
X173818843Y-128108885D01*
X173784613Y-128368872D01*
X165333455Y-128368872D01*
X165305661Y-128157762D01*
X165246271Y-127936113D01*
X165158457Y-127724112D01*
X165043724Y-127525388D01*
X165043721Y-127525385D01*
X165043720Y-127525382D01*
X164904031Y-127343338D01*
X164904024Y-127343330D01*
X164741783Y-127181089D01*
X164741774Y-127181081D01*
X164559730Y-127041392D01*
X164361003Y-126926657D01*
X164360989Y-126926650D01*
X164149000Y-126838842D01*
X164127477Y-126833075D01*
X163927351Y-126779452D01*
X163889328Y-126774446D01*
X163699854Y-126749500D01*
X163699847Y-126749500D01*
X163470379Y-126749500D01*
X163470371Y-126749500D01*
X163253828Y-126778009D01*
X163242875Y-126779452D01*
X163168054Y-126799500D01*
X163021225Y-126838842D01*
X162809236Y-126926650D01*
X162809222Y-126926657D01*
X162610495Y-127041392D01*
X162428451Y-127181081D01*
X162266194Y-127343338D01*
X162126505Y-127525382D01*
X162011770Y-127724109D01*
X162011763Y-127724123D01*
X161923955Y-127936112D01*
X161864566Y-128157759D01*
X161864564Y-128157770D01*
X161834613Y-128385258D01*
X160000000Y-128385258D01*
X160000000Y-123802496D01*
X160000091Y-123802496D01*
X160000000Y-123801649D01*
X160000000Y-123759120D01*
X160027509Y-123704161D01*
X160030585Y-123700973D01*
X161034070Y-122697486D01*
X161059091Y-122757890D01*
X161130225Y-122864351D01*
X161220762Y-122954888D01*
X161327223Y-123026022D01*
X161387624Y-123051041D01*
X160408746Y-124029917D01*
X160408746Y-124029918D01*
X160521588Y-124116505D01*
X160521596Y-124116511D01*
X160748630Y-124247590D01*
X160748641Y-124247595D01*
X160990857Y-124347924D01*
X161244092Y-124415777D01*
X161244103Y-124415779D01*
X161504018Y-124449999D01*
X161504033Y-124450000D01*
X161766193Y-124450000D01*
X161766207Y-124449999D01*
X162026122Y-124415779D01*
X162026133Y-124415777D01*
X162279368Y-124347924D01*
X162521584Y-124247595D01*
X162521595Y-124247590D01*
X162748629Y-124116511D01*
X162748647Y-124116499D01*
X162861478Y-124029919D01*
X162861478Y-124029917D01*
X161882601Y-123051041D01*
X161943003Y-123026022D01*
X162049464Y-122954888D01*
X162140001Y-122864351D01*
X162211135Y-122757890D01*
X162236154Y-122697489D01*
X163215030Y-123676365D01*
X163215032Y-123676365D01*
X163268637Y-123606508D01*
X163301612Y-123563534D01*
X163301624Y-123563516D01*
X163432703Y-123336482D01*
X163432708Y-123336471D01*
X163533037Y-123094255D01*
X163600890Y-122841020D01*
X163600892Y-122841009D01*
X163635112Y-122581094D01*
X163635113Y-122581080D01*
X163635113Y-122318919D01*
X163635112Y-122318905D01*
X163600892Y-122058990D01*
X163600890Y-122058979D01*
X163533037Y-121805744D01*
X163432708Y-121563528D01*
X163432703Y-121563517D01*
X163301624Y-121336483D01*
X163301618Y-121336475D01*
X163215031Y-121223633D01*
X163215030Y-121223633D01*
X162236154Y-122202510D01*
X162211135Y-122142110D01*
X162140001Y-122035649D01*
X162049464Y-121945112D01*
X161943003Y-121873978D01*
X161882600Y-121848957D01*
X162861478Y-120870080D01*
X162748637Y-120783494D01*
X162748629Y-120783488D01*
X162521595Y-120652409D01*
X162521584Y-120652404D01*
X162279368Y-120552075D01*
X162026133Y-120484222D01*
X162026122Y-120484220D01*
X161766207Y-120450000D01*
X161504018Y-120450000D01*
X161244103Y-120484220D01*
X161244092Y-120484222D01*
X160990857Y-120552075D01*
X160748641Y-120652404D01*
X160748630Y-120652409D01*
X160521584Y-120783496D01*
X160408746Y-120870079D01*
X160408746Y-120870080D01*
X161387624Y-121848958D01*
X161327223Y-121873978D01*
X161220762Y-121945112D01*
X161130225Y-122035649D01*
X161059091Y-122142110D01*
X161034071Y-122202512D01*
X160030585Y-121199026D01*
X160000000Y-121143013D01*
X160000000Y-116385258D01*
X161834613Y-116385258D01*
X161834613Y-116614741D01*
X161859559Y-116804215D01*
X161864565Y-116842238D01*
X161864566Y-116842240D01*
X161923955Y-117063887D01*
X162011763Y-117275876D01*
X162011770Y-117275890D01*
X162126505Y-117474617D01*
X162266194Y-117656661D01*
X162266202Y-117656670D01*
X162428443Y-117818911D01*
X162428451Y-117818918D01*
X162610495Y-117958607D01*
X162610498Y-117958608D01*
X162610501Y-117958611D01*
X162809225Y-118073344D01*
X162809230Y-118073346D01*
X162809236Y-118073349D01*
X162885118Y-118104780D01*
X163021226Y-118161158D01*
X163242875Y-118220548D01*
X163470379Y-118250500D01*
X163470386Y-118250500D01*
X163699840Y-118250500D01*
X163699847Y-118250500D01*
X163927351Y-118220548D01*
X164149000Y-118161158D01*
X164361001Y-118073344D01*
X164559725Y-117958611D01*
X164741774Y-117818919D01*
X164741778Y-117818914D01*
X164741783Y-117818911D01*
X164904024Y-117656670D01*
X164904027Y-117656665D01*
X164904032Y-117656661D01*
X165043724Y-117474612D01*
X165158457Y-117275888D01*
X165246271Y-117063887D01*
X165305661Y-116842238D01*
X165335613Y-116614734D01*
X165335613Y-116385266D01*
X165332162Y-116359060D01*
X165328470Y-116331006D01*
X165326872Y-116318872D01*
X173834613Y-116318872D01*
X173834613Y-116581127D01*
X173839038Y-116614734D01*
X173868843Y-116841116D01*
X173924221Y-117047790D01*
X173936715Y-117094418D01*
X173936718Y-117094428D01*
X174037066Y-117336690D01*
X174037071Y-117336700D01*
X174168188Y-117563803D01*
X174327831Y-117771851D01*
X174327839Y-117771860D01*
X174513253Y-117957274D01*
X174513261Y-117957281D01*
X174721309Y-118116924D01*
X174948412Y-118248041D01*
X174948422Y-118248046D01*
X175190684Y-118348394D01*
X175190694Y-118348398D01*
X175443997Y-118416270D01*
X175703993Y-118450500D01*
X175704000Y-118450500D01*
X175966226Y-118450500D01*
X175966233Y-118450500D01*
X176226229Y-118416270D01*
X176479532Y-118348398D01*
X176656453Y-118275114D01*
X176721803Y-118248046D01*
X176721804Y-118248045D01*
X176721810Y-118248043D01*
X176948916Y-118116924D01*
X177156964Y-117957282D01*
X177156968Y-117957277D01*
X177156973Y-117957274D01*
X177342387Y-117771860D01*
X177342390Y-117771855D01*
X177342395Y-117771851D01*
X177502037Y-117563803D01*
X177633156Y-117336697D01*
X177733511Y-117094419D01*
X177801383Y-116841116D01*
X177835613Y-116581120D01*
X177835613Y-116388549D01*
X190967000Y-116388549D01*
X190967000Y-116611450D01*
X190967001Y-116611466D01*
X190996094Y-116832452D01*
X190996095Y-116832457D01*
X190996096Y-116832463D01*
X190998716Y-116842240D01*
X191053790Y-117047780D01*
X191053793Y-117047790D01*
X191139093Y-117253722D01*
X191139095Y-117253726D01*
X191250552Y-117446774D01*
X191250557Y-117446780D01*
X191250558Y-117446782D01*
X191386251Y-117623622D01*
X191386257Y-117623629D01*
X191543870Y-117781242D01*
X191543876Y-117781247D01*
X191720726Y-117916948D01*
X191913774Y-118028405D01*
X191913777Y-118028406D01*
X191913782Y-118028409D01*
X191992317Y-118060939D01*
X192046721Y-118104780D01*
X192068786Y-118171074D01*
X192051507Y-118238773D01*
X192000370Y-118286384D01*
X191944865Y-118299500D01*
X191667484Y-118299500D01*
X191564704Y-118310000D01*
X191564703Y-118310001D01*
X191398164Y-118365186D01*
X191398162Y-118365187D01*
X191248848Y-118457286D01*
X191248844Y-118457289D01*
X191124789Y-118581344D01*
X191124786Y-118581348D01*
X191032687Y-118730662D01*
X191032686Y-118730664D01*
X190977501Y-118897203D01*
X190977500Y-118897204D01*
X190967000Y-118999984D01*
X190967000Y-121000015D01*
X190977500Y-121102795D01*
X190977501Y-121102796D01*
X191032686Y-121269335D01*
X191032687Y-121269337D01*
X191124786Y-121418651D01*
X191124789Y-121418655D01*
X191248844Y-121542710D01*
X191248848Y-121542713D01*
X191398162Y-121634812D01*
X191398164Y-121634813D01*
X191398166Y-121634814D01*
X191564703Y-121689999D01*
X191667492Y-121700500D01*
X191667497Y-121700500D01*
X193667503Y-121700500D01*
X193667508Y-121700500D01*
X193770297Y-121689999D01*
X193936834Y-121634814D01*
X194086155Y-121542711D01*
X194210211Y-121418655D01*
X194302314Y-121269334D01*
X194357499Y-121102797D01*
X194368000Y-121000008D01*
X194368000Y-118999992D01*
X194357499Y-118897203D01*
X194302314Y-118730666D01*
X194210211Y-118581345D01*
X194086155Y-118457289D01*
X194086151Y-118457286D01*
X193936837Y-118365187D01*
X193936835Y-118365186D01*
X193853565Y-118337593D01*
X193770297Y-118310001D01*
X193770295Y-118310000D01*
X193667515Y-118299500D01*
X193667508Y-118299500D01*
X193390135Y-118299500D01*
X193323096Y-118279815D01*
X193277341Y-118227011D01*
X193267397Y-118157853D01*
X193296422Y-118094297D01*
X193342683Y-118060939D01*
X193421217Y-118028409D01*
X193421218Y-118028407D01*
X193421226Y-118028405D01*
X193614274Y-117916948D01*
X193791124Y-117781247D01*
X193948747Y-117623624D01*
X194084448Y-117446774D01*
X194195905Y-117253726D01*
X194281210Y-117047781D01*
X194338904Y-116832463D01*
X194368000Y-116611457D01*
X194368000Y-116388543D01*
X194338904Y-116167537D01*
X194281210Y-115952219D01*
X194195905Y-115746274D01*
X194084448Y-115553226D01*
X193948747Y-115376376D01*
X193948742Y-115376370D01*
X193791129Y-115218757D01*
X193791122Y-115218751D01*
X193614282Y-115083058D01*
X193614280Y-115083057D01*
X193614274Y-115083052D01*
X193421226Y-114971595D01*
X193421222Y-114971593D01*
X193215290Y-114886293D01*
X193215283Y-114886291D01*
X193215281Y-114886290D01*
X192999963Y-114828596D01*
X192999957Y-114828595D01*
X192999952Y-114828594D01*
X192778966Y-114799501D01*
X192778963Y-114799500D01*
X192778957Y-114799500D01*
X192556043Y-114799500D01*
X192556037Y-114799500D01*
X192556033Y-114799501D01*
X192335047Y-114828594D01*
X192335040Y-114828595D01*
X192335037Y-114828596D01*
X192119719Y-114886290D01*
X192119709Y-114886293D01*
X191913777Y-114971593D01*
X191913773Y-114971595D01*
X191720726Y-115083052D01*
X191720717Y-115083058D01*
X191543877Y-115218751D01*
X191543870Y-115218757D01*
X191386257Y-115376370D01*
X191386251Y-115376377D01*
X191250558Y-115553217D01*
X191250552Y-115553226D01*
X191139095Y-115746273D01*
X191139093Y-115746277D01*
X191053793Y-115952209D01*
X191053790Y-115952219D01*
X190996097Y-116167534D01*
X190996094Y-116167547D01*
X190967001Y-116388533D01*
X190967000Y-116388549D01*
X177835613Y-116388549D01*
X177835613Y-116318880D01*
X177801383Y-116058884D01*
X177733511Y-115805581D01*
X177733507Y-115805571D01*
X177633159Y-115563309D01*
X177633154Y-115563299D01*
X177502037Y-115336196D01*
X177342394Y-115128148D01*
X177342387Y-115128140D01*
X177156973Y-114942726D01*
X177156964Y-114942718D01*
X176948916Y-114783075D01*
X176721813Y-114651958D01*
X176721803Y-114651953D01*
X176479541Y-114551605D01*
X176479534Y-114551603D01*
X176479532Y-114551602D01*
X176226229Y-114483730D01*
X176168452Y-114476123D01*
X175966240Y-114449500D01*
X175966233Y-114449500D01*
X175703993Y-114449500D01*
X175703985Y-114449500D01*
X175472885Y-114479926D01*
X175443997Y-114483730D01*
X175190694Y-114551602D01*
X175190684Y-114551605D01*
X174948422Y-114651953D01*
X174948412Y-114651958D01*
X174721309Y-114783075D01*
X174513261Y-114942718D01*
X174327831Y-115128148D01*
X174168188Y-115336196D01*
X174037071Y-115563299D01*
X174037066Y-115563309D01*
X173936718Y-115805571D01*
X173936715Y-115805581D01*
X173901740Y-115936112D01*
X173868843Y-116058885D01*
X173834613Y-116318872D01*
X165326872Y-116318872D01*
X165320271Y-116268740D01*
X165305661Y-116157762D01*
X165246271Y-115936113D01*
X165167637Y-115746274D01*
X165158462Y-115724123D01*
X165158459Y-115724117D01*
X165158457Y-115724112D01*
X165043724Y-115525388D01*
X165043721Y-115525385D01*
X165043720Y-115525382D01*
X164904031Y-115343338D01*
X164904024Y-115343330D01*
X164741783Y-115181089D01*
X164741774Y-115181081D01*
X164559730Y-115041392D01*
X164361003Y-114926657D01*
X164360989Y-114926650D01*
X164149000Y-114838842D01*
X163927351Y-114779452D01*
X163889328Y-114774446D01*
X163699854Y-114749500D01*
X163699847Y-114749500D01*
X163470379Y-114749500D01*
X163470371Y-114749500D01*
X163253828Y-114778009D01*
X163242875Y-114779452D01*
X163168054Y-114799500D01*
X163021225Y-114838842D01*
X162809236Y-114926650D01*
X162809222Y-114926657D01*
X162610495Y-115041392D01*
X162428451Y-115181081D01*
X162266194Y-115343338D01*
X162126505Y-115525382D01*
X162011770Y-115724109D01*
X162011763Y-115724123D01*
X161923955Y-115936112D01*
X161864566Y-116157759D01*
X161864564Y-116157770D01*
X161834613Y-116385258D01*
X160000000Y-116385258D01*
X160000000Y-114124000D01*
X160019685Y-114056961D01*
X160072489Y-114011206D01*
X160124000Y-114000000D01*
X168000000Y-114000000D01*
X168000000Y-111405513D01*
X168584613Y-111405513D01*
X168584613Y-111594486D01*
X168614172Y-111781118D01*
X168672567Y-111960836D01*
X168753242Y-112119168D01*
X168758353Y-112129199D01*
X168869423Y-112282073D01*
X169003040Y-112415690D01*
X169155914Y-112526760D01*
X169235460Y-112567290D01*
X169324276Y-112612545D01*
X169324278Y-112612545D01*
X169324281Y-112612547D01*
X169420610Y-112643846D01*
X169503994Y-112670940D01*
X169690627Y-112700500D01*
X169690632Y-112700500D01*
X169879599Y-112700500D01*
X170066231Y-112670940D01*
X170245945Y-112612547D01*
X170414312Y-112526760D01*
X170567186Y-112415690D01*
X170700803Y-112282073D01*
X170811873Y-112129199D01*
X170897660Y-111960832D01*
X170956053Y-111781118D01*
X170985613Y-111594486D01*
X170985613Y-111405513D01*
X183584613Y-111405513D01*
X183584613Y-111594486D01*
X183614172Y-111781118D01*
X183672567Y-111960836D01*
X183753242Y-112119168D01*
X183758353Y-112129199D01*
X183869423Y-112282073D01*
X184003040Y-112415690D01*
X184155914Y-112526760D01*
X184235460Y-112567290D01*
X184324276Y-112612545D01*
X184324278Y-112612545D01*
X184324281Y-112612547D01*
X184420610Y-112643846D01*
X184503994Y-112670940D01*
X184690627Y-112700500D01*
X184690632Y-112700500D01*
X184879599Y-112700500D01*
X185066231Y-112670940D01*
X185245945Y-112612547D01*
X185414312Y-112526760D01*
X185567186Y-112415690D01*
X185700803Y-112282073D01*
X185811873Y-112129199D01*
X185897660Y-111960832D01*
X185956053Y-111781118D01*
X185985613Y-111594486D01*
X185985613Y-111405513D01*
X185956053Y-111218881D01*
X185897658Y-111039163D01*
X185811872Y-110870800D01*
X185700803Y-110717927D01*
X185567186Y-110584310D01*
X185414312Y-110473240D01*
X185245949Y-110387454D01*
X185066231Y-110329059D01*
X184879599Y-110299500D01*
X184879594Y-110299500D01*
X184690632Y-110299500D01*
X184690627Y-110299500D01*
X184503994Y-110329059D01*
X184324276Y-110387454D01*
X184155913Y-110473240D01*
X184068692Y-110536610D01*
X184003040Y-110584310D01*
X184003038Y-110584312D01*
X184003037Y-110584312D01*
X183869425Y-110717924D01*
X183869425Y-110717925D01*
X183869423Y-110717927D01*
X183821723Y-110783579D01*
X183758353Y-110870800D01*
X183672567Y-111039163D01*
X183614172Y-111218881D01*
X183584613Y-111405513D01*
X170985613Y-111405513D01*
X170956053Y-111218881D01*
X170897658Y-111039163D01*
X170811872Y-110870800D01*
X170700803Y-110717927D01*
X170567186Y-110584310D01*
X170414312Y-110473240D01*
X170245949Y-110387454D01*
X170066231Y-110329059D01*
X169879599Y-110299500D01*
X169879594Y-110299500D01*
X169690632Y-110299500D01*
X169690627Y-110299500D01*
X169503994Y-110329059D01*
X169324276Y-110387454D01*
X169155913Y-110473240D01*
X169068692Y-110536610D01*
X169003040Y-110584310D01*
X169003038Y-110584312D01*
X169003037Y-110584312D01*
X168869425Y-110717924D01*
X168869425Y-110717925D01*
X168869423Y-110717927D01*
X168821723Y-110783579D01*
X168758353Y-110870800D01*
X168672567Y-111039163D01*
X168614172Y-111218881D01*
X168584613Y-111405513D01*
X168000000Y-111405513D01*
X168000000Y-104632648D01*
X169984613Y-104632648D01*
X169984613Y-104837351D01*
X170016635Y-105039534D01*
X170079894Y-105234223D01*
X170117208Y-105307454D01*
X170172357Y-105415690D01*
X170172828Y-105416613D01*
X170293141Y-105582213D01*
X170293147Y-105582219D01*
X170437894Y-105726966D01*
X170531565Y-105795021D01*
X170574230Y-105850350D01*
X170580209Y-105919963D01*
X170547604Y-105981759D01*
X170497684Y-106013045D01*
X170415779Y-106040186D01*
X170415776Y-106040187D01*
X170266455Y-106132289D01*
X170142402Y-106256342D01*
X170050300Y-106405663D01*
X170050299Y-106405666D01*
X169995114Y-106572203D01*
X169995114Y-106572204D01*
X169995113Y-106572204D01*
X169984613Y-106674983D01*
X169984613Y-107875001D01*
X169984614Y-107875018D01*
X169995113Y-107977796D01*
X169995114Y-107977799D01*
X170039874Y-108112873D01*
X170050299Y-108144334D01*
X170142401Y-108293656D01*
X170266457Y-108417712D01*
X170415779Y-108509814D01*
X170582316Y-108564999D01*
X170685104Y-108575500D01*
X171885121Y-108575499D01*
X171987910Y-108564999D01*
X172154447Y-108509814D01*
X172303769Y-108417712D01*
X172427825Y-108293656D01*
X172519927Y-108144334D01*
X172575112Y-107977797D01*
X172585613Y-107875009D01*
X172585612Y-106674992D01*
X172583038Y-106649798D01*
X172575112Y-106572203D01*
X172575111Y-106572200D01*
X172555985Y-106514481D01*
X172519927Y-106405666D01*
X172427825Y-106256344D01*
X172303769Y-106132288D01*
X172154447Y-106040186D01*
X172072540Y-106013044D01*
X172015097Y-105973272D01*
X171988274Y-105908756D01*
X172000589Y-105839980D01*
X172038660Y-105795021D01*
X172132332Y-105726966D01*
X172277079Y-105582219D01*
X172277081Y-105582215D01*
X172277084Y-105582213D01*
X172347163Y-105485756D01*
X172397400Y-105416610D01*
X172490333Y-105234219D01*
X172553590Y-105039534D01*
X172575850Y-104898992D01*
X175034613Y-104898992D01*
X175034613Y-105101007D01*
X175074020Y-105299118D01*
X175074022Y-105299127D01*
X175151326Y-105485755D01*
X175205017Y-105566109D01*
X175225895Y-105632787D01*
X175207410Y-105700167D01*
X175205017Y-105703891D01*
X175151326Y-105784244D01*
X175074022Y-105970872D01*
X175074020Y-105970880D01*
X175034613Y-106168992D01*
X175034613Y-106371007D01*
X175074020Y-106569119D01*
X175074022Y-106569127D01*
X175107438Y-106649800D01*
X175114907Y-106719270D01*
X175095151Y-106764660D01*
X175095567Y-106764887D01*
X175093032Y-106769528D01*
X175092150Y-106771556D01*
X175091319Y-106772665D01*
X175091315Y-106772672D01*
X175041021Y-106907517D01*
X175038431Y-106931613D01*
X175034614Y-106967123D01*
X175034613Y-106967135D01*
X175034613Y-108112870D01*
X175034614Y-108112876D01*
X175041021Y-108172483D01*
X175091315Y-108307328D01*
X175091319Y-108307335D01*
X175177565Y-108422544D01*
X175177568Y-108422547D01*
X175292777Y-108508793D01*
X175292784Y-108508797D01*
X175427630Y-108559091D01*
X175427629Y-108559091D01*
X175434557Y-108559835D01*
X175487240Y-108565500D01*
X177082985Y-108565499D01*
X177142596Y-108559091D01*
X177277444Y-108508796D01*
X177392659Y-108422546D01*
X177478909Y-108307331D01*
X177529204Y-108172483D01*
X177535613Y-108112873D01*
X177535612Y-106967128D01*
X177529204Y-106907517D01*
X177482060Y-106781118D01*
X177478910Y-106772671D01*
X177478909Y-106772670D01*
X177478909Y-106772669D01*
X177478080Y-106771562D01*
X177477598Y-106770268D01*
X177474659Y-106764886D01*
X177475432Y-106764463D01*
X177453664Y-106706099D01*
X177462788Y-106649798D01*
X177496202Y-106569132D01*
X177496202Y-106569131D01*
X177496204Y-106569127D01*
X177535613Y-106371003D01*
X177535613Y-106168997D01*
X177535608Y-106168973D01*
X177535209Y-106166963D01*
X177535209Y-106166962D01*
X177531367Y-106147648D01*
X179984613Y-106147648D01*
X179984613Y-106352351D01*
X180016635Y-106554534D01*
X180079894Y-106749223D01*
X180096146Y-106781118D01*
X180160549Y-106907516D01*
X180172828Y-106931613D01*
X180293141Y-107097213D01*
X180437899Y-107241971D01*
X180603501Y-107362286D01*
X180656941Y-107389516D01*
X180707736Y-107437490D01*
X180724531Y-107505312D01*
X180701993Y-107571446D01*
X180656941Y-107610484D01*
X180603501Y-107637713D01*
X180437899Y-107758028D01*
X180293141Y-107902786D01*
X180172828Y-108068386D01*
X180079894Y-108250776D01*
X180016635Y-108445465D01*
X179984613Y-108647648D01*
X179984613Y-108852351D01*
X180016635Y-109054534D01*
X180079894Y-109249223D01*
X180172828Y-109431613D01*
X180293141Y-109597213D01*
X180437899Y-109741971D01*
X180566891Y-109835687D01*
X180603503Y-109862287D01*
X180719720Y-109921503D01*
X180785889Y-109955218D01*
X180785891Y-109955218D01*
X180785894Y-109955220D01*
X180890250Y-109989127D01*
X180980578Y-110018477D01*
X181069399Y-110032545D01*
X181182761Y-110050500D01*
X181182762Y-110050500D01*
X181387464Y-110050500D01*
X181387465Y-110050500D01*
X181589647Y-110018477D01*
X181784332Y-109955220D01*
X181966723Y-109862287D01*
X182059703Y-109794732D01*
X182132326Y-109741971D01*
X182132328Y-109741968D01*
X182132332Y-109741966D01*
X182277079Y-109597219D01*
X182277081Y-109597215D01*
X182277084Y-109597213D01*
X182329845Y-109524590D01*
X182397400Y-109431610D01*
X182490333Y-109249219D01*
X182553590Y-109054534D01*
X182585613Y-108852352D01*
X182585613Y-108647648D01*
X182572602Y-108565498D01*
X182553590Y-108445465D01*
X182524240Y-108355137D01*
X182490333Y-108250781D01*
X182490331Y-108250778D01*
X182490331Y-108250776D01*
X182432829Y-108137924D01*
X182397400Y-108068390D01*
X182350844Y-108004310D01*
X182277084Y-107902786D01*
X182132326Y-107758028D01*
X181966726Y-107637715D01*
X181966725Y-107637714D01*
X181966723Y-107637713D01*
X181913284Y-107610484D01*
X181862489Y-107562510D01*
X181845694Y-107494689D01*
X181868231Y-107428554D01*
X181913285Y-107389515D01*
X181966723Y-107362287D01*
X182077129Y-107282073D01*
X182132326Y-107241971D01*
X182132328Y-107241968D01*
X182132332Y-107241966D01*
X182277079Y-107097219D01*
X182277081Y-107097215D01*
X182277084Y-107097213D01*
X182329845Y-107024590D01*
X182397400Y-106931610D01*
X182490333Y-106749219D01*
X182553590Y-106554534D01*
X182585613Y-106352352D01*
X182585613Y-106325513D01*
X183584613Y-106325513D01*
X183584613Y-106514486D01*
X183614172Y-106701118D01*
X183672567Y-106880836D01*
X183753242Y-107039168D01*
X183758353Y-107049199D01*
X183869423Y-107202073D01*
X184003040Y-107335690D01*
X184155914Y-107446760D01*
X184172518Y-107455220D01*
X184324276Y-107532545D01*
X184324278Y-107532545D01*
X184324281Y-107532547D01*
X184416497Y-107562510D01*
X184503994Y-107590940D01*
X184690627Y-107620500D01*
X184690632Y-107620500D01*
X184879599Y-107620500D01*
X185066231Y-107590940D01*
X185245945Y-107532547D01*
X185414312Y-107446760D01*
X185567186Y-107335690D01*
X185700803Y-107202073D01*
X185811873Y-107049199D01*
X185897660Y-106880832D01*
X185956053Y-106701118D01*
X185972942Y-106594486D01*
X185985613Y-106514486D01*
X185985613Y-106405513D01*
X186544613Y-106405513D01*
X186544613Y-106594486D01*
X186574172Y-106781118D01*
X186632567Y-106960836D01*
X186672480Y-107039168D01*
X186718353Y-107129199D01*
X186829423Y-107282073D01*
X186963040Y-107415690D01*
X187115914Y-107526760D01*
X187219489Y-107579534D01*
X187278703Y-107609705D01*
X187329499Y-107657680D01*
X187346294Y-107725501D01*
X187323757Y-107791635D01*
X187278704Y-107830674D01*
X187155916Y-107893238D01*
X187079477Y-107948775D01*
X187003040Y-108004310D01*
X187003038Y-108004312D01*
X187003037Y-108004312D01*
X186869425Y-108137924D01*
X186869425Y-108137925D01*
X186869423Y-108137927D01*
X186821723Y-108203579D01*
X186758353Y-108290800D01*
X186672567Y-108459163D01*
X186614172Y-108638881D01*
X186584613Y-108825513D01*
X186584613Y-109014486D01*
X186614172Y-109201118D01*
X186672567Y-109380836D01*
X186758353Y-109549199D01*
X186869423Y-109702073D01*
X187003040Y-109835690D01*
X187155914Y-109946760D01*
X187172518Y-109955220D01*
X187324276Y-110032545D01*
X187324278Y-110032545D01*
X187324281Y-110032547D01*
X187420610Y-110063846D01*
X187503994Y-110090940D01*
X187690627Y-110120500D01*
X187690632Y-110120500D01*
X187879599Y-110120500D01*
X188066231Y-110090940D01*
X188245945Y-110032547D01*
X188414312Y-109946760D01*
X188567186Y-109835690D01*
X188700803Y-109702073D01*
X188811873Y-109549199D01*
X188897660Y-109380832D01*
X188956053Y-109201118D01*
X188985613Y-109014486D01*
X188985613Y-108825513D01*
X188956053Y-108638881D01*
X188914115Y-108509812D01*
X188897660Y-108459168D01*
X188897658Y-108459165D01*
X188897658Y-108459163D01*
X188813328Y-108293657D01*
X188811873Y-108290801D01*
X188700803Y-108137927D01*
X188567186Y-108004310D01*
X188414312Y-107893240D01*
X188378549Y-107875018D01*
X188251522Y-107810294D01*
X188200726Y-107762319D01*
X188183931Y-107694498D01*
X188206469Y-107628363D01*
X188251523Y-107589324D01*
X188374310Y-107526761D01*
X188374309Y-107526761D01*
X188374312Y-107526760D01*
X188527186Y-107415690D01*
X188660803Y-107282073D01*
X188771873Y-107129199D01*
X188857660Y-106960832D01*
X188916053Y-106781118D01*
X188925849Y-106719270D01*
X188945613Y-106594486D01*
X188945613Y-106405513D01*
X191624613Y-106405513D01*
X191624613Y-106594486D01*
X191654172Y-106781118D01*
X191712567Y-106960836D01*
X191752480Y-107039168D01*
X191798353Y-107129199D01*
X191909423Y-107282073D01*
X192043040Y-107415690D01*
X192195914Y-107526760D01*
X192299489Y-107579534D01*
X192358703Y-107609705D01*
X192409499Y-107657680D01*
X192426294Y-107725501D01*
X192403757Y-107791635D01*
X192358704Y-107830674D01*
X192235916Y-107893238D01*
X192159477Y-107948775D01*
X192083040Y-108004310D01*
X192083038Y-108004312D01*
X192083037Y-108004312D01*
X191949425Y-108137924D01*
X191949425Y-108137925D01*
X191949423Y-108137927D01*
X191901723Y-108203579D01*
X191838353Y-108290800D01*
X191752567Y-108459163D01*
X191694172Y-108638881D01*
X191664613Y-108825513D01*
X191664613Y-109014486D01*
X191694172Y-109201118D01*
X191752567Y-109380836D01*
X191838353Y-109549199D01*
X191949423Y-109702073D01*
X192083040Y-109835690D01*
X192235914Y-109946760D01*
X192252518Y-109955220D01*
X192404276Y-110032545D01*
X192404278Y-110032545D01*
X192404281Y-110032547D01*
X192500610Y-110063846D01*
X192583994Y-110090940D01*
X192770627Y-110120500D01*
X192770632Y-110120500D01*
X192959599Y-110120500D01*
X193146231Y-110090940D01*
X193325945Y-110032547D01*
X193494312Y-109946760D01*
X193647186Y-109835690D01*
X193780803Y-109702073D01*
X193891873Y-109549199D01*
X193977660Y-109380832D01*
X194036053Y-109201118D01*
X194065613Y-109014486D01*
X194065613Y-108825513D01*
X194036053Y-108638881D01*
X193994115Y-108509812D01*
X193977660Y-108459168D01*
X193977658Y-108459165D01*
X193977658Y-108459163D01*
X193893328Y-108293657D01*
X193891873Y-108290801D01*
X193780803Y-108137927D01*
X193647186Y-108004310D01*
X193494312Y-107893240D01*
X193458549Y-107875018D01*
X193331522Y-107810294D01*
X193280726Y-107762319D01*
X193263931Y-107694498D01*
X193286469Y-107628363D01*
X193331523Y-107589324D01*
X193454310Y-107526761D01*
X193454309Y-107526761D01*
X193454312Y-107526760D01*
X193607186Y-107415690D01*
X193740803Y-107282073D01*
X193851873Y-107129199D01*
X193937660Y-106960832D01*
X193996053Y-106781118D01*
X194005849Y-106719270D01*
X194025613Y-106594486D01*
X194025613Y-106405513D01*
X193996053Y-106218881D01*
X193967917Y-106132288D01*
X193937660Y-106039168D01*
X193937658Y-106039165D01*
X193937658Y-106039163D01*
X193851872Y-105870800D01*
X193829480Y-105839980D01*
X193740803Y-105717927D01*
X193607186Y-105584310D01*
X193454312Y-105473240D01*
X193285949Y-105387454D01*
X193106231Y-105329059D01*
X192919599Y-105299500D01*
X192919594Y-105299500D01*
X192730632Y-105299500D01*
X192730627Y-105299500D01*
X192543994Y-105329059D01*
X192364276Y-105387454D01*
X192195913Y-105473240D01*
X192153150Y-105504310D01*
X192043040Y-105584310D01*
X192043038Y-105584312D01*
X192043037Y-105584312D01*
X191909425Y-105717924D01*
X191909425Y-105717925D01*
X191909423Y-105717927D01*
X191902856Y-105726966D01*
X191798353Y-105870800D01*
X191712567Y-106039163D01*
X191654172Y-106218881D01*
X191624613Y-106405513D01*
X188945613Y-106405513D01*
X188916053Y-106218881D01*
X188887917Y-106132288D01*
X188857660Y-106039168D01*
X188857658Y-106039165D01*
X188857658Y-106039163D01*
X188771872Y-105870800D01*
X188749480Y-105839980D01*
X188660803Y-105717927D01*
X188527186Y-105584310D01*
X188374312Y-105473240D01*
X188205949Y-105387454D01*
X188026231Y-105329059D01*
X187839599Y-105299500D01*
X187839594Y-105299500D01*
X187650632Y-105299500D01*
X187650627Y-105299500D01*
X187463994Y-105329059D01*
X187284276Y-105387454D01*
X187115913Y-105473240D01*
X187073150Y-105504310D01*
X186963040Y-105584310D01*
X186963038Y-105584312D01*
X186963037Y-105584312D01*
X186829425Y-105717924D01*
X186829425Y-105717925D01*
X186829423Y-105717927D01*
X186822856Y-105726966D01*
X186718353Y-105870800D01*
X186632567Y-106039163D01*
X186574172Y-106218881D01*
X186544613Y-106405513D01*
X185985613Y-106405513D01*
X185985613Y-106325513D01*
X185956053Y-106138881D01*
X185923985Y-106040187D01*
X185897660Y-105959168D01*
X185897658Y-105959165D01*
X185897658Y-105959163D01*
X185836931Y-105839980D01*
X185811873Y-105790801D01*
X185700803Y-105637927D01*
X185567186Y-105504310D01*
X185414312Y-105393240D01*
X185402954Y-105387453D01*
X185245949Y-105307454D01*
X185066231Y-105249059D01*
X184879599Y-105219500D01*
X184879594Y-105219500D01*
X184690632Y-105219500D01*
X184690627Y-105219500D01*
X184503994Y-105249059D01*
X184324276Y-105307454D01*
X184155913Y-105393240D01*
X184068692Y-105456610D01*
X184003040Y-105504310D01*
X184003038Y-105504312D01*
X184003037Y-105504312D01*
X183869425Y-105637924D01*
X183869425Y-105637925D01*
X183869423Y-105637927D01*
X183845438Y-105670940D01*
X183758353Y-105790800D01*
X183672567Y-105959163D01*
X183614172Y-106138881D01*
X183584613Y-106325513D01*
X182585613Y-106325513D01*
X182585613Y-106147648D01*
X182568593Y-106040187D01*
X182553590Y-105945465D01*
X182521690Y-105847287D01*
X182490333Y-105750781D01*
X182490331Y-105750778D01*
X182490331Y-105750776D01*
X182432829Y-105637924D01*
X182397400Y-105568390D01*
X182389669Y-105557749D01*
X182277084Y-105402786D01*
X182132326Y-105258028D01*
X181966726Y-105137715D01*
X181966725Y-105137714D01*
X181966723Y-105137713D01*
X181894676Y-105101003D01*
X181784336Y-105044781D01*
X181589647Y-104981522D01*
X181415108Y-104953878D01*
X181387465Y-104949500D01*
X181182761Y-104949500D01*
X181158442Y-104953351D01*
X180980578Y-104981522D01*
X180785889Y-105044781D01*
X180603499Y-105137715D01*
X180437899Y-105258028D01*
X180293141Y-105402786D01*
X180172828Y-105568386D01*
X180079894Y-105750776D01*
X180016635Y-105945465D01*
X179984613Y-106147648D01*
X177531367Y-106147648D01*
X177498369Y-105981759D01*
X177496204Y-105970873D01*
X177418899Y-105784244D01*
X177365207Y-105703889D01*
X177344330Y-105637214D01*
X177362814Y-105569834D01*
X177365191Y-105566134D01*
X177418899Y-105485756D01*
X177496204Y-105299127D01*
X177535613Y-105101003D01*
X177535613Y-104898997D01*
X177496204Y-104700873D01*
X177418899Y-104514244D01*
X177418897Y-104514241D01*
X177418895Y-104514237D01*
X177306671Y-104346281D01*
X177163831Y-104203441D01*
X176995875Y-104091217D01*
X176995865Y-104091212D01*
X176809240Y-104013909D01*
X176809232Y-104013907D01*
X176611120Y-103974500D01*
X176611116Y-103974500D01*
X175959110Y-103974500D01*
X175959105Y-103974500D01*
X175760993Y-104013907D01*
X175760985Y-104013909D01*
X175574360Y-104091212D01*
X175574350Y-104091217D01*
X175406394Y-104203441D01*
X175263554Y-104346281D01*
X175151330Y-104514237D01*
X175151325Y-104514247D01*
X175074022Y-104700872D01*
X175074020Y-104700880D01*
X175034613Y-104898992D01*
X172575850Y-104898992D01*
X172585613Y-104837352D01*
X172585613Y-104632648D01*
X172553590Y-104430466D01*
X172490333Y-104235781D01*
X172490331Y-104235778D01*
X172490331Y-104235776D01*
X172456616Y-104169607D01*
X172397400Y-104053390D01*
X172340084Y-103974500D01*
X172277084Y-103887786D01*
X172132326Y-103743028D01*
X171966726Y-103622715D01*
X171966725Y-103622714D01*
X171966723Y-103622713D01*
X171891353Y-103584310D01*
X171784336Y-103529781D01*
X171589647Y-103466522D01*
X171415108Y-103438878D01*
X171387465Y-103434500D01*
X171182761Y-103434500D01*
X171158442Y-103438351D01*
X170980578Y-103466522D01*
X170785889Y-103529781D01*
X170603499Y-103622715D01*
X170437899Y-103743028D01*
X170293141Y-103887786D01*
X170172828Y-104053386D01*
X170079894Y-104235776D01*
X170016635Y-104430465D01*
X169984613Y-104632648D01*
X168000000Y-104632648D01*
X168000000Y-96397648D01*
X169984613Y-96397648D01*
X169984613Y-96602352D01*
X169988991Y-96629995D01*
X170016635Y-96804534D01*
X170079894Y-96999223D01*
X170172828Y-97181613D01*
X170293141Y-97347213D01*
X170437899Y-97491971D01*
X170592862Y-97604556D01*
X170603503Y-97612287D01*
X170719720Y-97671503D01*
X170785889Y-97705218D01*
X170785891Y-97705218D01*
X170785894Y-97705220D01*
X170890250Y-97739127D01*
X170980578Y-97768477D01*
X171081670Y-97784488D01*
X171182761Y-97800500D01*
X171182762Y-97800500D01*
X171387464Y-97800500D01*
X171387465Y-97800500D01*
X171589647Y-97768477D01*
X171784332Y-97705220D01*
X171966723Y-97612287D01*
X172065530Y-97540500D01*
X172132326Y-97491971D01*
X172132328Y-97491968D01*
X172132332Y-97491966D01*
X172277079Y-97347219D01*
X172277081Y-97347215D01*
X172277084Y-97347213D01*
X172329845Y-97274590D01*
X172397400Y-97181610D01*
X172490333Y-96999219D01*
X172553590Y-96804534D01*
X172585613Y-96602352D01*
X172585613Y-96397648D01*
X172575112Y-96331348D01*
X172553590Y-96195465D01*
X172524240Y-96105137D01*
X172490333Y-96000781D01*
X172490331Y-96000778D01*
X172490331Y-96000776D01*
X172442984Y-95907853D01*
X172397400Y-95818390D01*
X172389669Y-95807749D01*
X172277084Y-95652786D01*
X172132326Y-95508028D01*
X171966726Y-95387715D01*
X171966725Y-95387714D01*
X171966723Y-95387713D01*
X171909766Y-95358691D01*
X171784336Y-95294781D01*
X171589647Y-95231522D01*
X171415108Y-95203878D01*
X171387465Y-95199500D01*
X171182761Y-95199500D01*
X171158442Y-95203351D01*
X170980578Y-95231522D01*
X170785889Y-95294781D01*
X170603499Y-95387715D01*
X170437899Y-95508028D01*
X170293141Y-95652786D01*
X170172828Y-95818386D01*
X170079894Y-96000776D01*
X170016635Y-96195465D01*
X169995114Y-96331348D01*
X169984613Y-96397648D01*
X168000000Y-96397648D01*
X168000000Y-91317648D01*
X169984613Y-91317648D01*
X169984613Y-91522352D01*
X169988991Y-91549995D01*
X170016635Y-91724534D01*
X170079894Y-91919223D01*
X170172828Y-92101613D01*
X170293141Y-92267213D01*
X170437899Y-92411971D01*
X170553372Y-92495865D01*
X170603503Y-92532287D01*
X170713815Y-92588494D01*
X170785889Y-92625218D01*
X170785891Y-92625218D01*
X170785894Y-92625220D01*
X170858820Y-92648915D01*
X170980578Y-92688477D01*
X171081670Y-92704488D01*
X171182761Y-92720500D01*
X171182762Y-92720500D01*
X171387464Y-92720500D01*
X171387465Y-92720500D01*
X171589647Y-92688477D01*
X171784332Y-92625220D01*
X171966723Y-92532287D01*
X172072703Y-92455289D01*
X172132326Y-92411971D01*
X172132328Y-92411968D01*
X172132332Y-92411966D01*
X172277079Y-92267219D01*
X172277081Y-92267215D01*
X172277084Y-92267213D01*
X172329845Y-92194590D01*
X172397400Y-92101610D01*
X172490333Y-91919219D01*
X172553590Y-91724534D01*
X172585613Y-91522352D01*
X172585613Y-91317648D01*
X172560402Y-91158471D01*
X172558100Y-91143945D01*
X178564613Y-91143945D01*
X178564613Y-91336054D01*
X178594666Y-91525802D01*
X178654029Y-91708506D01*
X178654031Y-91708509D01*
X178741248Y-91879681D01*
X178854168Y-92035102D01*
X178990011Y-92170945D01*
X179145432Y-92283865D01*
X179190366Y-92306760D01*
X179316606Y-92371083D01*
X179381194Y-92392069D01*
X179438869Y-92431506D01*
X179466068Y-92495865D01*
X179454154Y-92564711D01*
X179406910Y-92616187D01*
X179381194Y-92627931D01*
X179316606Y-92648916D01*
X179145431Y-92736135D01*
X179105445Y-92765187D01*
X178990011Y-92849055D01*
X178990009Y-92849057D01*
X178990008Y-92849057D01*
X178854170Y-92984895D01*
X178854170Y-92984896D01*
X178854168Y-92984898D01*
X178805673Y-93051645D01*
X178741248Y-93140318D01*
X178654029Y-93311493D01*
X178594666Y-93494197D01*
X178564613Y-93683945D01*
X178564613Y-93876054D01*
X178594666Y-94065802D01*
X178654029Y-94248506D01*
X178711581Y-94361457D01*
X178741248Y-94419681D01*
X178854168Y-94575102D01*
X178990011Y-94710945D01*
X179145432Y-94823865D01*
X179316604Y-94911082D01*
X179316606Y-94911083D01*
X179381194Y-94932069D01*
X179438869Y-94971506D01*
X179466068Y-95035865D01*
X179454154Y-95104711D01*
X179406910Y-95156187D01*
X179381194Y-95167931D01*
X179316606Y-95188916D01*
X179145431Y-95276135D01*
X179111896Y-95300500D01*
X178990011Y-95389055D01*
X178990009Y-95389057D01*
X178990008Y-95389057D01*
X178854170Y-95524895D01*
X178854170Y-95524896D01*
X178854168Y-95524898D01*
X178815640Y-95577927D01*
X178741248Y-95680318D01*
X178654029Y-95851493D01*
X178594666Y-96034197D01*
X178564613Y-96223945D01*
X178564613Y-96416054D01*
X178594666Y-96605802D01*
X178654029Y-96788506D01*
X178654031Y-96788509D01*
X178741248Y-96959681D01*
X178854168Y-97115102D01*
X178990011Y-97250945D01*
X179145432Y-97363865D01*
X179190366Y-97386760D01*
X179316606Y-97451083D01*
X179382667Y-97472547D01*
X179499312Y-97510447D01*
X179689058Y-97540500D01*
X179689059Y-97540500D01*
X179881167Y-97540500D01*
X179881168Y-97540500D01*
X180070914Y-97510447D01*
X180253622Y-97451082D01*
X180424794Y-97363865D01*
X180580215Y-97250945D01*
X180716058Y-97115102D01*
X180828978Y-96959681D01*
X180916195Y-96788509D01*
X180975560Y-96605801D01*
X181005613Y-96416055D01*
X181005613Y-96223945D01*
X180975560Y-96034199D01*
X180916195Y-95851491D01*
X180828978Y-95680319D01*
X180716058Y-95524898D01*
X180580215Y-95389055D01*
X180424794Y-95276135D01*
X180368503Y-95247453D01*
X180253617Y-95188915D01*
X180189032Y-95167931D01*
X180131356Y-95128494D01*
X180104157Y-95064136D01*
X180116071Y-94995289D01*
X180163315Y-94943813D01*
X180189032Y-94932069D01*
X180253617Y-94911084D01*
X180253619Y-94911082D01*
X180253622Y-94911082D01*
X180424794Y-94823865D01*
X180580215Y-94710945D01*
X180716058Y-94575102D01*
X180828978Y-94419681D01*
X180916195Y-94248509D01*
X180975560Y-94065801D01*
X181005613Y-93876055D01*
X181005613Y-93683945D01*
X180975560Y-93494199D01*
X180944952Y-93399998D01*
X180944947Y-93399983D01*
X184699500Y-93399983D01*
X184699500Y-94600001D01*
X184699501Y-94600018D01*
X184710000Y-94702796D01*
X184710001Y-94702799D01*
X184750119Y-94823864D01*
X184765186Y-94869334D01*
X184857288Y-95018656D01*
X184981344Y-95142712D01*
X185130666Y-95234814D01*
X185174759Y-95249425D01*
X185232203Y-95289196D01*
X185259027Y-95353711D01*
X185246713Y-95422487D01*
X185208642Y-95467447D01*
X185152784Y-95508031D01*
X185152782Y-95508032D01*
X185008028Y-95652786D01*
X184887715Y-95818386D01*
X184794781Y-96000776D01*
X184731522Y-96195465D01*
X184710001Y-96331348D01*
X184699500Y-96397648D01*
X184699500Y-96602352D01*
X184703878Y-96629995D01*
X184731522Y-96804534D01*
X184794781Y-96999223D01*
X184887715Y-97181613D01*
X185008028Y-97347213D01*
X185152786Y-97491971D01*
X185307749Y-97604556D01*
X185318390Y-97612287D01*
X185434607Y-97671503D01*
X185500776Y-97705218D01*
X185500778Y-97705218D01*
X185500781Y-97705220D01*
X185605137Y-97739127D01*
X185695465Y-97768477D01*
X185796557Y-97784488D01*
X185897648Y-97800500D01*
X185897649Y-97800500D01*
X186102351Y-97800500D01*
X186102352Y-97800500D01*
X186304534Y-97768477D01*
X186499219Y-97705220D01*
X186681610Y-97612287D01*
X186780417Y-97540500D01*
X186847213Y-97491971D01*
X186847215Y-97491968D01*
X186847219Y-97491966D01*
X186991966Y-97347219D01*
X186991968Y-97347215D01*
X186991971Y-97347213D01*
X187044732Y-97274590D01*
X187112287Y-97181610D01*
X187205220Y-96999219D01*
X187268477Y-96804534D01*
X187300500Y-96602352D01*
X187300500Y-96397648D01*
X187289999Y-96331348D01*
X187268477Y-96195465D01*
X187239127Y-96105137D01*
X187205220Y-96000781D01*
X187205218Y-96000778D01*
X187205218Y-96000776D01*
X187157871Y-95907853D01*
X187112287Y-95818390D01*
X187104556Y-95807749D01*
X186991971Y-95652786D01*
X186847217Y-95508032D01*
X186791358Y-95467448D01*
X186748693Y-95412118D01*
X186742714Y-95342504D01*
X186775320Y-95280709D01*
X186825236Y-95249426D01*
X186869334Y-95234814D01*
X187018656Y-95142712D01*
X187142712Y-95018656D01*
X187234814Y-94869334D01*
X187289999Y-94702797D01*
X187300500Y-94600009D01*
X187300499Y-94138549D01*
X190967000Y-94138549D01*
X190967000Y-94361450D01*
X190967001Y-94361466D01*
X190996094Y-94582452D01*
X190996095Y-94582457D01*
X190996096Y-94582463D01*
X191053790Y-94797780D01*
X191053793Y-94797790D01*
X191139093Y-95003722D01*
X191139095Y-95003726D01*
X191250552Y-95196774D01*
X191250557Y-95196780D01*
X191250558Y-95196782D01*
X191386251Y-95373622D01*
X191386257Y-95373629D01*
X191543870Y-95531242D01*
X191543876Y-95531247D01*
X191720726Y-95666948D01*
X191913774Y-95778405D01*
X191913777Y-95778406D01*
X191913782Y-95778409D01*
X191992317Y-95810939D01*
X192046721Y-95854780D01*
X192068786Y-95921074D01*
X192051507Y-95988773D01*
X192000370Y-96036384D01*
X191944865Y-96049500D01*
X191667484Y-96049500D01*
X191564704Y-96060000D01*
X191564703Y-96060001D01*
X191398164Y-96115186D01*
X191398162Y-96115187D01*
X191248848Y-96207286D01*
X191248844Y-96207289D01*
X191124789Y-96331344D01*
X191124786Y-96331348D01*
X191032687Y-96480662D01*
X191032686Y-96480664D01*
X190977501Y-96647203D01*
X190977500Y-96647204D01*
X190967000Y-96749984D01*
X190967000Y-98750015D01*
X190977500Y-98852795D01*
X190977501Y-98852796D01*
X191032686Y-99019335D01*
X191032687Y-99019337D01*
X191124786Y-99168651D01*
X191124789Y-99168655D01*
X191248844Y-99292710D01*
X191248848Y-99292713D01*
X191398162Y-99384812D01*
X191398164Y-99384813D01*
X191398166Y-99384814D01*
X191564703Y-99439999D01*
X191667492Y-99450500D01*
X191667497Y-99450500D01*
X193667503Y-99450500D01*
X193667508Y-99450500D01*
X193770297Y-99439999D01*
X193936834Y-99384814D01*
X194086155Y-99292711D01*
X194210211Y-99168655D01*
X194302314Y-99019334D01*
X194357499Y-98852797D01*
X194368000Y-98750008D01*
X194368000Y-96749992D01*
X194357499Y-96647203D01*
X194302314Y-96480666D01*
X194251107Y-96397648D01*
X194210213Y-96331348D01*
X194210210Y-96331344D01*
X194086155Y-96207289D01*
X194086151Y-96207286D01*
X193936837Y-96115187D01*
X193936835Y-96115186D01*
X193827276Y-96078882D01*
X193770297Y-96060001D01*
X193770295Y-96060000D01*
X193667515Y-96049500D01*
X193667508Y-96049500D01*
X193390135Y-96049500D01*
X193323096Y-96029815D01*
X193277341Y-95977011D01*
X193267397Y-95907853D01*
X193296422Y-95844297D01*
X193342683Y-95810939D01*
X193421217Y-95778409D01*
X193421218Y-95778407D01*
X193421226Y-95778405D01*
X193614274Y-95666948D01*
X193791124Y-95531247D01*
X193948747Y-95373624D01*
X194084448Y-95196774D01*
X194195905Y-95003726D01*
X194281210Y-94797781D01*
X194338904Y-94582463D01*
X194368000Y-94361457D01*
X194368000Y-94138543D01*
X194338904Y-93917537D01*
X194281210Y-93702219D01*
X194195905Y-93496274D01*
X194084448Y-93303226D01*
X193959445Y-93140318D01*
X193948748Y-93126377D01*
X193948742Y-93126370D01*
X193791129Y-92968757D01*
X193791122Y-92968751D01*
X193614282Y-92833058D01*
X193614280Y-92833057D01*
X193614274Y-92833052D01*
X193421226Y-92721595D01*
X193421222Y-92721593D01*
X193215290Y-92636293D01*
X193215283Y-92636291D01*
X193215281Y-92636290D01*
X192999963Y-92578596D01*
X192999957Y-92578595D01*
X192999952Y-92578594D01*
X192778966Y-92549501D01*
X192778963Y-92549500D01*
X192778957Y-92549500D01*
X192556043Y-92549500D01*
X192556037Y-92549500D01*
X192556033Y-92549501D01*
X192335047Y-92578594D01*
X192335040Y-92578595D01*
X192335037Y-92578596D01*
X192161033Y-92625220D01*
X192119719Y-92636290D01*
X192119709Y-92636293D01*
X191913777Y-92721593D01*
X191913773Y-92721595D01*
X191720726Y-92833052D01*
X191720717Y-92833058D01*
X191543877Y-92968751D01*
X191543870Y-92968757D01*
X191386257Y-93126370D01*
X191386251Y-93126377D01*
X191250558Y-93303217D01*
X191250552Y-93303226D01*
X191139095Y-93496273D01*
X191139093Y-93496277D01*
X191053793Y-93702209D01*
X191053790Y-93702219D01*
X190996097Y-93917534D01*
X190996094Y-93917547D01*
X190967001Y-94138533D01*
X190967000Y-94138549D01*
X187300499Y-94138549D01*
X187300499Y-93917547D01*
X187300499Y-93399998D01*
X187300498Y-93399981D01*
X187289999Y-93297203D01*
X187289998Y-93297200D01*
X187234814Y-93130666D01*
X187142712Y-92981344D01*
X187018656Y-92857288D01*
X186869334Y-92765186D01*
X186702797Y-92710001D01*
X186702795Y-92710000D01*
X186600010Y-92699500D01*
X185399998Y-92699500D01*
X185399981Y-92699501D01*
X185297203Y-92710000D01*
X185297200Y-92710001D01*
X185130668Y-92765185D01*
X185130663Y-92765187D01*
X184981342Y-92857289D01*
X184857289Y-92981342D01*
X184765187Y-93130663D01*
X184765185Y-93130668D01*
X184761987Y-93140319D01*
X184710001Y-93297203D01*
X184710001Y-93297204D01*
X184710000Y-93297204D01*
X184699500Y-93399983D01*
X180944947Y-93399983D01*
X180916196Y-93311493D01*
X180828977Y-93140318D01*
X180821966Y-93130668D01*
X180716058Y-92984898D01*
X180580215Y-92849055D01*
X180424794Y-92736135D01*
X180394107Y-92720499D01*
X180253617Y-92648915D01*
X180189032Y-92627931D01*
X180131356Y-92588494D01*
X180104157Y-92524136D01*
X180116071Y-92455289D01*
X180163315Y-92403813D01*
X180189032Y-92392069D01*
X180253617Y-92371084D01*
X180253619Y-92371082D01*
X180253622Y-92371082D01*
X180424794Y-92283865D01*
X180580215Y-92170945D01*
X180716058Y-92035102D01*
X180828978Y-91879681D01*
X180916195Y-91708509D01*
X180975560Y-91525801D01*
X181005613Y-91336055D01*
X181005613Y-91143945D01*
X180975560Y-90954199D01*
X180916195Y-90771491D01*
X180828978Y-90600319D01*
X180716058Y-90444898D01*
X180580215Y-90309055D01*
X180424794Y-90196135D01*
X180253619Y-90108916D01*
X180070915Y-90049553D01*
X179976041Y-90034526D01*
X179881168Y-90019500D01*
X179689058Y-90019500D01*
X179625809Y-90029517D01*
X179499310Y-90049553D01*
X179316606Y-90108916D01*
X179145431Y-90196135D01*
X179066834Y-90253240D01*
X178990011Y-90309055D01*
X178990009Y-90309057D01*
X178990008Y-90309057D01*
X178854170Y-90444895D01*
X178854170Y-90444896D01*
X178854168Y-90444898D01*
X178815640Y-90497927D01*
X178741248Y-90600318D01*
X178654029Y-90771493D01*
X178594666Y-90954197D01*
X178564613Y-91143945D01*
X172558100Y-91143945D01*
X172557311Y-91138963D01*
X172553590Y-91115466D01*
X172490333Y-90920781D01*
X172490331Y-90920778D01*
X172490331Y-90920776D01*
X172456616Y-90854607D01*
X172397400Y-90738390D01*
X172389669Y-90727749D01*
X172277084Y-90572786D01*
X172132326Y-90428028D01*
X171966726Y-90307715D01*
X171966725Y-90307714D01*
X171966723Y-90307713D01*
X171909766Y-90278691D01*
X171784336Y-90214781D01*
X171589647Y-90151522D01*
X171415108Y-90123878D01*
X171387465Y-90119500D01*
X171182761Y-90119500D01*
X171158442Y-90123351D01*
X170980578Y-90151522D01*
X170785889Y-90214781D01*
X170603499Y-90307715D01*
X170437899Y-90428028D01*
X170293141Y-90572786D01*
X170172828Y-90738386D01*
X170079894Y-90920776D01*
X170016635Y-91115465D01*
X169984613Y-91317648D01*
X168000000Y-91317648D01*
X168000000Y-77830000D01*
X170008504Y-77830000D01*
X170969427Y-77830000D01*
X170965033Y-77834394D01*
X170912372Y-77925606D01*
X170885113Y-78027339D01*
X170885113Y-78132661D01*
X170912372Y-78234394D01*
X170965033Y-78325606D01*
X170969427Y-78330000D01*
X170008504Y-78330000D01*
X170017122Y-78384413D01*
X170080357Y-78579029D01*
X170173253Y-78761349D01*
X170293530Y-78926894D01*
X170293530Y-78926895D01*
X170438217Y-79071582D01*
X170603763Y-79191859D01*
X170786081Y-79284754D01*
X170980691Y-79347988D01*
X171035113Y-79356607D01*
X171035113Y-78395686D01*
X171039507Y-78400080D01*
X171130719Y-78452741D01*
X171232452Y-78480000D01*
X171337774Y-78480000D01*
X171439507Y-78452741D01*
X171530719Y-78400080D01*
X171535113Y-78395686D01*
X171535113Y-79356606D01*
X171589534Y-79347988D01*
X171784144Y-79284754D01*
X171966462Y-79191859D01*
X172132007Y-79071582D01*
X172132008Y-79071582D01*
X172195708Y-79007882D01*
X174630782Y-79007882D01*
X174630783Y-79007883D01*
X174656172Y-79026329D01*
X174824475Y-79112085D01*
X175004110Y-79170451D01*
X175190666Y-79200000D01*
X175379560Y-79200000D01*
X175566115Y-79170451D01*
X175745750Y-79112085D01*
X175914050Y-79026331D01*
X175939441Y-79007883D01*
X175939441Y-79007882D01*
X175285114Y-78353554D01*
X175285113Y-78353554D01*
X174630782Y-79007882D01*
X172195708Y-79007882D01*
X172276695Y-78926895D01*
X172276695Y-78926894D01*
X172305146Y-78887737D01*
X172396972Y-78761349D01*
X172489868Y-78579029D01*
X172553103Y-78384413D01*
X172561722Y-78330000D01*
X171600799Y-78330000D01*
X171605193Y-78325606D01*
X171657854Y-78234394D01*
X171685113Y-78132661D01*
X171685113Y-78027339D01*
X171657854Y-77925606D01*
X171646276Y-77905552D01*
X174085113Y-77905552D01*
X174085113Y-78094447D01*
X174114661Y-78281002D01*
X174173027Y-78460637D01*
X174258779Y-78628933D01*
X174277229Y-78654328D01*
X174931559Y-78000000D01*
X174931559Y-77999999D01*
X174885482Y-77953922D01*
X174935113Y-77953922D01*
X174935113Y-78046078D01*
X174958965Y-78135095D01*
X175005043Y-78214905D01*
X175070208Y-78280070D01*
X175150018Y-78326148D01*
X175239035Y-78350000D01*
X175331191Y-78350000D01*
X175420208Y-78326148D01*
X175500018Y-78280070D01*
X175565183Y-78214905D01*
X175611261Y-78135095D01*
X175635113Y-78046078D01*
X175635113Y-77999999D01*
X175638667Y-77999999D01*
X175638667Y-78000000D01*
X176292995Y-78654328D01*
X176292996Y-78654328D01*
X176311444Y-78628937D01*
X176397198Y-78460637D01*
X176455564Y-78281002D01*
X176485113Y-78094447D01*
X176485113Y-77905552D01*
X176455564Y-77718997D01*
X176397198Y-77539362D01*
X176311442Y-77371059D01*
X176292996Y-77345670D01*
X176292995Y-77345669D01*
X175638667Y-77999999D01*
X175635113Y-77999999D01*
X175635113Y-77953922D01*
X175611261Y-77864905D01*
X175565183Y-77785095D01*
X175500018Y-77719930D01*
X175420208Y-77673852D01*
X175331191Y-77650000D01*
X175239035Y-77650000D01*
X175150018Y-77673852D01*
X175070208Y-77719930D01*
X175005043Y-77785095D01*
X174958965Y-77864905D01*
X174935113Y-77953922D01*
X174885482Y-77953922D01*
X174277229Y-77345669D01*
X174277229Y-77345670D01*
X174258782Y-77371060D01*
X174173027Y-77539362D01*
X174114661Y-77718997D01*
X174085113Y-77905552D01*
X171646276Y-77905552D01*
X171605193Y-77834394D01*
X171600799Y-77830000D01*
X172561722Y-77830000D01*
X172561722Y-77829999D01*
X172553103Y-77775586D01*
X172489868Y-77580970D01*
X172396972Y-77398650D01*
X172276695Y-77233105D01*
X172276695Y-77233104D01*
X172132008Y-77088417D01*
X171999462Y-76992116D01*
X174630782Y-76992116D01*
X175285113Y-77646446D01*
X175285114Y-77646446D01*
X175939441Y-76992116D01*
X175914046Y-76973666D01*
X175745750Y-76887914D01*
X175566115Y-76829548D01*
X175379560Y-76800000D01*
X175190666Y-76800000D01*
X175004110Y-76829548D01*
X174824475Y-76887914D01*
X174656173Y-76973669D01*
X174630783Y-76992116D01*
X174630782Y-76992116D01*
X171999462Y-76992116D01*
X171966462Y-76968140D01*
X171784142Y-76875244D01*
X171589526Y-76812009D01*
X171535113Y-76803390D01*
X171535113Y-77764314D01*
X171530719Y-77759920D01*
X171439507Y-77707259D01*
X171337774Y-77680000D01*
X171232452Y-77680000D01*
X171130719Y-77707259D01*
X171039507Y-77759920D01*
X171035113Y-77764314D01*
X171035113Y-76803390D01*
X170980699Y-76812009D01*
X170786083Y-76875244D01*
X170603763Y-76968140D01*
X170438218Y-77088417D01*
X170438217Y-77088417D01*
X170293530Y-77233104D01*
X170293530Y-77233105D01*
X170173253Y-77398650D01*
X170080357Y-77580970D01*
X170017122Y-77775586D01*
X170008504Y-77830000D01*
X168000000Y-77830000D01*
X168000000Y-72897648D01*
X169984613Y-72897648D01*
X169984613Y-73102351D01*
X170016635Y-73304534D01*
X170079894Y-73499223D01*
X170172828Y-73681613D01*
X170293141Y-73847213D01*
X170437899Y-73991971D01*
X170574121Y-74090940D01*
X170603503Y-74112287D01*
X170692329Y-74157546D01*
X170785889Y-74205218D01*
X170785891Y-74205218D01*
X170785894Y-74205220D01*
X170890250Y-74239127D01*
X170980578Y-74268477D01*
X170987372Y-74269553D01*
X171182761Y-74300500D01*
X171182762Y-74300500D01*
X171387464Y-74300500D01*
X171387465Y-74300500D01*
X171589647Y-74268477D01*
X171784332Y-74205220D01*
X171786460Y-74204136D01*
X171788940Y-74202872D01*
X171966723Y-74112287D01*
X172076477Y-74032547D01*
X172132326Y-73991971D01*
X172132328Y-73991968D01*
X172132332Y-73991966D01*
X172277079Y-73847219D01*
X172277081Y-73847215D01*
X172277084Y-73847213D01*
X172373066Y-73715103D01*
X172397400Y-73681610D01*
X172490333Y-73499219D01*
X172553590Y-73304534D01*
X172585613Y-73102352D01*
X172585613Y-72897648D01*
X172574188Y-72825513D01*
X174084613Y-72825513D01*
X174084613Y-73014486D01*
X174114172Y-73201118D01*
X174172567Y-73380836D01*
X174232887Y-73499219D01*
X174258353Y-73549199D01*
X174369423Y-73702073D01*
X174503040Y-73835690D01*
X174655914Y-73946760D01*
X174689483Y-73963864D01*
X174824276Y-74032545D01*
X174824278Y-74032545D01*
X174824281Y-74032547D01*
X174881329Y-74051083D01*
X175003994Y-74090940D01*
X175190627Y-74120500D01*
X175190632Y-74120500D01*
X175379599Y-74120500D01*
X175566231Y-74090940D01*
X175745945Y-74032547D01*
X175914312Y-73946760D01*
X176067186Y-73835690D01*
X176200803Y-73702073D01*
X176311873Y-73549199D01*
X176397660Y-73380832D01*
X176456053Y-73201118D01*
X176467211Y-73130668D01*
X176485613Y-73014486D01*
X176485613Y-72825513D01*
X176485365Y-72823945D01*
X178564613Y-72823945D01*
X178564613Y-73016054D01*
X178594666Y-73205802D01*
X178654029Y-73388506D01*
X178659885Y-73399998D01*
X178741248Y-73559681D01*
X178854168Y-73715102D01*
X178990011Y-73850945D01*
X179145432Y-73963865D01*
X179280227Y-74032547D01*
X179316606Y-74051083D01*
X179381194Y-74072069D01*
X179438869Y-74111506D01*
X179466068Y-74175865D01*
X179454154Y-74244711D01*
X179406910Y-74296187D01*
X179381194Y-74307931D01*
X179316606Y-74328916D01*
X179145431Y-74416135D01*
X179069098Y-74471595D01*
X178990011Y-74529055D01*
X178990009Y-74529057D01*
X178990008Y-74529057D01*
X178854170Y-74664895D01*
X178854170Y-74664896D01*
X178854168Y-74664898D01*
X178815040Y-74718753D01*
X178741248Y-74820318D01*
X178654029Y-74991493D01*
X178594666Y-75174197D01*
X178564613Y-75363945D01*
X178564613Y-75556054D01*
X178594666Y-75745802D01*
X178654029Y-75928506D01*
X178741248Y-76099681D01*
X178854168Y-76255102D01*
X178990011Y-76390945D01*
X179145432Y-76503865D01*
X179316604Y-76591082D01*
X179316608Y-76591084D01*
X179382003Y-76612332D01*
X179439679Y-76651769D01*
X179466878Y-76716127D01*
X179454964Y-76784974D01*
X179407720Y-76836450D01*
X179382006Y-76848194D01*
X179316790Y-76869384D01*
X179145691Y-76956564D01*
X179116465Y-76977798D01*
X179116464Y-76977798D01*
X179738667Y-77600000D01*
X179732452Y-77600000D01*
X179630719Y-77627259D01*
X179539507Y-77679920D01*
X179465033Y-77754394D01*
X179412372Y-77845606D01*
X179385113Y-77947339D01*
X179385113Y-77953553D01*
X178762911Y-77331351D01*
X178762911Y-77331352D01*
X178741677Y-77360578D01*
X178654496Y-77531678D01*
X178595153Y-77714315D01*
X178565113Y-77903984D01*
X178565113Y-78096015D01*
X178595153Y-78285684D01*
X178654496Y-78468321D01*
X178741674Y-78639415D01*
X178762911Y-78668646D01*
X179385113Y-78046445D01*
X179385113Y-78052661D01*
X179412372Y-78154394D01*
X179465033Y-78245606D01*
X179539507Y-78320080D01*
X179630719Y-78372741D01*
X179732452Y-78400000D01*
X179738667Y-78400000D01*
X179116464Y-79022200D01*
X179116465Y-79022201D01*
X179145690Y-79043434D01*
X179316791Y-79130616D01*
X179499428Y-79189959D01*
X179689098Y-79220000D01*
X179881128Y-79220000D01*
X180070797Y-79189959D01*
X180253434Y-79130616D01*
X180424532Y-79043436D01*
X180453759Y-79022201D01*
X180453759Y-79022200D01*
X179831560Y-78400000D01*
X179837774Y-78400000D01*
X179939507Y-78372741D01*
X180030719Y-78320080D01*
X180105193Y-78245606D01*
X180157854Y-78154394D01*
X180185113Y-78052661D01*
X180185113Y-78046446D01*
X180807313Y-78668646D01*
X180807314Y-78668646D01*
X180828549Y-78639419D01*
X180915729Y-78468321D01*
X180975072Y-78285684D01*
X181005113Y-78096015D01*
X181005113Y-77903984D01*
X180975072Y-77714315D01*
X180915729Y-77531678D01*
X180828547Y-77360577D01*
X180807314Y-77331352D01*
X180807313Y-77331351D01*
X180185113Y-77953552D01*
X180185113Y-77947339D01*
X180157854Y-77845606D01*
X180105193Y-77754394D01*
X180030719Y-77679920D01*
X179939507Y-77627259D01*
X179837774Y-77600000D01*
X179831560Y-77600000D01*
X180453759Y-76977798D01*
X180424528Y-76956561D01*
X180253434Y-76869383D01*
X180188220Y-76848194D01*
X180130545Y-76808756D01*
X180103347Y-76744397D01*
X180115262Y-76675551D01*
X180162507Y-76624075D01*
X180188222Y-76612332D01*
X180253617Y-76591084D01*
X180253619Y-76591082D01*
X180253622Y-76591082D01*
X180424794Y-76503865D01*
X180580215Y-76390945D01*
X180716058Y-76255102D01*
X180828978Y-76099681D01*
X180916195Y-75928509D01*
X180975560Y-75745801D01*
X181005613Y-75556055D01*
X181005613Y-75363945D01*
X180975560Y-75174199D01*
X180925022Y-75018657D01*
X180916196Y-74991493D01*
X180857541Y-74876377D01*
X180828978Y-74820319D01*
X180716058Y-74664898D01*
X180580215Y-74529055D01*
X180424794Y-74416135D01*
X180366226Y-74386293D01*
X180253617Y-74328915D01*
X180189032Y-74307931D01*
X180131356Y-74268494D01*
X180104157Y-74204136D01*
X180116071Y-74135289D01*
X180163315Y-74083813D01*
X180189032Y-74072069D01*
X180253617Y-74051084D01*
X180253619Y-74051082D01*
X180253622Y-74051082D01*
X180424794Y-73963865D01*
X180580215Y-73850945D01*
X180716058Y-73715102D01*
X180828978Y-73559681D01*
X180910349Y-73399983D01*
X184699500Y-73399983D01*
X184699500Y-74600001D01*
X184699501Y-74600018D01*
X184710000Y-74702796D01*
X184710001Y-74702799D01*
X184765185Y-74869331D01*
X184765187Y-74869336D01*
X184769530Y-74876377D01*
X184857288Y-75018656D01*
X184981344Y-75142712D01*
X185130666Y-75234814D01*
X185174759Y-75249425D01*
X185232203Y-75289196D01*
X185259027Y-75353711D01*
X185246713Y-75422487D01*
X185208642Y-75467447D01*
X185152784Y-75508031D01*
X185152782Y-75508032D01*
X185008028Y-75652786D01*
X184887715Y-75818386D01*
X184794781Y-76000776D01*
X184731522Y-76195465D01*
X184699500Y-76397648D01*
X184699500Y-76602351D01*
X184731522Y-76804534D01*
X184794781Y-76999223D01*
X184887715Y-77181613D01*
X185008028Y-77347213D01*
X185152786Y-77491971D01*
X185275025Y-77580781D01*
X185318390Y-77612287D01*
X185433766Y-77671074D01*
X185500776Y-77705218D01*
X185500778Y-77705218D01*
X185500781Y-77705220D01*
X185546054Y-77719930D01*
X185695465Y-77768477D01*
X185767050Y-77779815D01*
X185897648Y-77800500D01*
X185897649Y-77800500D01*
X186102351Y-77800500D01*
X186102352Y-77800500D01*
X186304534Y-77768477D01*
X186499219Y-77705220D01*
X186681610Y-77612287D01*
X186774590Y-77544732D01*
X186847213Y-77491971D01*
X186847215Y-77491968D01*
X186847219Y-77491966D01*
X186991966Y-77347219D01*
X186991968Y-77347215D01*
X186991971Y-77347213D01*
X187074874Y-77233105D01*
X187112287Y-77181610D01*
X187205220Y-76999219D01*
X187268477Y-76804534D01*
X187300500Y-76602352D01*
X187300500Y-76397648D01*
X187268477Y-76195466D01*
X187205220Y-76000781D01*
X187205217Y-76000777D01*
X187205217Y-76000774D01*
X187174648Y-75940780D01*
X187174647Y-75940779D01*
X187148035Y-75888549D01*
X190799500Y-75888549D01*
X190799500Y-76111450D01*
X190799501Y-76111466D01*
X190828594Y-76332452D01*
X190828595Y-76332457D01*
X190828596Y-76332463D01*
X190874523Y-76503864D01*
X190886290Y-76547780D01*
X190886293Y-76547790D01*
X190971593Y-76753722D01*
X190971595Y-76753726D01*
X191083052Y-76946774D01*
X191083057Y-76946780D01*
X191083058Y-76946782D01*
X191218751Y-77123622D01*
X191218757Y-77123629D01*
X191376370Y-77281242D01*
X191376376Y-77281247D01*
X191553226Y-77416948D01*
X191746274Y-77528405D01*
X191746277Y-77528406D01*
X191746282Y-77528409D01*
X191824817Y-77560939D01*
X191879221Y-77604780D01*
X191901286Y-77671074D01*
X191884007Y-77738773D01*
X191832870Y-77786384D01*
X191777365Y-77799500D01*
X191499984Y-77799500D01*
X191397204Y-77810000D01*
X191397203Y-77810001D01*
X191230664Y-77865186D01*
X191230662Y-77865187D01*
X191081348Y-77957286D01*
X191081344Y-77957289D01*
X190957289Y-78081344D01*
X190957286Y-78081348D01*
X190865187Y-78230662D01*
X190865186Y-78230664D01*
X190810001Y-78397203D01*
X190810000Y-78397204D01*
X190799500Y-78499984D01*
X190799500Y-80500015D01*
X190810000Y-80602795D01*
X190810001Y-80602796D01*
X190865186Y-80769335D01*
X190865187Y-80769337D01*
X190957286Y-80918651D01*
X190957289Y-80918655D01*
X191081344Y-81042710D01*
X191081348Y-81042713D01*
X191230662Y-81134812D01*
X191230664Y-81134813D01*
X191230666Y-81134814D01*
X191397203Y-81189999D01*
X191499992Y-81200500D01*
X191499997Y-81200500D01*
X193500003Y-81200500D01*
X193500008Y-81200500D01*
X193602797Y-81189999D01*
X193769334Y-81134814D01*
X193918655Y-81042711D01*
X194042711Y-80918655D01*
X194134814Y-80769334D01*
X194189999Y-80602797D01*
X194200500Y-80500008D01*
X194200500Y-78499992D01*
X194189999Y-78397203D01*
X194134814Y-78230666D01*
X194125092Y-78214905D01*
X194042713Y-78081348D01*
X194042710Y-78081344D01*
X193918655Y-77957289D01*
X193918651Y-77957286D01*
X193769337Y-77865187D01*
X193769335Y-77865186D01*
X193663147Y-77829999D01*
X193602797Y-77810001D01*
X193602795Y-77810000D01*
X193500015Y-77799500D01*
X193500008Y-77799500D01*
X193222635Y-77799500D01*
X193155596Y-77779815D01*
X193109841Y-77727011D01*
X193099897Y-77657853D01*
X193128922Y-77594297D01*
X193175183Y-77560939D01*
X193253717Y-77528409D01*
X193253718Y-77528407D01*
X193253726Y-77528405D01*
X193446774Y-77416948D01*
X193623624Y-77281247D01*
X193781247Y-77123624D01*
X193916948Y-76946774D01*
X194028405Y-76753726D01*
X194113710Y-76547781D01*
X194171404Y-76332463D01*
X194200500Y-76111457D01*
X194200500Y-75888543D01*
X194171404Y-75667537D01*
X194113710Y-75452219D01*
X194028405Y-75246274D01*
X193916948Y-75053226D01*
X193781247Y-74876376D01*
X193781242Y-74876370D01*
X193623629Y-74718757D01*
X193623622Y-74718751D01*
X193446782Y-74583058D01*
X193446780Y-74583057D01*
X193446774Y-74583052D01*
X193253726Y-74471595D01*
X193253722Y-74471593D01*
X193047790Y-74386293D01*
X193047783Y-74386291D01*
X193047781Y-74386290D01*
X192832463Y-74328596D01*
X192832457Y-74328595D01*
X192832452Y-74328594D01*
X192611466Y-74299501D01*
X192611463Y-74299500D01*
X192611457Y-74299500D01*
X192388543Y-74299500D01*
X192388537Y-74299500D01*
X192388533Y-74299501D01*
X192167547Y-74328594D01*
X192167540Y-74328595D01*
X192167537Y-74328596D01*
X191952219Y-74386290D01*
X191952209Y-74386293D01*
X191746277Y-74471593D01*
X191746273Y-74471595D01*
X191553226Y-74583052D01*
X191553217Y-74583058D01*
X191376377Y-74718751D01*
X191376370Y-74718757D01*
X191218757Y-74876370D01*
X191218751Y-74876377D01*
X191083058Y-75053217D01*
X191083052Y-75053226D01*
X190971595Y-75246273D01*
X190971593Y-75246277D01*
X190886293Y-75452209D01*
X190886290Y-75452219D01*
X190832549Y-75652786D01*
X190828597Y-75667534D01*
X190828594Y-75667547D01*
X190799501Y-75888533D01*
X190799500Y-75888549D01*
X187148035Y-75888549D01*
X187112287Y-75818390D01*
X187112285Y-75818387D01*
X187112284Y-75818385D01*
X186991971Y-75652786D01*
X186847217Y-75508032D01*
X186791358Y-75467448D01*
X186748693Y-75412118D01*
X186742714Y-75342504D01*
X186775320Y-75280709D01*
X186825236Y-75249426D01*
X186869334Y-75234814D01*
X187018656Y-75142712D01*
X187142712Y-75018656D01*
X187234814Y-74869334D01*
X187289999Y-74702797D01*
X187300500Y-74600009D01*
X187300499Y-73399992D01*
X187289999Y-73297203D01*
X187234814Y-73130666D01*
X187142712Y-72981344D01*
X187018656Y-72857288D01*
X186869334Y-72765186D01*
X186702797Y-72710001D01*
X186702795Y-72710000D01*
X186600010Y-72699500D01*
X185399998Y-72699500D01*
X185399981Y-72699501D01*
X185297203Y-72710000D01*
X185297200Y-72710001D01*
X185130668Y-72765185D01*
X185130663Y-72765187D01*
X184981342Y-72857289D01*
X184857289Y-72981342D01*
X184765187Y-73130663D01*
X184765186Y-73130666D01*
X184710001Y-73297203D01*
X184710001Y-73297204D01*
X184710000Y-73297204D01*
X184699500Y-73399983D01*
X180910349Y-73399983D01*
X180916195Y-73388509D01*
X180918688Y-73380836D01*
X180925941Y-73358516D01*
X180952116Y-73277953D01*
X180975560Y-73205801D01*
X181005613Y-73016055D01*
X181005613Y-72823945D01*
X180975560Y-72634199D01*
X180932209Y-72500776D01*
X180916196Y-72451493D01*
X180848374Y-72318386D01*
X180828978Y-72280319D01*
X180716058Y-72124898D01*
X180580215Y-71989055D01*
X180424794Y-71876135D01*
X180290001Y-71807454D01*
X180253619Y-71788916D01*
X180070915Y-71729553D01*
X179976041Y-71714526D01*
X179881168Y-71699500D01*
X179689058Y-71699500D01*
X179625809Y-71709517D01*
X179499310Y-71729553D01*
X179316606Y-71788916D01*
X179145431Y-71876135D01*
X179056758Y-71940560D01*
X178990011Y-71989055D01*
X178990009Y-71989057D01*
X178990008Y-71989057D01*
X178854170Y-72124895D01*
X178854170Y-72124896D01*
X178854168Y-72124898D01*
X178833910Y-72152781D01*
X178741248Y-72280318D01*
X178654029Y-72451493D01*
X178594666Y-72634197D01*
X178564613Y-72823945D01*
X176485365Y-72823945D01*
X176456053Y-72638881D01*
X176397658Y-72459163D01*
X176311872Y-72290800D01*
X176304257Y-72280319D01*
X176200803Y-72137927D01*
X176067186Y-72004310D01*
X175914312Y-71893240D01*
X175903465Y-71887713D01*
X175745949Y-71807454D01*
X175566231Y-71749059D01*
X175379599Y-71719500D01*
X175379594Y-71719500D01*
X175190632Y-71719500D01*
X175190627Y-71719500D01*
X175003994Y-71749059D01*
X174824276Y-71807454D01*
X174655913Y-71893240D01*
X174568692Y-71956610D01*
X174503040Y-72004310D01*
X174503038Y-72004312D01*
X174503037Y-72004312D01*
X174369425Y-72137924D01*
X174369425Y-72137925D01*
X174369423Y-72137927D01*
X174321723Y-72203579D01*
X174258353Y-72290800D01*
X174172567Y-72459163D01*
X174114172Y-72638881D01*
X174084613Y-72825513D01*
X172574188Y-72825513D01*
X172553590Y-72695466D01*
X172490333Y-72500781D01*
X172490331Y-72500778D01*
X172490331Y-72500776D01*
X172456616Y-72434607D01*
X172397400Y-72318390D01*
X172369740Y-72280319D01*
X172277084Y-72152786D01*
X172132326Y-72008028D01*
X171966726Y-71887715D01*
X171966725Y-71887714D01*
X171966723Y-71887713D01*
X171909766Y-71858691D01*
X171784336Y-71794781D01*
X171589647Y-71731522D01*
X171415108Y-71703878D01*
X171387465Y-71699500D01*
X171182761Y-71699500D01*
X171158442Y-71703351D01*
X170980578Y-71731522D01*
X170785889Y-71794781D01*
X170603499Y-71887715D01*
X170437899Y-72008028D01*
X170293141Y-72152786D01*
X170172828Y-72318386D01*
X170079894Y-72500776D01*
X170016635Y-72695465D01*
X169984613Y-72897648D01*
X168000000Y-72897648D01*
X168000000Y-68368872D01*
X192499500Y-68368872D01*
X192499500Y-68631127D01*
X192520436Y-68790140D01*
X192533730Y-68891116D01*
X192555178Y-68971161D01*
X192601602Y-69144418D01*
X192601605Y-69144428D01*
X192701953Y-69386690D01*
X192701958Y-69386700D01*
X192833075Y-69613803D01*
X192992718Y-69821851D01*
X192992726Y-69821860D01*
X193178140Y-70007274D01*
X193178148Y-70007281D01*
X193386196Y-70166924D01*
X193613299Y-70298041D01*
X193613309Y-70298046D01*
X193855571Y-70398394D01*
X193855581Y-70398398D01*
X194108884Y-70466270D01*
X194368880Y-70500500D01*
X194368887Y-70500500D01*
X194631113Y-70500500D01*
X194631120Y-70500500D01*
X194891116Y-70466270D01*
X195144419Y-70398398D01*
X195386697Y-70298043D01*
X195613803Y-70166924D01*
X195821851Y-70007282D01*
X195821855Y-70007277D01*
X195821860Y-70007274D01*
X196007274Y-69821860D01*
X196007277Y-69821855D01*
X196007282Y-69821851D01*
X196166924Y-69613803D01*
X196298043Y-69386697D01*
X196398398Y-69144419D01*
X196466270Y-68891116D01*
X196500500Y-68631120D01*
X196500500Y-68368880D01*
X196466270Y-68108884D01*
X196398398Y-67855581D01*
X196300204Y-67618520D01*
X196298046Y-67613309D01*
X196298041Y-67613299D01*
X196166924Y-67386196D01*
X196007281Y-67178148D01*
X196007274Y-67178140D01*
X195821860Y-66992726D01*
X195821851Y-66992718D01*
X195613803Y-66833075D01*
X195386700Y-66701958D01*
X195386690Y-66701953D01*
X195144428Y-66601605D01*
X195144421Y-66601603D01*
X195144419Y-66601602D01*
X194891116Y-66533730D01*
X194833339Y-66526123D01*
X194631127Y-66499500D01*
X194631120Y-66499500D01*
X194368880Y-66499500D01*
X194368872Y-66499500D01*
X194137772Y-66529926D01*
X194108884Y-66533730D01*
X193855581Y-66601602D01*
X193855571Y-66601605D01*
X193613309Y-66701953D01*
X193613299Y-66701958D01*
X193386196Y-66833075D01*
X193178148Y-66992718D01*
X192992718Y-67178148D01*
X192833075Y-67386196D01*
X192701958Y-67613299D01*
X192701953Y-67613309D01*
X192601605Y-67855571D01*
X192601602Y-67855581D01*
X192533730Y-68108885D01*
X192499500Y-68368872D01*
X168000000Y-68368872D01*
X168000000Y-65624000D01*
X168019685Y-65556961D01*
X168072489Y-65511206D01*
X168124000Y-65500000D01*
X197876000Y-65500000D01*
X197943039Y-65519685D01*
G37*
%TD.AperFunction*%
%TD*%
%TA.AperFunction,Conductor*%
%TO.N,GROUND*%
G36*
X166943039Y-65519685D02*
G01*
X166988794Y-65572489D01*
X167000000Y-65624000D01*
X167000000Y-112876000D01*
X166980315Y-112943039D01*
X166927511Y-112988794D01*
X166876000Y-113000000D01*
X160079241Y-113000000D01*
X160012202Y-112980315D01*
X159966447Y-112927511D01*
X159956503Y-112858353D01*
X159956768Y-112856602D01*
X159985613Y-112674486D01*
X159985613Y-112485513D01*
X159956053Y-112298881D01*
X159897658Y-112119163D01*
X159811872Y-111950800D01*
X159700803Y-111797927D01*
X159567186Y-111664310D01*
X159414312Y-111553240D01*
X159326327Y-111508409D01*
X159245949Y-111467454D01*
X159066231Y-111409059D01*
X159043842Y-111405513D01*
X163504613Y-111405513D01*
X163504613Y-111594486D01*
X163534172Y-111781118D01*
X163592567Y-111960836D01*
X163640309Y-112054534D01*
X163678353Y-112129199D01*
X163789423Y-112282073D01*
X163923040Y-112415690D01*
X164075914Y-112526760D01*
X164155460Y-112567290D01*
X164244276Y-112612545D01*
X164244278Y-112612545D01*
X164244281Y-112612547D01*
X164340610Y-112643846D01*
X164423994Y-112670940D01*
X164610627Y-112700500D01*
X164610632Y-112700500D01*
X164799599Y-112700500D01*
X164986231Y-112670940D01*
X165165945Y-112612547D01*
X165334312Y-112526760D01*
X165487186Y-112415690D01*
X165620803Y-112282073D01*
X165731873Y-112129199D01*
X165817660Y-111960832D01*
X165876053Y-111781118D01*
X165905613Y-111594486D01*
X165905613Y-111405513D01*
X165876053Y-111218881D01*
X165827155Y-111068390D01*
X165817660Y-111039168D01*
X165817658Y-111039165D01*
X165817658Y-111039163D01*
X165748170Y-110902786D01*
X165731873Y-110870801D01*
X165620803Y-110717927D01*
X165487186Y-110584310D01*
X165334312Y-110473240D01*
X165165949Y-110387454D01*
X164986231Y-110329059D01*
X164799599Y-110299500D01*
X164799594Y-110299500D01*
X164610632Y-110299500D01*
X164610627Y-110299500D01*
X164423994Y-110329059D01*
X164244276Y-110387454D01*
X164075913Y-110473240D01*
X164004242Y-110525313D01*
X163923040Y-110584310D01*
X163923038Y-110584312D01*
X163923037Y-110584312D01*
X163789425Y-110717924D01*
X163789425Y-110717925D01*
X163789423Y-110717927D01*
X163741723Y-110783579D01*
X163678353Y-110870800D01*
X163592567Y-111039163D01*
X163534172Y-111218881D01*
X163504613Y-111405513D01*
X159043842Y-111405513D01*
X158879599Y-111379500D01*
X158879594Y-111379500D01*
X158690632Y-111379500D01*
X158690627Y-111379500D01*
X158503994Y-111409059D01*
X158324276Y-111467454D01*
X158155913Y-111553240D01*
X158113150Y-111584310D01*
X158003040Y-111664310D01*
X158003038Y-111664312D01*
X158003037Y-111664312D01*
X157869425Y-111797924D01*
X157869425Y-111797925D01*
X157869423Y-111797927D01*
X157829881Y-111852352D01*
X157758353Y-111950800D01*
X157672567Y-112119163D01*
X157614172Y-112298881D01*
X157584613Y-112485513D01*
X157584613Y-112674486D01*
X157614172Y-112861118D01*
X157672567Y-113040836D01*
X157717591Y-113129199D01*
X157758353Y-113209199D01*
X157869423Y-113362073D01*
X158003040Y-113495690D01*
X158155914Y-113606760D01*
X158167272Y-113612547D01*
X158324276Y-113692545D01*
X158324278Y-113692545D01*
X158324281Y-113692547D01*
X158415057Y-113722042D01*
X158503994Y-113750940D01*
X158690627Y-113780500D01*
X158876000Y-113780500D01*
X158943039Y-113800185D01*
X158988794Y-113852989D01*
X159000000Y-113904500D01*
X159000000Y-116946321D01*
X158980315Y-117013360D01*
X158927511Y-117059115D01*
X158858353Y-117069059D01*
X158811296Y-117048842D01*
X158809916Y-117051080D01*
X158803770Y-117047289D01*
X158803769Y-117047288D01*
X158666652Y-116962714D01*
X158654449Y-116955187D01*
X158654444Y-116955185D01*
X158627694Y-116946321D01*
X158487910Y-116900001D01*
X158487908Y-116900000D01*
X158385123Y-116889500D01*
X157185111Y-116889500D01*
X157185094Y-116889501D01*
X157082316Y-116900000D01*
X157082313Y-116900001D01*
X156915781Y-116955185D01*
X156915776Y-116955187D01*
X156766455Y-117047289D01*
X156642402Y-117171342D01*
X156550300Y-117320663D01*
X156550298Y-117320668D01*
X156537104Y-117360485D01*
X156495114Y-117487203D01*
X156495114Y-117487204D01*
X156495113Y-117487204D01*
X156484613Y-117589983D01*
X156484613Y-118790001D01*
X156484614Y-118790018D01*
X156495113Y-118892796D01*
X156495114Y-118892799D01*
X156550298Y-119059331D01*
X156550299Y-119059334D01*
X156642401Y-119208656D01*
X156766457Y-119332712D01*
X156915779Y-119424814D01*
X157082316Y-119479999D01*
X157185104Y-119490500D01*
X158385121Y-119490499D01*
X158487910Y-119479999D01*
X158654447Y-119424814D01*
X158803769Y-119332712D01*
X158803770Y-119332710D01*
X158809916Y-119328920D01*
X158811462Y-119331427D01*
X158863842Y-119310275D01*
X158932488Y-119323292D01*
X158983200Y-119371355D01*
X159000000Y-119433678D01*
X159000000Y-124887971D01*
X158980315Y-124955010D01*
X158927511Y-125000765D01*
X158858353Y-125010709D01*
X158794797Y-124981684D01*
X158780588Y-124966205D01*
X158780251Y-124966494D01*
X158777080Y-124962782D01*
X158632326Y-124818028D01*
X158466726Y-124697715D01*
X158466725Y-124697714D01*
X158466723Y-124697713D01*
X158409766Y-124668691D01*
X158284336Y-124604781D01*
X158089647Y-124541522D01*
X157915108Y-124513878D01*
X157887465Y-124509500D01*
X157682761Y-124509500D01*
X157658442Y-124513351D01*
X157480578Y-124541522D01*
X157285889Y-124604781D01*
X157103499Y-124697715D01*
X156937899Y-124818028D01*
X156793141Y-124962786D01*
X156672828Y-125128386D01*
X156579894Y-125310776D01*
X156516635Y-125505465D01*
X156484613Y-125707648D01*
X156484613Y-125912351D01*
X156516635Y-126114534D01*
X156579894Y-126309223D01*
X156672828Y-126491613D01*
X156793141Y-126657213D01*
X156937899Y-126801971D01*
X157055559Y-126887454D01*
X157103503Y-126922287D01*
X157203504Y-126973240D01*
X157285889Y-127015218D01*
X157285891Y-127015218D01*
X157285894Y-127015220D01*
X157366434Y-127041389D01*
X157480578Y-127078477D01*
X157517419Y-127084312D01*
X157682761Y-127110500D01*
X157682762Y-127110500D01*
X157887464Y-127110500D01*
X157887465Y-127110500D01*
X158089647Y-127078477D01*
X158284332Y-127015220D01*
X158466723Y-126922287D01*
X158595040Y-126829060D01*
X158632326Y-126801971D01*
X158632328Y-126801968D01*
X158632332Y-126801966D01*
X158777079Y-126657219D01*
X158777083Y-126657213D01*
X158780251Y-126653506D01*
X158781552Y-126654617D01*
X158831006Y-126616479D01*
X158900619Y-126610496D01*
X158962416Y-126643099D01*
X158996776Y-126703936D01*
X159000000Y-126732028D01*
X159000000Y-128314550D01*
X158980315Y-128381589D01*
X158927511Y-128427344D01*
X158858353Y-128437288D01*
X158819706Y-128425035D01*
X158745952Y-128387455D01*
X158566231Y-128329059D01*
X158379599Y-128299500D01*
X158379594Y-128299500D01*
X158190632Y-128299500D01*
X158190627Y-128299500D01*
X158003994Y-128329059D01*
X157824276Y-128387454D01*
X157655913Y-128473240D01*
X157568692Y-128536610D01*
X157503040Y-128584310D01*
X157503038Y-128584312D01*
X157503037Y-128584312D01*
X157369425Y-128717924D01*
X157369425Y-128717925D01*
X157369423Y-128717927D01*
X157329649Y-128772671D01*
X157258353Y-128870800D01*
X157172567Y-129039163D01*
X157114172Y-129218881D01*
X157084613Y-129405513D01*
X157084613Y-129594486D01*
X157114172Y-129781118D01*
X157172567Y-129960836D01*
X157250036Y-130112876D01*
X157258353Y-130129199D01*
X157369423Y-130282073D01*
X157503040Y-130415690D01*
X157655914Y-130526760D01*
X157725210Y-130562068D01*
X157824276Y-130612545D01*
X157824278Y-130612545D01*
X157824281Y-130612547D01*
X157920610Y-130643846D01*
X158003994Y-130670940D01*
X158190627Y-130700500D01*
X158190632Y-130700500D01*
X158379599Y-130700500D01*
X158566231Y-130670940D01*
X158745945Y-130612547D01*
X158745950Y-130612544D01*
X158745954Y-130612543D01*
X158819705Y-130574965D01*
X158888374Y-130562068D01*
X158953114Y-130588344D01*
X158993372Y-130645450D01*
X159000000Y-130685449D01*
X159000000Y-133376000D01*
X158980315Y-133443039D01*
X158927511Y-133488794D01*
X158876000Y-133500000D01*
X120124000Y-133500000D01*
X120056961Y-133480315D01*
X120011206Y-133427511D01*
X120000000Y-133376000D01*
X120000000Y-124397648D01*
X125299613Y-124397648D01*
X125299613Y-124602351D01*
X125331635Y-124804534D01*
X125394894Y-124999223D01*
X125487828Y-125181613D01*
X125608141Y-125347213D01*
X125752899Y-125491971D01*
X125918501Y-125612286D01*
X125971941Y-125639516D01*
X126022736Y-125687490D01*
X126039531Y-125755312D01*
X126016993Y-125821446D01*
X125971941Y-125860484D01*
X125918501Y-125887713D01*
X125752899Y-126008028D01*
X125608141Y-126152786D01*
X125487828Y-126318386D01*
X125394894Y-126500776D01*
X125331635Y-126695465D01*
X125299613Y-126897648D01*
X125299613Y-127102351D01*
X125331635Y-127304534D01*
X125394894Y-127499223D01*
X125487828Y-127681613D01*
X125608141Y-127847213D01*
X125752899Y-127991971D01*
X125893995Y-128094481D01*
X125918503Y-128112287D01*
X126034720Y-128171503D01*
X126100889Y-128205218D01*
X126100891Y-128205218D01*
X126100894Y-128205220D01*
X126205250Y-128239127D01*
X126295578Y-128268477D01*
X126375390Y-128281118D01*
X126497761Y-128300500D01*
X126497762Y-128300500D01*
X126702464Y-128300500D01*
X126702465Y-128300500D01*
X126904647Y-128268477D01*
X127099332Y-128205220D01*
X127281723Y-128112287D01*
X127374703Y-128044732D01*
X127447326Y-127991971D01*
X127447328Y-127991968D01*
X127447332Y-127991966D01*
X127592079Y-127847219D01*
X127592081Y-127847215D01*
X127592084Y-127847213D01*
X127644845Y-127774590D01*
X127712400Y-127681610D01*
X127805333Y-127499219D01*
X127868590Y-127304534D01*
X127900613Y-127102352D01*
X127900613Y-126897648D01*
X127877148Y-126749500D01*
X127868590Y-126695465D01*
X127805331Y-126500776D01*
X127771616Y-126434607D01*
X127712400Y-126318390D01*
X127704669Y-126307749D01*
X127592084Y-126152786D01*
X127447326Y-126008028D01*
X127281726Y-125887715D01*
X127281725Y-125887714D01*
X127281723Y-125887713D01*
X127228284Y-125860484D01*
X127177489Y-125812510D01*
X127160694Y-125744689D01*
X127183231Y-125678554D01*
X127228285Y-125639515D01*
X127281723Y-125612287D01*
X127410595Y-125518657D01*
X127447326Y-125491971D01*
X127447328Y-125491968D01*
X127447332Y-125491966D01*
X127592079Y-125347219D01*
X127592081Y-125347215D01*
X127592084Y-125347213D01*
X127697005Y-125202799D01*
X127712400Y-125181610D01*
X127805333Y-124999219D01*
X127868590Y-124804534D01*
X127900613Y-124602352D01*
X127900613Y-124397648D01*
X127868590Y-124195466D01*
X127805333Y-124000781D01*
X127805331Y-124000778D01*
X127805331Y-124000776D01*
X127781053Y-123953129D01*
X127753974Y-123899983D01*
X128679613Y-123899983D01*
X128679613Y-125100001D01*
X128679614Y-125100018D01*
X128690113Y-125202796D01*
X128690114Y-125202799D01*
X128725895Y-125310776D01*
X128745299Y-125369334D01*
X128837401Y-125518656D01*
X128961457Y-125642712D01*
X129110779Y-125734814D01*
X129192683Y-125761954D01*
X129250128Y-125801727D01*
X129276951Y-125866243D01*
X129264636Y-125935018D01*
X129226564Y-125979978D01*
X129132900Y-126048028D01*
X129132895Y-126048032D01*
X128988141Y-126192786D01*
X128867828Y-126358386D01*
X128774894Y-126540776D01*
X128711635Y-126735465D01*
X128679613Y-126937648D01*
X128679613Y-127142351D01*
X128711635Y-127344534D01*
X128774894Y-127539223D01*
X128822568Y-127632787D01*
X128867825Y-127721609D01*
X128867828Y-127721613D01*
X128988141Y-127887213D01*
X129132899Y-128031971D01*
X129243443Y-128112284D01*
X129298503Y-128152287D01*
X129402386Y-128205218D01*
X129480889Y-128245218D01*
X129480891Y-128245218D01*
X129480894Y-128245220D01*
X129552472Y-128268477D01*
X129675578Y-128308477D01*
X129776670Y-128324488D01*
X129877761Y-128340500D01*
X129877762Y-128340500D01*
X130082464Y-128340500D01*
X130082465Y-128340500D01*
X130284647Y-128308477D01*
X130479332Y-128245220D01*
X130661723Y-128152287D01*
X130754703Y-128084732D01*
X130827326Y-128031971D01*
X130827328Y-128031968D01*
X130827332Y-128031966D01*
X130972079Y-127887219D01*
X130972081Y-127887215D01*
X130972084Y-127887213D01*
X131024845Y-127814590D01*
X131092400Y-127721610D01*
X131185333Y-127539219D01*
X131248590Y-127344534D01*
X131280613Y-127142352D01*
X131280613Y-126937648D01*
X131248590Y-126735466D01*
X131237352Y-126700880D01*
X131185331Y-126540776D01*
X131151616Y-126474607D01*
X131092400Y-126358390D01*
X131063336Y-126318386D01*
X130972084Y-126192786D01*
X130827332Y-126048034D01*
X130827324Y-126048028D01*
X130733660Y-125979978D01*
X130690995Y-125924649D01*
X130685016Y-125855036D01*
X130717621Y-125793240D01*
X130767539Y-125761955D01*
X130849447Y-125734814D01*
X130998769Y-125642712D01*
X131122825Y-125518656D01*
X131214927Y-125369334D01*
X131270112Y-125202797D01*
X131280613Y-125100009D01*
X131280612Y-124397648D01*
X136299613Y-124397648D01*
X136299613Y-124602351D01*
X136331635Y-124804534D01*
X136394894Y-124999223D01*
X136487828Y-125181613D01*
X136608141Y-125347213D01*
X136752899Y-125491971D01*
X136907862Y-125604556D01*
X136918503Y-125612287D01*
X137009953Y-125658883D01*
X137011193Y-125659515D01*
X137061989Y-125707490D01*
X137078784Y-125775311D01*
X137056247Y-125841446D01*
X137011193Y-125880485D01*
X136918499Y-125927715D01*
X136752899Y-126048028D01*
X136608141Y-126192786D01*
X136487828Y-126358386D01*
X136394894Y-126540776D01*
X136331635Y-126735465D01*
X136299613Y-126937648D01*
X136299613Y-127142351D01*
X136331635Y-127344534D01*
X136394894Y-127539223D01*
X136442568Y-127632787D01*
X136487825Y-127721609D01*
X136487828Y-127721613D01*
X136608141Y-127887213D01*
X136752899Y-128031971D01*
X136863443Y-128112284D01*
X136918503Y-128152287D01*
X137022386Y-128205218D01*
X137100889Y-128245218D01*
X137100891Y-128245218D01*
X137100894Y-128245220D01*
X137172472Y-128268477D01*
X137295578Y-128308477D01*
X137396670Y-128324488D01*
X137497761Y-128340500D01*
X137497762Y-128340500D01*
X137702464Y-128340500D01*
X137702465Y-128340500D01*
X137904647Y-128308477D01*
X138099332Y-128245220D01*
X138281723Y-128152287D01*
X138374703Y-128084732D01*
X138447326Y-128031971D01*
X138447328Y-128031968D01*
X138447332Y-128031966D01*
X138573785Y-127905513D01*
X139004613Y-127905513D01*
X139004613Y-128094486D01*
X139034172Y-128281118D01*
X139092567Y-128460836D01*
X139147745Y-128569127D01*
X139178353Y-128629199D01*
X139289423Y-128782073D01*
X139423040Y-128915690D01*
X139575914Y-129026760D01*
X139648780Y-129063887D01*
X139744276Y-129112545D01*
X139744278Y-129112545D01*
X139744281Y-129112547D01*
X139840610Y-129143846D01*
X139923994Y-129170940D01*
X140110627Y-129200500D01*
X140110632Y-129200500D01*
X140299599Y-129200500D01*
X140486231Y-129170940D01*
X140665945Y-129112547D01*
X140834312Y-129026760D01*
X140987186Y-128915690D01*
X141120803Y-128782073D01*
X141231873Y-128629199D01*
X141317660Y-128460832D01*
X141376053Y-128281118D01*
X141388074Y-128205220D01*
X141405613Y-128094486D01*
X141405613Y-127905513D01*
X144084613Y-127905513D01*
X144084613Y-128094486D01*
X144114172Y-128281118D01*
X144172567Y-128460836D01*
X144227745Y-128569127D01*
X144258353Y-128629199D01*
X144369423Y-128782073D01*
X144503040Y-128915690D01*
X144655914Y-129026760D01*
X144728780Y-129063887D01*
X144824276Y-129112545D01*
X144824278Y-129112545D01*
X144824281Y-129112547D01*
X144920610Y-129143846D01*
X145003994Y-129170940D01*
X145190627Y-129200500D01*
X145190632Y-129200500D01*
X145379599Y-129200500D01*
X145566231Y-129170940D01*
X145745945Y-129112547D01*
X145914312Y-129026760D01*
X146067186Y-128915690D01*
X146200803Y-128782073D01*
X146311873Y-128629199D01*
X146397660Y-128460832D01*
X146456053Y-128281118D01*
X146468074Y-128205220D01*
X146485613Y-128094486D01*
X146485613Y-127905513D01*
X146456053Y-127718881D01*
X146407624Y-127569834D01*
X146397660Y-127539168D01*
X146397658Y-127539165D01*
X146397658Y-127539163D01*
X146311872Y-127370800D01*
X146200803Y-127217927D01*
X146067186Y-127084310D01*
X145914312Y-126973240D01*
X145844459Y-126937648D01*
X145768593Y-126898992D01*
X148034613Y-126898992D01*
X148034613Y-127101007D01*
X148074020Y-127299119D01*
X148074022Y-127299127D01*
X148151326Y-127485755D01*
X148205017Y-127566109D01*
X148225895Y-127632787D01*
X148207410Y-127700167D01*
X148205017Y-127703891D01*
X148151326Y-127784244D01*
X148074022Y-127970872D01*
X148074020Y-127970880D01*
X148034613Y-128168992D01*
X148034613Y-128371007D01*
X148074020Y-128569119D01*
X148074022Y-128569127D01*
X148107438Y-128649800D01*
X148114907Y-128719270D01*
X148095151Y-128764660D01*
X148095567Y-128764887D01*
X148093032Y-128769528D01*
X148092150Y-128771556D01*
X148091319Y-128772665D01*
X148091315Y-128772672D01*
X148041021Y-128907517D01*
X148034614Y-128967116D01*
X148034614Y-128967123D01*
X148034613Y-128967135D01*
X148034613Y-130112870D01*
X148034614Y-130112876D01*
X148041021Y-130172483D01*
X148091315Y-130307328D01*
X148091319Y-130307335D01*
X148177565Y-130422544D01*
X148177568Y-130422547D01*
X148292777Y-130508793D01*
X148292784Y-130508797D01*
X148427630Y-130559091D01*
X148427629Y-130559091D01*
X148434557Y-130559835D01*
X148487240Y-130565500D01*
X150082985Y-130565499D01*
X150142596Y-130559091D01*
X150277444Y-130508796D01*
X150392659Y-130422546D01*
X150478909Y-130307331D01*
X150529204Y-130172483D01*
X150535613Y-130112873D01*
X150535612Y-129405513D01*
X152004613Y-129405513D01*
X152004613Y-129594486D01*
X152034172Y-129781118D01*
X152092567Y-129960836D01*
X152170036Y-130112876D01*
X152178353Y-130129199D01*
X152289423Y-130282073D01*
X152423040Y-130415690D01*
X152575914Y-130526760D01*
X152645210Y-130562068D01*
X152744276Y-130612545D01*
X152744278Y-130612545D01*
X152744281Y-130612547D01*
X152840610Y-130643846D01*
X152923994Y-130670940D01*
X153110627Y-130700500D01*
X153110632Y-130700500D01*
X153299599Y-130700500D01*
X153486231Y-130670940D01*
X153665945Y-130612547D01*
X153834312Y-130526760D01*
X153987186Y-130415690D01*
X154120803Y-130282073D01*
X154231873Y-130129199D01*
X154317660Y-129960832D01*
X154376053Y-129781118D01*
X154395765Y-129656661D01*
X154405613Y-129594486D01*
X154405613Y-129405513D01*
X154376053Y-129218881D01*
X154341502Y-129112545D01*
X154317660Y-129039168D01*
X154317658Y-129039165D01*
X154317658Y-129039163D01*
X154254743Y-128915687D01*
X154231873Y-128870801D01*
X154120803Y-128717927D01*
X153987186Y-128584310D01*
X153834312Y-128473240D01*
X153809960Y-128460832D01*
X153665949Y-128387454D01*
X153486231Y-128329059D01*
X153299599Y-128299500D01*
X153299594Y-128299500D01*
X153110632Y-128299500D01*
X153110627Y-128299500D01*
X152923994Y-128329059D01*
X152744276Y-128387454D01*
X152575913Y-128473240D01*
X152488692Y-128536610D01*
X152423040Y-128584310D01*
X152423038Y-128584312D01*
X152423037Y-128584312D01*
X152289425Y-128717924D01*
X152289425Y-128717925D01*
X152289423Y-128717927D01*
X152249649Y-128772671D01*
X152178353Y-128870800D01*
X152092567Y-129039163D01*
X152034172Y-129218881D01*
X152004613Y-129405513D01*
X150535612Y-129405513D01*
X150535612Y-128967128D01*
X150529204Y-128907517D01*
X150515509Y-128870800D01*
X150478910Y-128772671D01*
X150478909Y-128772670D01*
X150478909Y-128772669D01*
X150478080Y-128771562D01*
X150477598Y-128770268D01*
X150474659Y-128764886D01*
X150475432Y-128764463D01*
X150453664Y-128706099D01*
X150462788Y-128649798D01*
X150496202Y-128569132D01*
X150496202Y-128569131D01*
X150496204Y-128569127D01*
X150535613Y-128371003D01*
X150535613Y-128168997D01*
X150496204Y-127970873D01*
X150418899Y-127784244D01*
X150365207Y-127703889D01*
X150344330Y-127637214D01*
X150362814Y-127569834D01*
X150365191Y-127566134D01*
X150418899Y-127485756D01*
X150496204Y-127299127D01*
X150535613Y-127101003D01*
X150535613Y-126898997D01*
X150496204Y-126700873D01*
X150418899Y-126514244D01*
X150418897Y-126514241D01*
X150418895Y-126514237D01*
X150306671Y-126346281D01*
X150163831Y-126203441D01*
X149995875Y-126091217D01*
X149995865Y-126091212D01*
X149809240Y-126013909D01*
X149809232Y-126013907D01*
X149611120Y-125974500D01*
X149611116Y-125974500D01*
X148959110Y-125974500D01*
X148959105Y-125974500D01*
X148760993Y-126013907D01*
X148760985Y-126013909D01*
X148574360Y-126091212D01*
X148574350Y-126091217D01*
X148406394Y-126203441D01*
X148263554Y-126346281D01*
X148151330Y-126514237D01*
X148151325Y-126514247D01*
X148074022Y-126700872D01*
X148074020Y-126700880D01*
X148034613Y-126898992D01*
X145768593Y-126898992D01*
X145745949Y-126887454D01*
X145566231Y-126829059D01*
X145379599Y-126799500D01*
X145379594Y-126799500D01*
X145190632Y-126799500D01*
X145190627Y-126799500D01*
X145003994Y-126829059D01*
X144824276Y-126887454D01*
X144655913Y-126973240D01*
X144568692Y-127036610D01*
X144503040Y-127084310D01*
X144503038Y-127084312D01*
X144503037Y-127084312D01*
X144369425Y-127217924D01*
X144369425Y-127217925D01*
X144369423Y-127217927D01*
X144321723Y-127283579D01*
X144258353Y-127370800D01*
X144172567Y-127539163D01*
X144114172Y-127718881D01*
X144084613Y-127905513D01*
X141405613Y-127905513D01*
X141376053Y-127718881D01*
X141327624Y-127569834D01*
X141317660Y-127539168D01*
X141317658Y-127539165D01*
X141317658Y-127539163D01*
X141231872Y-127370800D01*
X141120803Y-127217927D01*
X140987186Y-127084310D01*
X140834312Y-126973240D01*
X140764459Y-126937648D01*
X140665949Y-126887454D01*
X140486231Y-126829059D01*
X140299599Y-126799500D01*
X140299594Y-126799500D01*
X140110632Y-126799500D01*
X140110627Y-126799500D01*
X139923994Y-126829059D01*
X139744276Y-126887454D01*
X139575913Y-126973240D01*
X139488692Y-127036610D01*
X139423040Y-127084310D01*
X139423038Y-127084312D01*
X139423037Y-127084312D01*
X139289425Y-127217924D01*
X139289425Y-127217925D01*
X139289423Y-127217927D01*
X139241723Y-127283579D01*
X139178353Y-127370800D01*
X139092567Y-127539163D01*
X139034172Y-127718881D01*
X139004613Y-127905513D01*
X138573785Y-127905513D01*
X138592079Y-127887219D01*
X138598484Y-127878402D01*
X138635275Y-127827765D01*
X138635277Y-127827762D01*
X138710582Y-127724112D01*
X138712400Y-127721610D01*
X138805333Y-127539219D01*
X138868590Y-127344534D01*
X138900613Y-127142352D01*
X138900613Y-126937648D01*
X138868590Y-126735466D01*
X138857352Y-126700880D01*
X138805331Y-126540776D01*
X138771616Y-126474607D01*
X138712400Y-126358390D01*
X138683336Y-126318386D01*
X138592084Y-126192786D01*
X138447326Y-126048028D01*
X138281727Y-125927715D01*
X138251573Y-125912351D01*
X138189030Y-125880483D01*
X138138236Y-125832511D01*
X138121441Y-125764690D01*
X138143978Y-125698555D01*
X138189030Y-125659516D01*
X138281723Y-125612287D01*
X138410595Y-125518657D01*
X138447326Y-125491971D01*
X138447328Y-125491968D01*
X138447332Y-125491966D01*
X138592079Y-125347219D01*
X138592081Y-125347215D01*
X138592084Y-125347213D01*
X138697005Y-125202799D01*
X138712400Y-125181610D01*
X138805333Y-124999219D01*
X138868590Y-124804534D01*
X138900613Y-124602352D01*
X138900613Y-124397648D01*
X138868590Y-124195466D01*
X138805333Y-124000781D01*
X138805331Y-124000778D01*
X138805331Y-124000776D01*
X138753978Y-123899991D01*
X138712400Y-123818390D01*
X138678588Y-123771851D01*
X138592084Y-123652786D01*
X138447326Y-123508028D01*
X138281726Y-123387715D01*
X138281725Y-123387714D01*
X138281723Y-123387713D01*
X138181599Y-123336697D01*
X138099336Y-123294781D01*
X137904647Y-123231522D01*
X137730108Y-123203878D01*
X137702465Y-123199500D01*
X137497761Y-123199500D01*
X137473442Y-123203351D01*
X137295578Y-123231522D01*
X137100889Y-123294781D01*
X136918499Y-123387715D01*
X136752899Y-123508028D01*
X136608141Y-123652786D01*
X136487828Y-123818386D01*
X136394894Y-124000776D01*
X136331635Y-124195465D01*
X136299613Y-124397648D01*
X131280612Y-124397648D01*
X131280612Y-123899992D01*
X131270112Y-123797203D01*
X131214927Y-123630666D01*
X131122825Y-123481344D01*
X130998769Y-123357288D01*
X130876827Y-123282074D01*
X130849449Y-123265187D01*
X130849444Y-123265185D01*
X130847975Y-123264698D01*
X130682910Y-123210001D01*
X130682908Y-123210000D01*
X130580123Y-123199500D01*
X129380111Y-123199500D01*
X129380094Y-123199501D01*
X129277316Y-123210000D01*
X129277313Y-123210001D01*
X129110781Y-123265185D01*
X129110776Y-123265187D01*
X128961455Y-123357289D01*
X128837402Y-123481342D01*
X128745300Y-123630663D01*
X128745299Y-123630666D01*
X128690114Y-123797203D01*
X128690114Y-123797204D01*
X128690113Y-123797204D01*
X128679613Y-123899983D01*
X127753974Y-123899983D01*
X127712397Y-123818385D01*
X127592084Y-123652786D01*
X127447326Y-123508028D01*
X127281726Y-123387715D01*
X127281725Y-123387714D01*
X127281723Y-123387713D01*
X127181599Y-123336697D01*
X127099336Y-123294781D01*
X126904647Y-123231522D01*
X126730108Y-123203878D01*
X126702465Y-123199500D01*
X126497761Y-123199500D01*
X126473442Y-123203351D01*
X126295578Y-123231522D01*
X126100889Y-123294781D01*
X125918499Y-123387715D01*
X125752899Y-123508028D01*
X125608141Y-123652786D01*
X125487828Y-123818386D01*
X125394894Y-124000776D01*
X125331635Y-124195465D01*
X125299613Y-124397648D01*
X120000000Y-124397648D01*
X120000000Y-121445513D01*
X127584613Y-121445513D01*
X127584613Y-121634486D01*
X127614172Y-121821118D01*
X127672567Y-122000836D01*
X127758353Y-122169199D01*
X127869423Y-122322073D01*
X128003040Y-122455690D01*
X128155914Y-122566760D01*
X128210320Y-122594481D01*
X128324276Y-122652545D01*
X128324278Y-122652545D01*
X128324281Y-122652547D01*
X128420610Y-122683846D01*
X128503994Y-122710940D01*
X128690627Y-122740500D01*
X128690632Y-122740500D01*
X128879599Y-122740500D01*
X129066231Y-122710940D01*
X129245945Y-122652547D01*
X129414312Y-122566760D01*
X129567186Y-122455690D01*
X129617363Y-122405513D01*
X144504613Y-122405513D01*
X144504613Y-122594486D01*
X144534172Y-122781118D01*
X144592567Y-122960836D01*
X144660632Y-123094419D01*
X144678353Y-123129199D01*
X144789423Y-123282073D01*
X144923040Y-123415690D01*
X145075914Y-123526760D01*
X145148615Y-123563803D01*
X145244276Y-123612545D01*
X145244278Y-123612545D01*
X145244281Y-123612547D01*
X145340610Y-123643846D01*
X145423994Y-123670940D01*
X145610627Y-123700500D01*
X145610632Y-123700500D01*
X145799599Y-123700500D01*
X145986231Y-123670940D01*
X146165945Y-123612547D01*
X146334312Y-123526760D01*
X146487186Y-123415690D01*
X146620803Y-123282073D01*
X146731873Y-123129199D01*
X146817660Y-122960832D01*
X146876053Y-122781118D01*
X146887168Y-122710940D01*
X146905613Y-122594486D01*
X146905613Y-122405513D01*
X149584613Y-122405513D01*
X149584613Y-122594486D01*
X149614172Y-122781118D01*
X149672567Y-122960836D01*
X149740632Y-123094419D01*
X149758353Y-123129199D01*
X149869423Y-123282073D01*
X150003040Y-123415690D01*
X150155914Y-123526760D01*
X150228615Y-123563803D01*
X150324276Y-123612545D01*
X150324278Y-123612545D01*
X150324281Y-123612547D01*
X150420610Y-123643846D01*
X150503994Y-123670940D01*
X150690627Y-123700500D01*
X150690632Y-123700500D01*
X150879599Y-123700500D01*
X151066231Y-123670940D01*
X151245945Y-123612547D01*
X151414312Y-123526760D01*
X151567186Y-123415690D01*
X151700803Y-123282073D01*
X151811873Y-123129199D01*
X151897660Y-122960832D01*
X151956053Y-122781118D01*
X151967168Y-122710940D01*
X151985613Y-122594486D01*
X151985613Y-122405513D01*
X151956053Y-122218881D01*
X151897658Y-122039163D01*
X151811872Y-121870800D01*
X151700803Y-121717927D01*
X151567186Y-121584310D01*
X151414312Y-121473240D01*
X151245949Y-121387454D01*
X151066231Y-121329059D01*
X150879599Y-121299500D01*
X150879594Y-121299500D01*
X150690632Y-121299500D01*
X150690627Y-121299500D01*
X150503994Y-121329059D01*
X150324276Y-121387454D01*
X150155913Y-121473240D01*
X150068692Y-121536610D01*
X150003040Y-121584310D01*
X150003038Y-121584312D01*
X150003037Y-121584312D01*
X149869425Y-121717924D01*
X149869425Y-121717925D01*
X149869423Y-121717927D01*
X149821723Y-121783579D01*
X149758353Y-121870800D01*
X149672567Y-122039163D01*
X149614172Y-122218881D01*
X149584613Y-122405513D01*
X146905613Y-122405513D01*
X146876053Y-122218881D01*
X146817658Y-122039163D01*
X146731872Y-121870800D01*
X146620803Y-121717927D01*
X146487186Y-121584310D01*
X146334312Y-121473240D01*
X146165949Y-121387454D01*
X145986231Y-121329059D01*
X145799599Y-121299500D01*
X145799594Y-121299500D01*
X145610632Y-121299500D01*
X145610627Y-121299500D01*
X145423994Y-121329059D01*
X145244276Y-121387454D01*
X145075913Y-121473240D01*
X144988692Y-121536610D01*
X144923040Y-121584310D01*
X144923038Y-121584312D01*
X144923037Y-121584312D01*
X144789425Y-121717924D01*
X144789425Y-121717925D01*
X144789423Y-121717927D01*
X144741723Y-121783579D01*
X144678353Y-121870800D01*
X144592567Y-122039163D01*
X144534172Y-122218881D01*
X144504613Y-122405513D01*
X129617363Y-122405513D01*
X129700803Y-122322073D01*
X129811873Y-122169199D01*
X129897660Y-122000832D01*
X129956053Y-121821118D01*
X129972397Y-121717925D01*
X129985613Y-121634486D01*
X129985613Y-121445513D01*
X129956053Y-121258881D01*
X129897658Y-121079163D01*
X129811872Y-120910800D01*
X129700803Y-120757927D01*
X129567186Y-120624310D01*
X129414312Y-120513240D01*
X129245949Y-120427454D01*
X129066231Y-120369059D01*
X128879599Y-120339500D01*
X128879594Y-120339500D01*
X128690632Y-120339500D01*
X128690627Y-120339500D01*
X128503994Y-120369059D01*
X128324276Y-120427454D01*
X128155913Y-120513240D01*
X128103113Y-120551602D01*
X128003040Y-120624310D01*
X128003038Y-120624312D01*
X128003037Y-120624312D01*
X127869425Y-120757924D01*
X127869425Y-120757925D01*
X127869423Y-120757927D01*
X127851151Y-120783076D01*
X127758353Y-120910800D01*
X127672567Y-121079163D01*
X127614172Y-121258881D01*
X127584613Y-121445513D01*
X120000000Y-121445513D01*
X120000000Y-116365513D01*
X127584613Y-116365513D01*
X127584613Y-116554486D01*
X127614172Y-116741118D01*
X127672567Y-116920836D01*
X127719711Y-117013360D01*
X127758353Y-117089199D01*
X127869423Y-117242073D01*
X128003040Y-117375690D01*
X128155914Y-117486760D01*
X128192576Y-117505440D01*
X128324276Y-117572545D01*
X128324278Y-117572545D01*
X128324281Y-117572547D01*
X128377968Y-117589991D01*
X128503994Y-117630940D01*
X128690627Y-117660500D01*
X128690632Y-117660500D01*
X128879599Y-117660500D01*
X129066231Y-117630940D01*
X129067084Y-117630663D01*
X129245945Y-117572547D01*
X129414312Y-117486760D01*
X129567186Y-117375690D01*
X129700803Y-117242073D01*
X129811873Y-117089199D01*
X129897660Y-116920832D01*
X129956053Y-116741118D01*
X129970408Y-116650484D01*
X129985613Y-116554486D01*
X129985613Y-116365513D01*
X129956053Y-116178881D01*
X129931186Y-116102351D01*
X129897660Y-115999168D01*
X129897657Y-115999164D01*
X129897657Y-115999161D01*
X129872135Y-115949072D01*
X129872134Y-115949071D01*
X129845933Y-115897648D01*
X131984613Y-115897648D01*
X131984613Y-116102351D01*
X132016635Y-116304534D01*
X132079894Y-116499223D01*
X132138751Y-116614734D01*
X132156966Y-116650484D01*
X132172828Y-116681613D01*
X132293141Y-116847213D01*
X132437899Y-116991971D01*
X132603501Y-117112286D01*
X132656941Y-117139516D01*
X132707736Y-117187490D01*
X132724531Y-117255312D01*
X132701993Y-117321446D01*
X132656941Y-117360484D01*
X132603501Y-117387713D01*
X132437899Y-117508028D01*
X132293141Y-117652786D01*
X132172828Y-117818386D01*
X132079894Y-118000776D01*
X132016635Y-118195465D01*
X131984613Y-118397648D01*
X131984613Y-118602351D01*
X132016635Y-118804534D01*
X132079894Y-118999223D01*
X132172828Y-119181613D01*
X132293141Y-119347213D01*
X132437899Y-119491971D01*
X132592862Y-119604556D01*
X132603503Y-119612287D01*
X132719720Y-119671503D01*
X132785889Y-119705218D01*
X132785891Y-119705218D01*
X132785894Y-119705220D01*
X132876969Y-119734812D01*
X132980578Y-119768477D01*
X133081670Y-119784488D01*
X133182761Y-119800500D01*
X133182762Y-119800500D01*
X133387464Y-119800500D01*
X133387465Y-119800500D01*
X133589647Y-119768477D01*
X133784332Y-119705220D01*
X133966723Y-119612287D01*
X134095595Y-119518657D01*
X134132326Y-119491971D01*
X134132328Y-119491968D01*
X134132332Y-119491966D01*
X134277079Y-119347219D01*
X134277081Y-119347215D01*
X134277084Y-119347213D01*
X134382005Y-119202799D01*
X134397400Y-119181610D01*
X134490333Y-118999219D01*
X134553590Y-118804534D01*
X134585613Y-118602352D01*
X134585613Y-118397648D01*
X134553590Y-118195466D01*
X134490333Y-118000781D01*
X134490331Y-118000778D01*
X134490331Y-118000776D01*
X134445282Y-117912364D01*
X134397400Y-117818390D01*
X134382005Y-117797200D01*
X134277084Y-117652786D01*
X134132326Y-117508028D01*
X133966726Y-117387715D01*
X133966725Y-117387714D01*
X133966723Y-117387713D01*
X133913284Y-117360484D01*
X133862489Y-117312510D01*
X133845694Y-117244689D01*
X133868231Y-117178554D01*
X133913285Y-117139515D01*
X133966723Y-117112287D01*
X134076471Y-117032551D01*
X134132326Y-116991971D01*
X134132328Y-116991968D01*
X134132332Y-116991966D01*
X134277079Y-116847219D01*
X134277081Y-116847215D01*
X134277084Y-116847213D01*
X134354165Y-116741118D01*
X134397400Y-116681610D01*
X134490333Y-116499219D01*
X134553590Y-116304534D01*
X134585613Y-116102352D01*
X134585613Y-115897648D01*
X137484613Y-115897648D01*
X137484613Y-116102351D01*
X137516635Y-116304534D01*
X137579894Y-116499223D01*
X137638751Y-116614734D01*
X137656966Y-116650484D01*
X137672828Y-116681613D01*
X137793141Y-116847213D01*
X137937895Y-116991967D01*
X137937900Y-116991971D01*
X137993753Y-117032551D01*
X138036419Y-117087881D01*
X138042398Y-117157494D01*
X138009792Y-117219289D01*
X137959874Y-117250574D01*
X137945577Y-117255312D01*
X137915779Y-117265186D01*
X137915776Y-117265187D01*
X137766455Y-117357289D01*
X137642402Y-117481342D01*
X137550300Y-117630663D01*
X137550299Y-117630666D01*
X137495114Y-117797203D01*
X137495114Y-117797204D01*
X137495113Y-117797204D01*
X137484613Y-117899983D01*
X137484613Y-119100001D01*
X137484614Y-119100018D01*
X137495113Y-119202796D01*
X137495114Y-119202799D01*
X137550298Y-119369331D01*
X137550300Y-119369336D01*
X137584518Y-119424812D01*
X137642401Y-119518656D01*
X137766457Y-119642712D01*
X137915779Y-119734814D01*
X138082316Y-119789999D01*
X138185104Y-119800500D01*
X139385121Y-119800499D01*
X139487910Y-119789999D01*
X139654447Y-119734814D01*
X139803769Y-119642712D01*
X139927825Y-119518656D01*
X140019927Y-119369334D01*
X140075112Y-119202797D01*
X140085613Y-119100009D01*
X140085612Y-117899992D01*
X140075112Y-117797203D01*
X140019927Y-117630666D01*
X139927825Y-117481344D01*
X139803769Y-117357288D01*
X139654447Y-117265186D01*
X139610352Y-117250574D01*
X139552908Y-117210802D01*
X139526085Y-117146286D01*
X139538400Y-117077510D01*
X139576472Y-117032550D01*
X139602885Y-117013360D01*
X139632332Y-116991966D01*
X139777079Y-116847219D01*
X139777081Y-116847215D01*
X139777084Y-116847213D01*
X139854165Y-116741118D01*
X139897400Y-116681610D01*
X139990333Y-116499219D01*
X140053590Y-116304534D01*
X140085613Y-116102352D01*
X140085613Y-115897648D01*
X143484613Y-115897648D01*
X143484613Y-116102351D01*
X143516635Y-116304534D01*
X143579894Y-116499223D01*
X143638751Y-116614734D01*
X143656966Y-116650484D01*
X143672828Y-116681613D01*
X143793141Y-116847213D01*
X143937895Y-116991967D01*
X143937900Y-116991971D01*
X143993753Y-117032551D01*
X144036419Y-117087881D01*
X144042398Y-117157494D01*
X144009792Y-117219289D01*
X143959874Y-117250574D01*
X143945577Y-117255312D01*
X143915779Y-117265186D01*
X143915776Y-117265187D01*
X143766455Y-117357289D01*
X143642402Y-117481342D01*
X143550300Y-117630663D01*
X143550299Y-117630666D01*
X143495114Y-117797203D01*
X143495114Y-117797204D01*
X143495113Y-117797204D01*
X143484613Y-117899983D01*
X143484613Y-119100001D01*
X143484614Y-119100018D01*
X143495113Y-119202796D01*
X143495114Y-119202799D01*
X143550298Y-119369331D01*
X143550300Y-119369336D01*
X143584518Y-119424812D01*
X143642401Y-119518656D01*
X143766457Y-119642712D01*
X143915779Y-119734814D01*
X144082316Y-119789999D01*
X144185104Y-119800500D01*
X145385121Y-119800499D01*
X145487910Y-119789999D01*
X145654447Y-119734814D01*
X145803769Y-119642712D01*
X145927825Y-119518656D01*
X146019927Y-119369334D01*
X146075112Y-119202797D01*
X146085613Y-119100009D01*
X146085612Y-117899992D01*
X146075112Y-117797203D01*
X146019927Y-117630666D01*
X145927825Y-117481344D01*
X145803769Y-117357288D01*
X145654447Y-117265186D01*
X145610352Y-117250574D01*
X145552908Y-117210802D01*
X145526085Y-117146286D01*
X145538400Y-117077510D01*
X145576472Y-117032550D01*
X145602885Y-117013360D01*
X145632332Y-116991966D01*
X145777079Y-116847219D01*
X145777081Y-116847215D01*
X145777084Y-116847213D01*
X145854165Y-116741118D01*
X145897400Y-116681610D01*
X145990333Y-116499219D01*
X146053590Y-116304534D01*
X146085613Y-116102352D01*
X146085613Y-115897648D01*
X146053590Y-115695466D01*
X146047890Y-115677924D01*
X146014305Y-115574559D01*
X145990333Y-115500781D01*
X145990331Y-115500778D01*
X145990331Y-115500776D01*
X145924901Y-115372364D01*
X145897400Y-115318390D01*
X145876090Y-115289059D01*
X145777084Y-115152786D01*
X145632326Y-115008028D01*
X145466726Y-114887715D01*
X145466725Y-114887714D01*
X145466723Y-114887713D01*
X145409766Y-114858691D01*
X145284336Y-114794781D01*
X145089647Y-114731522D01*
X144915108Y-114703878D01*
X144887465Y-114699500D01*
X144682761Y-114699500D01*
X144658442Y-114703351D01*
X144480578Y-114731522D01*
X144285889Y-114794781D01*
X144103499Y-114887715D01*
X143937899Y-115008028D01*
X143793141Y-115152786D01*
X143672828Y-115318386D01*
X143579894Y-115500776D01*
X143516635Y-115695465D01*
X143484613Y-115897648D01*
X140085613Y-115897648D01*
X140053590Y-115695466D01*
X140047890Y-115677924D01*
X140014305Y-115574559D01*
X139990333Y-115500781D01*
X139990331Y-115500778D01*
X139990331Y-115500776D01*
X139924901Y-115372364D01*
X139897400Y-115318390D01*
X139876090Y-115289059D01*
X139777084Y-115152786D01*
X139632326Y-115008028D01*
X139466726Y-114887715D01*
X139466725Y-114887714D01*
X139466723Y-114887713D01*
X139409766Y-114858691D01*
X139284336Y-114794781D01*
X139089647Y-114731522D01*
X138915108Y-114703878D01*
X138887465Y-114699500D01*
X138682761Y-114699500D01*
X138658442Y-114703351D01*
X138480578Y-114731522D01*
X138285889Y-114794781D01*
X138103499Y-114887715D01*
X137937899Y-115008028D01*
X137793141Y-115152786D01*
X137672828Y-115318386D01*
X137579894Y-115500776D01*
X137516635Y-115695465D01*
X137484613Y-115897648D01*
X134585613Y-115897648D01*
X134553590Y-115695466D01*
X134547890Y-115677924D01*
X134514305Y-115574559D01*
X134490333Y-115500781D01*
X134490331Y-115500778D01*
X134490331Y-115500776D01*
X134424901Y-115372364D01*
X134397400Y-115318390D01*
X134376090Y-115289059D01*
X134277084Y-115152786D01*
X134132326Y-115008028D01*
X133966726Y-114887715D01*
X133966725Y-114887714D01*
X133966723Y-114887713D01*
X133909766Y-114858691D01*
X133784336Y-114794781D01*
X133589647Y-114731522D01*
X133415108Y-114703878D01*
X133387465Y-114699500D01*
X133182761Y-114699500D01*
X133158442Y-114703351D01*
X132980578Y-114731522D01*
X132785889Y-114794781D01*
X132603499Y-114887715D01*
X132437899Y-115008028D01*
X132293141Y-115152786D01*
X132172828Y-115318386D01*
X132079894Y-115500776D01*
X132016635Y-115695465D01*
X131984613Y-115897648D01*
X129845933Y-115897648D01*
X129811872Y-115830800D01*
X129767158Y-115769257D01*
X129700803Y-115677927D01*
X129567186Y-115544310D01*
X129414312Y-115433240D01*
X129245949Y-115347454D01*
X129066231Y-115289059D01*
X128879599Y-115259500D01*
X128879594Y-115259500D01*
X128690632Y-115259500D01*
X128690627Y-115259500D01*
X128503994Y-115289059D01*
X128324276Y-115347454D01*
X128155913Y-115433240D01*
X128068692Y-115496610D01*
X128003040Y-115544310D01*
X128003038Y-115544312D01*
X128003037Y-115544312D01*
X127869425Y-115677924D01*
X127869425Y-115677925D01*
X127869423Y-115677927D01*
X127821723Y-115743579D01*
X127758353Y-115830800D01*
X127672567Y-115999163D01*
X127614172Y-116178881D01*
X127584613Y-116365513D01*
X120000000Y-116365513D01*
X120000000Y-112405513D01*
X133084613Y-112405513D01*
X133084613Y-112594486D01*
X133114172Y-112781118D01*
X133172567Y-112960836D01*
X133258353Y-113129199D01*
X133369423Y-113282073D01*
X133503040Y-113415690D01*
X133655914Y-113526760D01*
X133735460Y-113567290D01*
X133824276Y-113612545D01*
X133824278Y-113612545D01*
X133824281Y-113612547D01*
X133920610Y-113643846D01*
X134003994Y-113670940D01*
X134190627Y-113700500D01*
X134190632Y-113700500D01*
X134379599Y-113700500D01*
X134566231Y-113670940D01*
X134745945Y-113612547D01*
X134914312Y-113526760D01*
X135067186Y-113415690D01*
X135200803Y-113282073D01*
X135311873Y-113129199D01*
X135397660Y-112960832D01*
X135456053Y-112781118D01*
X135462254Y-112741966D01*
X135485613Y-112594486D01*
X135485613Y-112405513D01*
X135456053Y-112218881D01*
X135423652Y-112119163D01*
X135397660Y-112039168D01*
X135397658Y-112039165D01*
X135397658Y-112039163D01*
X135311872Y-111870800D01*
X135298468Y-111852351D01*
X135200803Y-111717927D01*
X135130524Y-111647648D01*
X137984613Y-111647648D01*
X137984613Y-111852351D01*
X138016635Y-112054534D01*
X138079894Y-112249223D01*
X138143804Y-112374653D01*
X138169683Y-112425442D01*
X138172828Y-112431613D01*
X138293141Y-112597213D01*
X138437899Y-112741971D01*
X138562310Y-112832359D01*
X138603503Y-112862287D01*
X138719720Y-112921503D01*
X138785889Y-112955218D01*
X138785891Y-112955218D01*
X138785894Y-112955220D01*
X138889224Y-112988794D01*
X138980578Y-113018477D01*
X139081670Y-113034488D01*
X139182761Y-113050500D01*
X139182762Y-113050500D01*
X139387464Y-113050500D01*
X139387465Y-113050500D01*
X139589647Y-113018477D01*
X139784332Y-112955220D01*
X139966723Y-112862287D01*
X140059703Y-112794732D01*
X140132326Y-112741971D01*
X140132328Y-112741968D01*
X140132332Y-112741966D01*
X140277079Y-112597219D01*
X140277081Y-112597215D01*
X140277084Y-112597213D01*
X140358237Y-112485513D01*
X140397400Y-112431610D01*
X140490333Y-112249219D01*
X140553590Y-112054534D01*
X140585613Y-111852352D01*
X140585613Y-111647648D01*
X140553590Y-111445466D01*
X140540608Y-111405513D01*
X140538811Y-111399983D01*
X143484613Y-111399983D01*
X143484613Y-112600001D01*
X143484614Y-112600018D01*
X143495113Y-112702796D01*
X143495114Y-112702799D01*
X143550298Y-112869331D01*
X143550300Y-112869336D01*
X143585182Y-112925888D01*
X143642401Y-113018656D01*
X143766457Y-113142712D01*
X143915779Y-113234814D01*
X144082316Y-113289999D01*
X144185104Y-113300500D01*
X145385121Y-113300499D01*
X145487910Y-113289999D01*
X145654447Y-113234814D01*
X145803769Y-113142712D01*
X145927825Y-113018656D01*
X146019927Y-112869334D01*
X146075112Y-112702797D01*
X146082791Y-112627635D01*
X148759513Y-112627635D01*
X148759513Y-112832364D01*
X148791538Y-113034559D01*
X148854797Y-113229254D01*
X148854798Y-113229257D01*
X148947740Y-113411663D01*
X149068071Y-113577284D01*
X149212829Y-113722042D01*
X149320383Y-113800185D01*
X149378451Y-113842374D01*
X149470971Y-113889516D01*
X149521766Y-113937490D01*
X149538561Y-114005311D01*
X149516023Y-114071446D01*
X149470971Y-114110484D01*
X149378451Y-114157625D01*
X149262587Y-114241806D01*
X149212829Y-114277958D01*
X149212827Y-114277960D01*
X149212826Y-114277960D01*
X149068073Y-114422713D01*
X149068073Y-114422714D01*
X149068071Y-114422716D01*
X149016393Y-114493843D01*
X148947740Y-114588336D01*
X148854798Y-114770742D01*
X148854797Y-114770745D01*
X148791538Y-114965440D01*
X148759513Y-115167635D01*
X148759513Y-115372364D01*
X148791538Y-115574559D01*
X148854797Y-115769254D01*
X148854798Y-115769257D01*
X148886157Y-115830801D01*
X148947740Y-115951663D01*
X149068071Y-116117284D01*
X149212829Y-116262042D01*
X149337044Y-116352290D01*
X149378451Y-116382374D01*
X149470971Y-116429516D01*
X149521766Y-116477490D01*
X149538561Y-116545311D01*
X149516023Y-116611446D01*
X149470971Y-116650484D01*
X149378451Y-116697625D01*
X149262587Y-116781806D01*
X149212829Y-116817958D01*
X149212827Y-116817960D01*
X149212826Y-116817960D01*
X149068073Y-116962713D01*
X149068073Y-116962714D01*
X149068071Y-116962716D01*
X149046820Y-116991966D01*
X148947740Y-117128336D01*
X148854798Y-117310742D01*
X148854797Y-117310745D01*
X148791538Y-117505440D01*
X148759513Y-117707635D01*
X148759513Y-117912364D01*
X148791538Y-118114559D01*
X148854797Y-118309254D01*
X148854798Y-118309257D01*
X148947740Y-118491663D01*
X149068071Y-118657284D01*
X149212829Y-118802042D01*
X149378450Y-118922373D01*
X149467914Y-118967957D01*
X149560855Y-119015314D01*
X149560858Y-119015315D01*
X149658205Y-119046944D01*
X149755555Y-119078575D01*
X149849202Y-119093407D01*
X149957749Y-119110600D01*
X149957754Y-119110600D01*
X150162477Y-119110600D01*
X150260498Y-119095074D01*
X150364671Y-119078575D01*
X150559370Y-119015314D01*
X150741776Y-118922373D01*
X150907397Y-118802042D01*
X151052155Y-118657284D01*
X151172486Y-118491663D01*
X151265427Y-118309257D01*
X151328688Y-118114558D01*
X151346709Y-118000776D01*
X151360713Y-117912364D01*
X151360713Y-117707635D01*
X151339316Y-117572545D01*
X151328688Y-117505442D01*
X151286529Y-117375690D01*
X151265428Y-117310745D01*
X151265427Y-117310742D01*
X151208746Y-117199501D01*
X151172486Y-117128337D01*
X151052155Y-116962716D01*
X150907397Y-116817958D01*
X150741776Y-116697627D01*
X150649254Y-116650484D01*
X150598459Y-116602510D01*
X150581664Y-116534689D01*
X150604202Y-116468554D01*
X150649255Y-116429515D01*
X150741776Y-116382373D01*
X150907397Y-116262042D01*
X151052155Y-116117284D01*
X151172486Y-115951663D01*
X151265427Y-115769257D01*
X151328688Y-115574558D01*
X151345187Y-115470385D01*
X151360713Y-115372364D01*
X151360713Y-115167635D01*
X151335433Y-115008028D01*
X151328688Y-114965442D01*
X151287554Y-114838842D01*
X151265428Y-114770745D01*
X151265427Y-114770742D01*
X151172485Y-114588336D01*
X151052155Y-114422716D01*
X150907397Y-114277958D01*
X150741776Y-114157627D01*
X150649254Y-114110484D01*
X150598459Y-114062510D01*
X150581664Y-113994689D01*
X150604202Y-113928554D01*
X150649255Y-113889515D01*
X150741776Y-113842373D01*
X150907397Y-113722042D01*
X151052155Y-113577284D01*
X151172486Y-113411663D01*
X151265427Y-113229257D01*
X151328688Y-113034558D01*
X151345187Y-112930385D01*
X151360713Y-112832364D01*
X151360713Y-112627635D01*
X151329665Y-112431613D01*
X151328688Y-112425442D01*
X151282105Y-112282073D01*
X151265428Y-112230745D01*
X151265427Y-112230742D01*
X151208574Y-112119163D01*
X151172486Y-112048337D01*
X151052155Y-111882716D01*
X150907397Y-111737958D01*
X150741776Y-111617627D01*
X150648702Y-111570203D01*
X150597907Y-111522229D01*
X150581112Y-111454408D01*
X150603649Y-111388273D01*
X150648704Y-111349234D01*
X150741511Y-111301946D01*
X150741512Y-111301946D01*
X150786105Y-111269546D01*
X150786105Y-111269545D01*
X150227163Y-110710603D01*
X150270900Y-110698884D01*
X150395426Y-110626989D01*
X150497102Y-110525313D01*
X150568997Y-110400787D01*
X150580716Y-110357050D01*
X151139658Y-110915992D01*
X151139659Y-110915992D01*
X151172057Y-110871401D01*
X151264964Y-110689062D01*
X151328199Y-110494445D01*
X151328199Y-110494442D01*
X151360213Y-110292319D01*
X151360213Y-110087680D01*
X151328199Y-109885557D01*
X151328199Y-109885554D01*
X151264964Y-109690937D01*
X151172057Y-109508598D01*
X151139658Y-109464006D01*
X151139658Y-109464005D01*
X150580715Y-110022948D01*
X150568997Y-109979213D01*
X150497102Y-109854687D01*
X150395426Y-109753011D01*
X150270900Y-109681116D01*
X150227162Y-109669396D01*
X150786106Y-109110453D01*
X150741514Y-109078055D01*
X150559175Y-108985148D01*
X150364557Y-108921913D01*
X150162432Y-108889900D01*
X149957794Y-108889900D01*
X149755670Y-108921913D01*
X149755667Y-108921913D01*
X149561050Y-108985148D01*
X149378715Y-109078053D01*
X149334119Y-109110453D01*
X149893063Y-109669396D01*
X149849326Y-109681116D01*
X149724800Y-109753011D01*
X149623124Y-109854687D01*
X149551229Y-109979213D01*
X149539509Y-110022949D01*
X148980566Y-109464006D01*
X148948166Y-109508602D01*
X148855261Y-109690937D01*
X148792026Y-109885554D01*
X148792026Y-109885557D01*
X148760013Y-110087680D01*
X148760013Y-110292319D01*
X148792026Y-110494442D01*
X148792026Y-110494445D01*
X148855261Y-110689062D01*
X148948168Y-110871401D01*
X148980566Y-110915992D01*
X148980566Y-110915993D01*
X149539509Y-110357050D01*
X149551229Y-110400787D01*
X149623124Y-110525313D01*
X149724800Y-110626989D01*
X149849326Y-110698884D01*
X149893062Y-110710603D01*
X149334118Y-111269545D01*
X149378711Y-111301944D01*
X149471522Y-111349234D01*
X149522318Y-111397209D01*
X149539113Y-111465030D01*
X149516576Y-111531165D01*
X149471522Y-111570204D01*
X149378449Y-111617627D01*
X149283956Y-111686280D01*
X149212829Y-111737958D01*
X149212827Y-111737960D01*
X149212826Y-111737960D01*
X149068073Y-111882713D01*
X149068073Y-111882714D01*
X149068071Y-111882716D01*
X149018605Y-111950800D01*
X148947740Y-112048336D01*
X148854798Y-112230742D01*
X148854797Y-112230745D01*
X148791538Y-112425440D01*
X148759513Y-112627635D01*
X146082791Y-112627635D01*
X146085613Y-112600009D01*
X146085612Y-111399992D01*
X146075112Y-111297203D01*
X146019927Y-111130666D01*
X145927825Y-110981344D01*
X145803769Y-110857288D01*
X145654447Y-110765186D01*
X145592671Y-110744715D01*
X145535228Y-110704943D01*
X145508405Y-110640427D01*
X145508059Y-110617280D01*
X145511034Y-110579473D01*
X144831560Y-109900000D01*
X144837774Y-109900000D01*
X144939507Y-109872741D01*
X145030719Y-109820080D01*
X145105193Y-109745606D01*
X145157854Y-109654394D01*
X145185113Y-109552661D01*
X145185113Y-109546448D01*
X145864587Y-110225922D01*
X145864587Y-110225921D01*
X145896974Y-110181347D01*
X145896974Y-110181346D01*
X145975865Y-110026514D01*
X145975865Y-110026513D01*
X145975866Y-110026512D01*
X145989867Y-109999033D01*
X146053103Y-109804417D01*
X146085113Y-109602317D01*
X146085113Y-109397682D01*
X146053102Y-109195581D01*
X145989868Y-109000968D01*
X145896972Y-108818650D01*
X145864587Y-108774077D01*
X145864587Y-108774076D01*
X145185113Y-109453551D01*
X145185113Y-109447339D01*
X145157854Y-109345606D01*
X145105193Y-109254394D01*
X145030719Y-109179920D01*
X144939507Y-109127259D01*
X144837774Y-109100000D01*
X144831559Y-109100000D01*
X145511035Y-108420524D01*
X145511034Y-108420523D01*
X145466472Y-108388147D01*
X145466463Y-108388141D01*
X145341302Y-108324368D01*
X145290506Y-108276393D01*
X145273711Y-108208572D01*
X145296249Y-108142437D01*
X145341303Y-108103398D01*
X145414047Y-108066333D01*
X145414048Y-108066333D01*
X145439441Y-108047883D01*
X145439441Y-108047882D01*
X144785114Y-107393554D01*
X144785113Y-107393554D01*
X144130782Y-108047882D01*
X144130783Y-108047883D01*
X144156174Y-108066331D01*
X144228922Y-108103398D01*
X144279719Y-108151372D01*
X144296514Y-108219193D01*
X144273977Y-108285328D01*
X144228923Y-108324367D01*
X144103766Y-108388138D01*
X144103758Y-108388143D01*
X144059190Y-108420523D01*
X144059190Y-108420524D01*
X144738667Y-109100000D01*
X144732452Y-109100000D01*
X144630719Y-109127259D01*
X144539507Y-109179920D01*
X144465033Y-109254394D01*
X144412372Y-109345606D01*
X144385113Y-109447339D01*
X144385113Y-109453553D01*
X143705637Y-108774077D01*
X143705636Y-108774077D01*
X143673256Y-108818644D01*
X143580357Y-109000968D01*
X143517122Y-109195582D01*
X143485113Y-109397682D01*
X143485113Y-109602317D01*
X143517122Y-109804417D01*
X143580357Y-109999031D01*
X143673254Y-110181350D01*
X143673260Y-110181359D01*
X143705636Y-110225921D01*
X143705637Y-110225922D01*
X144385113Y-109546446D01*
X144385113Y-109552661D01*
X144412372Y-109654394D01*
X144465033Y-109745606D01*
X144539507Y-109820080D01*
X144630719Y-109872741D01*
X144732452Y-109900000D01*
X144738666Y-109900000D01*
X144059189Y-110579474D01*
X144062165Y-110617282D01*
X144047800Y-110685659D01*
X143998749Y-110735415D01*
X143977553Y-110744715D01*
X143915785Y-110765184D01*
X143915776Y-110765187D01*
X143766455Y-110857289D01*
X143642402Y-110981342D01*
X143550300Y-111130663D01*
X143550299Y-111130666D01*
X143495114Y-111297203D01*
X143495114Y-111297204D01*
X143495113Y-111297204D01*
X143484613Y-111399983D01*
X140538811Y-111399983D01*
X140515767Y-111329059D01*
X140490333Y-111250781D01*
X140397400Y-111068390D01*
X140376166Y-111039163D01*
X140277084Y-110902786D01*
X140132326Y-110758028D01*
X139966724Y-110637713D01*
X139912734Y-110610203D01*
X139861938Y-110562228D01*
X139845144Y-110494407D01*
X139867682Y-110428272D01*
X139912737Y-110389233D01*
X139966462Y-110361859D01*
X140011034Y-110329474D01*
X139331560Y-109650000D01*
X139337774Y-109650000D01*
X139439507Y-109622741D01*
X139530719Y-109570080D01*
X139605193Y-109495606D01*
X139657854Y-109404394D01*
X139685113Y-109302661D01*
X139685113Y-109296448D01*
X140364587Y-109975922D01*
X140364587Y-109975921D01*
X140396972Y-109931349D01*
X140489868Y-109749031D01*
X140553103Y-109554417D01*
X140581771Y-109373418D01*
X140585113Y-109352317D01*
X140585113Y-109147682D01*
X140553103Y-108945582D01*
X140489868Y-108750968D01*
X140396970Y-108568646D01*
X140376645Y-108540671D01*
X140376643Y-108540669D01*
X140364588Y-108524077D01*
X140364587Y-108524076D01*
X139685113Y-109203551D01*
X139685113Y-109197339D01*
X139657854Y-109095606D01*
X139605193Y-109004394D01*
X139530719Y-108929920D01*
X139439507Y-108877259D01*
X139337774Y-108850000D01*
X139331559Y-108850000D01*
X140011035Y-108170524D01*
X140011034Y-108170523D01*
X139966472Y-108138147D01*
X139966463Y-108138141D01*
X139784144Y-108045244D01*
X139589530Y-107982009D01*
X139387430Y-107950000D01*
X139182796Y-107950000D01*
X138980695Y-107982009D01*
X138786081Y-108045244D01*
X138603757Y-108138143D01*
X138559190Y-108170523D01*
X138559190Y-108170524D01*
X139238667Y-108850000D01*
X139232452Y-108850000D01*
X139130719Y-108877259D01*
X139039507Y-108929920D01*
X138965033Y-109004394D01*
X138912372Y-109095606D01*
X138885113Y-109197339D01*
X138885113Y-109203553D01*
X138205637Y-108524077D01*
X138205636Y-108524077D01*
X138173256Y-108568644D01*
X138080357Y-108750968D01*
X138017122Y-108945582D01*
X137985113Y-109147682D01*
X137985113Y-109352317D01*
X138017122Y-109554417D01*
X138080357Y-109749031D01*
X138173254Y-109931350D01*
X138173260Y-109931359D01*
X138205636Y-109975921D01*
X138205637Y-109975922D01*
X138885113Y-109296446D01*
X138885113Y-109302661D01*
X138912372Y-109404394D01*
X138965033Y-109495606D01*
X139039507Y-109570080D01*
X139130719Y-109622741D01*
X139232452Y-109650000D01*
X139238666Y-109650000D01*
X138559189Y-110329474D01*
X138603765Y-110361861D01*
X138657489Y-110389234D01*
X138708285Y-110437208D01*
X138725081Y-110505028D01*
X138702544Y-110571164D01*
X138657492Y-110610203D01*
X138603499Y-110637714D01*
X138437899Y-110758028D01*
X138293141Y-110902786D01*
X138172828Y-111068386D01*
X138079894Y-111250776D01*
X138016635Y-111445465D01*
X137984613Y-111647648D01*
X135130524Y-111647648D01*
X135067186Y-111584310D01*
X134914312Y-111473240D01*
X134877352Y-111454408D01*
X134745949Y-111387454D01*
X134566231Y-111329059D01*
X134379599Y-111299500D01*
X134379594Y-111299500D01*
X134190632Y-111299500D01*
X134190627Y-111299500D01*
X134003994Y-111329059D01*
X133824276Y-111387454D01*
X133655913Y-111473240D01*
X133603760Y-111511132D01*
X133503040Y-111584310D01*
X133503038Y-111584312D01*
X133503037Y-111584312D01*
X133369425Y-111717924D01*
X133369425Y-111717925D01*
X133369423Y-111717927D01*
X133354870Y-111737958D01*
X133258353Y-111870800D01*
X133172567Y-112039163D01*
X133114172Y-112218881D01*
X133084613Y-112405513D01*
X120000000Y-112405513D01*
X120000000Y-108427882D01*
X133630782Y-108427882D01*
X133630783Y-108427883D01*
X133656172Y-108446329D01*
X133824475Y-108532085D01*
X134004110Y-108590451D01*
X134190666Y-108620000D01*
X134379560Y-108620000D01*
X134566115Y-108590451D01*
X134745750Y-108532085D01*
X134914050Y-108446331D01*
X134939441Y-108427883D01*
X134939441Y-108427882D01*
X134817023Y-108305464D01*
X134285114Y-107773554D01*
X134285113Y-107773554D01*
X133630782Y-108427882D01*
X120000000Y-108427882D01*
X120000000Y-107325552D01*
X133085113Y-107325552D01*
X133085113Y-107514447D01*
X133114661Y-107701002D01*
X133173027Y-107880637D01*
X133258779Y-108048933D01*
X133277229Y-108074328D01*
X133931559Y-107420000D01*
X133931559Y-107419999D01*
X133885482Y-107373922D01*
X133935113Y-107373922D01*
X133935113Y-107466078D01*
X133958965Y-107555095D01*
X134005043Y-107634905D01*
X134070208Y-107700070D01*
X134150018Y-107746148D01*
X134239035Y-107770000D01*
X134331191Y-107770000D01*
X134420208Y-107746148D01*
X134500018Y-107700070D01*
X134565183Y-107634905D01*
X134611261Y-107555095D01*
X134635113Y-107466078D01*
X134635113Y-107419999D01*
X134638667Y-107419999D01*
X134638667Y-107420000D01*
X135292995Y-108074328D01*
X135292996Y-108074328D01*
X135311444Y-108048937D01*
X135397198Y-107880637D01*
X135455564Y-107701002D01*
X135485113Y-107514447D01*
X135485113Y-107325552D01*
X135455565Y-107138998D01*
X135403580Y-106979004D01*
X135403579Y-106979002D01*
X135397197Y-106959360D01*
X135390161Y-106945552D01*
X143585113Y-106945552D01*
X143585113Y-107134447D01*
X143614661Y-107321002D01*
X143673027Y-107500637D01*
X143758779Y-107668933D01*
X143777229Y-107694328D01*
X144431559Y-107040000D01*
X144431559Y-107039999D01*
X144385482Y-106993922D01*
X144435113Y-106993922D01*
X144435113Y-107086078D01*
X144458965Y-107175095D01*
X144505043Y-107254905D01*
X144570208Y-107320070D01*
X144650018Y-107366148D01*
X144739035Y-107390000D01*
X144831191Y-107390000D01*
X144920208Y-107366148D01*
X145000018Y-107320070D01*
X145065183Y-107254905D01*
X145111261Y-107175095D01*
X145135113Y-107086078D01*
X145135113Y-107039999D01*
X145138667Y-107039999D01*
X145138667Y-107040000D01*
X145792995Y-107694328D01*
X145792996Y-107694328D01*
X145811444Y-107668937D01*
X145897198Y-107500637D01*
X145928106Y-107405513D01*
X157584613Y-107405513D01*
X157584613Y-107594486D01*
X157614172Y-107781118D01*
X157672567Y-107960836D01*
X157758353Y-108129199D01*
X157869423Y-108282073D01*
X158003040Y-108415690D01*
X158155914Y-108526760D01*
X158235460Y-108567290D01*
X158324276Y-108612545D01*
X158324278Y-108612545D01*
X158324281Y-108612547D01*
X158420610Y-108643846D01*
X158503994Y-108670940D01*
X158690627Y-108700500D01*
X158690632Y-108700500D01*
X158879599Y-108700500D01*
X159066231Y-108670940D01*
X159245945Y-108612547D01*
X159414312Y-108526760D01*
X159567186Y-108415690D01*
X159700803Y-108282073D01*
X159811873Y-108129199D01*
X159897660Y-107960832D01*
X159956053Y-107781118D01*
X159969799Y-107694328D01*
X159985613Y-107594486D01*
X159985613Y-107405513D01*
X159956053Y-107218881D01*
X159897658Y-107039163D01*
X159811872Y-106870800D01*
X159753937Y-106791060D01*
X159700803Y-106717927D01*
X159567186Y-106584310D01*
X159414312Y-106473240D01*
X159245949Y-106387454D01*
X159066231Y-106329059D01*
X158879599Y-106299500D01*
X158879594Y-106299500D01*
X158690632Y-106299500D01*
X158690627Y-106299500D01*
X158503994Y-106329059D01*
X158324276Y-106387454D01*
X158155913Y-106473240D01*
X158083171Y-106526091D01*
X158003040Y-106584310D01*
X158003038Y-106584312D01*
X158003037Y-106584312D01*
X157869425Y-106717924D01*
X157869425Y-106717925D01*
X157869423Y-106717927D01*
X157839584Y-106758997D01*
X157758353Y-106870800D01*
X157672567Y-107039163D01*
X157614172Y-107218881D01*
X157584613Y-107405513D01*
X145928106Y-107405513D01*
X145942137Y-107362329D01*
X145955565Y-107321001D01*
X145985113Y-107134447D01*
X145985113Y-106945552D01*
X145955564Y-106758997D01*
X145897198Y-106579362D01*
X145811442Y-106411059D01*
X145792996Y-106385670D01*
X145792995Y-106385669D01*
X145138667Y-107039999D01*
X145135113Y-107039999D01*
X145135113Y-106993922D01*
X145111261Y-106904905D01*
X145065183Y-106825095D01*
X145000018Y-106759930D01*
X144920208Y-106713852D01*
X144831191Y-106690000D01*
X144739035Y-106690000D01*
X144650018Y-106713852D01*
X144570208Y-106759930D01*
X144505043Y-106825095D01*
X144458965Y-106904905D01*
X144435113Y-106993922D01*
X144385482Y-106993922D01*
X143777229Y-106385669D01*
X143777229Y-106385670D01*
X143758782Y-106411060D01*
X143673027Y-106579362D01*
X143614661Y-106758997D01*
X143585113Y-106945552D01*
X135390161Y-106945552D01*
X135311442Y-106791059D01*
X135292996Y-106765670D01*
X135292995Y-106765669D01*
X134638667Y-107419999D01*
X134635113Y-107419999D01*
X134635113Y-107373922D01*
X134611261Y-107284905D01*
X134565183Y-107205095D01*
X134500018Y-107139930D01*
X134420208Y-107093852D01*
X134331191Y-107070000D01*
X134239035Y-107070000D01*
X134150018Y-107093852D01*
X134070208Y-107139930D01*
X134005043Y-107205095D01*
X133958965Y-107284905D01*
X133935113Y-107373922D01*
X133885482Y-107373922D01*
X133277229Y-106765669D01*
X133277229Y-106765670D01*
X133258782Y-106791060D01*
X133173027Y-106959362D01*
X133114661Y-107138997D01*
X133085113Y-107325552D01*
X120000000Y-107325552D01*
X120000000Y-106412116D01*
X133630782Y-106412116D01*
X134285113Y-107066446D01*
X134285114Y-107066446D01*
X134939441Y-106412116D01*
X134914046Y-106393666D01*
X134745750Y-106307914D01*
X134566115Y-106249548D01*
X134379560Y-106220000D01*
X134190666Y-106220000D01*
X134004110Y-106249548D01*
X133824475Y-106307914D01*
X133656173Y-106393669D01*
X133630783Y-106412116D01*
X133630782Y-106412116D01*
X120000000Y-106412116D01*
X120000000Y-106032116D01*
X144130782Y-106032116D01*
X144785113Y-106686446D01*
X144785114Y-106686446D01*
X145439441Y-106032116D01*
X145414046Y-106013666D01*
X145245750Y-105927914D01*
X145066115Y-105869548D01*
X144879560Y-105840000D01*
X144690666Y-105840000D01*
X144504110Y-105869548D01*
X144324475Y-105927914D01*
X144156173Y-106013669D01*
X144130783Y-106032116D01*
X144130782Y-106032116D01*
X120000000Y-106032116D01*
X120000000Y-101865513D01*
X143584613Y-101865513D01*
X143584613Y-102054486D01*
X143614172Y-102241118D01*
X143672567Y-102420836D01*
X143758353Y-102589199D01*
X143869423Y-102742073D01*
X144003040Y-102875690D01*
X144155914Y-102986760D01*
X144235460Y-103027290D01*
X144324276Y-103072545D01*
X144324278Y-103072545D01*
X144324281Y-103072547D01*
X144420610Y-103103846D01*
X144503994Y-103130940D01*
X144690627Y-103160500D01*
X144690632Y-103160500D01*
X144879599Y-103160500D01*
X145066231Y-103130940D01*
X145245945Y-103072547D01*
X145414312Y-102986760D01*
X145567186Y-102875690D01*
X145700803Y-102742073D01*
X145811873Y-102589199D01*
X145894448Y-102427135D01*
X148034613Y-102427135D01*
X148034613Y-103572870D01*
X148034614Y-103572876D01*
X148041021Y-103632483D01*
X148091315Y-103767328D01*
X148091316Y-103767330D01*
X148091317Y-103767331D01*
X148092141Y-103768432D01*
X148092622Y-103769721D01*
X148095567Y-103775114D01*
X148094791Y-103775537D01*
X148116561Y-103833895D01*
X148107438Y-103890198D01*
X148074023Y-103970868D01*
X148074020Y-103970880D01*
X148034613Y-104168992D01*
X148034613Y-104371007D01*
X148074020Y-104569119D01*
X148074022Y-104569127D01*
X148151326Y-104755755D01*
X148205017Y-104836109D01*
X148225895Y-104902787D01*
X148207410Y-104970167D01*
X148205017Y-104973891D01*
X148151326Y-105054244D01*
X148074022Y-105240872D01*
X148074020Y-105240880D01*
X148034613Y-105438992D01*
X148034613Y-105641007D01*
X148074020Y-105839119D01*
X148074022Y-105839127D01*
X148151325Y-106025752D01*
X148151330Y-106025762D01*
X148263554Y-106193718D01*
X148406394Y-106336558D01*
X148574350Y-106448782D01*
X148574354Y-106448784D01*
X148574357Y-106448786D01*
X148760986Y-106526091D01*
X148959105Y-106565499D01*
X148959109Y-106565500D01*
X148959110Y-106565500D01*
X149611117Y-106565500D01*
X149611118Y-106565499D01*
X149809240Y-106526091D01*
X149995869Y-106448786D01*
X150163831Y-106336558D01*
X150306671Y-106193718D01*
X150418899Y-106025756D01*
X150496204Y-105839127D01*
X150535613Y-105641003D01*
X150535613Y-105438997D01*
X150496204Y-105240873D01*
X150418899Y-105054244D01*
X150365207Y-104973889D01*
X150344330Y-104907214D01*
X150362814Y-104839834D01*
X150365191Y-104836134D01*
X150418899Y-104755756D01*
X150496204Y-104569127D01*
X150523785Y-104430465D01*
X150528749Y-104405513D01*
X154044613Y-104405513D01*
X154044613Y-104594486D01*
X154074172Y-104781118D01*
X154132567Y-104960836D01*
X154218353Y-105129199D01*
X154329423Y-105282073D01*
X154463040Y-105415690D01*
X154615914Y-105526760D01*
X154695460Y-105567290D01*
X154784276Y-105612545D01*
X154784278Y-105612545D01*
X154784281Y-105612547D01*
X154871859Y-105641003D01*
X154963994Y-105670940D01*
X155150627Y-105700500D01*
X155150632Y-105700500D01*
X155339599Y-105700500D01*
X155526231Y-105670940D01*
X155705945Y-105612547D01*
X155874312Y-105526760D01*
X156027186Y-105415690D01*
X156160803Y-105282073D01*
X156271873Y-105129199D01*
X156357660Y-104960832D01*
X156416053Y-104781118D01*
X156420070Y-104755753D01*
X156445613Y-104594486D01*
X156445613Y-104405513D01*
X159124613Y-104405513D01*
X159124613Y-104594486D01*
X159154172Y-104781118D01*
X159212567Y-104960836D01*
X159298353Y-105129199D01*
X159409423Y-105282073D01*
X159543040Y-105415690D01*
X159695914Y-105526760D01*
X159775460Y-105567290D01*
X159864276Y-105612545D01*
X159864278Y-105612545D01*
X159864281Y-105612547D01*
X159951859Y-105641003D01*
X160043994Y-105670940D01*
X160230627Y-105700500D01*
X160230632Y-105700500D01*
X160419599Y-105700500D01*
X160606231Y-105670940D01*
X160785945Y-105612547D01*
X160954312Y-105526760D01*
X161107186Y-105415690D01*
X161240803Y-105282073D01*
X161351873Y-105129199D01*
X161437660Y-104960832D01*
X161496053Y-104781118D01*
X161500070Y-104755753D01*
X161519569Y-104632648D01*
X162364613Y-104632648D01*
X162364613Y-104837351D01*
X162396635Y-105039534D01*
X162459894Y-105234223D01*
X162523804Y-105359653D01*
X162552357Y-105415690D01*
X162552828Y-105416613D01*
X162673141Y-105582213D01*
X162817899Y-105726971D01*
X162972261Y-105839119D01*
X162983503Y-105847287D01*
X163074953Y-105893883D01*
X163076193Y-105894515D01*
X163126989Y-105942490D01*
X163143784Y-106010311D01*
X163121247Y-106076446D01*
X163076193Y-106115485D01*
X162983499Y-106162715D01*
X162817899Y-106283028D01*
X162673141Y-106427786D01*
X162552828Y-106593386D01*
X162459894Y-106775776D01*
X162396635Y-106970465D01*
X162364613Y-107172648D01*
X162364613Y-107377351D01*
X162396635Y-107579534D01*
X162459894Y-107774223D01*
X162552828Y-107956613D01*
X162673141Y-108122213D01*
X162817899Y-108266971D01*
X162972862Y-108379556D01*
X162983503Y-108387287D01*
X163099379Y-108446329D01*
X163165889Y-108480218D01*
X163165891Y-108480218D01*
X163165894Y-108480220D01*
X163270250Y-108514127D01*
X163360578Y-108543477D01*
X163461670Y-108559488D01*
X163562761Y-108575500D01*
X163562762Y-108575500D01*
X163767464Y-108575500D01*
X163767465Y-108575500D01*
X163969647Y-108543477D01*
X164164332Y-108480220D01*
X164346723Y-108387287D01*
X164487059Y-108285328D01*
X164512326Y-108266971D01*
X164512328Y-108266968D01*
X164512332Y-108266966D01*
X164657079Y-108122219D01*
X164657081Y-108122215D01*
X164657084Y-108122213D01*
X164713004Y-108045244D01*
X164777400Y-107956610D01*
X164870333Y-107774219D01*
X164933590Y-107579534D01*
X164965613Y-107377352D01*
X164965613Y-107172648D01*
X164953133Y-107093852D01*
X164933590Y-106970465D01*
X164870331Y-106775776D01*
X164824814Y-106686446D01*
X164777400Y-106593390D01*
X164728505Y-106526091D01*
X164657084Y-106427786D01*
X164512326Y-106283028D01*
X164346727Y-106162715D01*
X164340119Y-106159348D01*
X164254030Y-106115483D01*
X164203236Y-106067511D01*
X164186441Y-105999690D01*
X164208978Y-105933555D01*
X164254030Y-105894516D01*
X164346723Y-105847287D01*
X164367883Y-105831913D01*
X164512326Y-105726971D01*
X164512328Y-105726968D01*
X164512332Y-105726966D01*
X164657079Y-105582219D01*
X164657081Y-105582215D01*
X164657084Y-105582213D01*
X164709845Y-105509590D01*
X164777400Y-105416610D01*
X164870333Y-105234219D01*
X164933590Y-105039534D01*
X164965613Y-104837352D01*
X164965613Y-104632648D01*
X164933590Y-104430466D01*
X164925482Y-104405513D01*
X164870331Y-104235776D01*
X164836302Y-104168992D01*
X164777400Y-104053390D01*
X164767064Y-104039163D01*
X164657084Y-103887786D01*
X164512326Y-103743028D01*
X164346726Y-103622715D01*
X164346725Y-103622714D01*
X164346723Y-103622713D01*
X164271353Y-103584310D01*
X164164336Y-103529781D01*
X163969647Y-103466522D01*
X163795108Y-103438878D01*
X163767465Y-103434500D01*
X163562761Y-103434500D01*
X163538442Y-103438351D01*
X163360578Y-103466522D01*
X163165889Y-103529781D01*
X162983499Y-103622715D01*
X162817899Y-103743028D01*
X162673141Y-103887786D01*
X162552828Y-104053386D01*
X162459894Y-104235776D01*
X162396635Y-104430465D01*
X162364613Y-104632648D01*
X161519569Y-104632648D01*
X161523395Y-104608490D01*
X161523412Y-104608379D01*
X161525613Y-104594481D01*
X161525613Y-104405513D01*
X161496053Y-104218881D01*
X161442281Y-104053390D01*
X161437660Y-104039168D01*
X161437658Y-104039165D01*
X161437658Y-104039163D01*
X161392403Y-103950347D01*
X161351873Y-103870801D01*
X161240803Y-103717927D01*
X161107186Y-103584310D01*
X160954312Y-103473240D01*
X160941127Y-103466522D01*
X160785949Y-103387454D01*
X160606231Y-103329059D01*
X160419599Y-103299500D01*
X160419594Y-103299500D01*
X160230632Y-103299500D01*
X160230627Y-103299500D01*
X160043994Y-103329059D01*
X159864276Y-103387454D01*
X159695913Y-103473240D01*
X159618094Y-103529780D01*
X159543040Y-103584310D01*
X159543038Y-103584312D01*
X159543037Y-103584312D01*
X159409425Y-103717924D01*
X159409425Y-103717925D01*
X159409423Y-103717927D01*
X159367874Y-103775114D01*
X159298353Y-103870800D01*
X159212567Y-104039163D01*
X159154172Y-104218881D01*
X159124613Y-104405513D01*
X156445613Y-104405513D01*
X156416053Y-104218881D01*
X156362281Y-104053390D01*
X156357660Y-104039168D01*
X156357658Y-104039165D01*
X156357658Y-104039163D01*
X156312403Y-103950347D01*
X156271873Y-103870801D01*
X156160803Y-103717927D01*
X156027186Y-103584310D01*
X155874312Y-103473240D01*
X155861127Y-103466522D01*
X155705949Y-103387454D01*
X155526231Y-103329059D01*
X155339599Y-103299500D01*
X155339594Y-103299500D01*
X155150632Y-103299500D01*
X155150627Y-103299500D01*
X154963994Y-103329059D01*
X154784276Y-103387454D01*
X154615913Y-103473240D01*
X154538094Y-103529780D01*
X154463040Y-103584310D01*
X154463038Y-103584312D01*
X154463037Y-103584312D01*
X154329425Y-103717924D01*
X154329425Y-103717925D01*
X154329423Y-103717927D01*
X154287874Y-103775114D01*
X154218353Y-103870800D01*
X154132567Y-104039163D01*
X154074172Y-104218881D01*
X154044613Y-104405513D01*
X150528749Y-104405513D01*
X150534524Y-104376479D01*
X150534528Y-104376458D01*
X150535613Y-104371002D01*
X150535613Y-104168996D01*
X150535612Y-104168992D01*
X150496204Y-103970873D01*
X150462786Y-103890198D01*
X150455318Y-103820730D01*
X150475077Y-103775340D01*
X150474660Y-103775112D01*
X150477208Y-103770444D01*
X150478085Y-103768431D01*
X150478909Y-103767331D01*
X150529204Y-103632483D01*
X150535613Y-103572873D01*
X150535612Y-102427128D01*
X150529204Y-102367517D01*
X150482060Y-102241118D01*
X150478910Y-102232671D01*
X150478906Y-102232664D01*
X150392660Y-102117455D01*
X150392657Y-102117452D01*
X150277448Y-102031206D01*
X150277441Y-102031202D01*
X150142595Y-101980908D01*
X150142596Y-101980908D01*
X150082996Y-101974501D01*
X150082994Y-101974500D01*
X150082986Y-101974500D01*
X150082977Y-101974500D01*
X148487242Y-101974500D01*
X148487236Y-101974501D01*
X148427629Y-101980908D01*
X148292784Y-102031202D01*
X148292777Y-102031206D01*
X148177568Y-102117452D01*
X148177565Y-102117455D01*
X148091319Y-102232664D01*
X148091315Y-102232671D01*
X148041021Y-102367517D01*
X148035290Y-102420832D01*
X148034614Y-102427123D01*
X148034613Y-102427135D01*
X145894448Y-102427135D01*
X145897660Y-102420832D01*
X145956053Y-102241118D01*
X145957392Y-102232664D01*
X145985613Y-102054486D01*
X145985613Y-101865513D01*
X145956053Y-101678881D01*
X145897658Y-101499163D01*
X145811872Y-101330800D01*
X145700803Y-101177927D01*
X145567186Y-101044310D01*
X145414312Y-100933240D01*
X145245949Y-100847454D01*
X145066231Y-100789059D01*
X144879599Y-100759500D01*
X144879594Y-100759500D01*
X144690632Y-100759500D01*
X144690627Y-100759500D01*
X144503994Y-100789059D01*
X144324276Y-100847454D01*
X144155913Y-100933240D01*
X144068692Y-100996610D01*
X144003040Y-101044310D01*
X144003038Y-101044312D01*
X144003037Y-101044312D01*
X143869425Y-101177924D01*
X143869425Y-101177925D01*
X143869423Y-101177927D01*
X143821723Y-101243579D01*
X143758353Y-101330800D01*
X143672567Y-101499163D01*
X143614172Y-101678881D01*
X143584613Y-101865513D01*
X120000000Y-101865513D01*
X120000000Y-94905513D01*
X143799500Y-94905513D01*
X143799500Y-95094486D01*
X143829059Y-95281118D01*
X143887454Y-95460836D01*
X143973240Y-95629199D01*
X144084310Y-95782073D01*
X144217927Y-95915690D01*
X144370801Y-96026760D01*
X144450347Y-96067290D01*
X144539163Y-96112545D01*
X144539165Y-96112545D01*
X144539168Y-96112547D01*
X144635497Y-96143846D01*
X144718881Y-96170940D01*
X144905514Y-96200500D01*
X144905519Y-96200500D01*
X145094486Y-96200500D01*
X145281118Y-96170940D01*
X145460832Y-96112547D01*
X145629199Y-96026760D01*
X145782073Y-95915690D01*
X145915690Y-95782073D01*
X146026760Y-95629199D01*
X146112547Y-95460832D01*
X146170940Y-95281118D01*
X146183867Y-95199500D01*
X146200500Y-95094486D01*
X146200500Y-94905513D01*
X148879500Y-94905513D01*
X148879500Y-95094486D01*
X148909059Y-95281118D01*
X148967454Y-95460836D01*
X149053240Y-95629199D01*
X149164310Y-95782073D01*
X149297927Y-95915690D01*
X149450801Y-96026760D01*
X149530347Y-96067290D01*
X149619163Y-96112545D01*
X149619165Y-96112545D01*
X149619168Y-96112547D01*
X149715497Y-96143846D01*
X149798881Y-96170940D01*
X149985514Y-96200500D01*
X149985519Y-96200500D01*
X150174486Y-96200500D01*
X150361118Y-96170940D01*
X150540832Y-96112547D01*
X150709199Y-96026760D01*
X150862073Y-95915690D01*
X150995690Y-95782073D01*
X151106760Y-95629199D01*
X151192547Y-95460832D01*
X151250940Y-95281118D01*
X151263867Y-95199500D01*
X151280500Y-95094486D01*
X151280500Y-94905513D01*
X151250940Y-94718881D01*
X151192545Y-94539163D01*
X151114874Y-94386726D01*
X151106760Y-94370801D01*
X150995690Y-94217927D01*
X150862073Y-94084310D01*
X150709199Y-93973240D01*
X150540836Y-93887454D01*
X150361118Y-93829059D01*
X150174486Y-93799500D01*
X150174481Y-93799500D01*
X149985519Y-93799500D01*
X149985514Y-93799500D01*
X149798881Y-93829059D01*
X149619163Y-93887454D01*
X149450800Y-93973240D01*
X149400691Y-94009647D01*
X149297927Y-94084310D01*
X149297925Y-94084312D01*
X149297924Y-94084312D01*
X149164312Y-94217924D01*
X149164312Y-94217925D01*
X149164310Y-94217927D01*
X149116610Y-94283579D01*
X149053240Y-94370800D01*
X148967454Y-94539163D01*
X148909059Y-94718881D01*
X148879500Y-94905513D01*
X146200500Y-94905513D01*
X146170940Y-94718881D01*
X146112545Y-94539163D01*
X146034874Y-94386726D01*
X146026760Y-94370801D01*
X145915690Y-94217927D01*
X145782073Y-94084310D01*
X145629199Y-93973240D01*
X145460836Y-93887454D01*
X145281118Y-93829059D01*
X145094486Y-93799500D01*
X145094481Y-93799500D01*
X144905519Y-93799500D01*
X144905514Y-93799500D01*
X144718881Y-93829059D01*
X144539163Y-93887454D01*
X144370800Y-93973240D01*
X144320691Y-94009647D01*
X144217927Y-94084310D01*
X144217925Y-94084312D01*
X144217924Y-94084312D01*
X144084312Y-94217924D01*
X144084312Y-94217925D01*
X144084310Y-94217927D01*
X144036610Y-94283579D01*
X143973240Y-94370800D01*
X143887454Y-94539163D01*
X143829059Y-94718881D01*
X143799500Y-94905513D01*
X120000000Y-94905513D01*
X120000000Y-93602761D01*
X153699500Y-93602761D01*
X153699500Y-93807464D01*
X153731522Y-94009647D01*
X153794781Y-94204336D01*
X153858691Y-94329766D01*
X153879600Y-94370801D01*
X153887715Y-94386726D01*
X154008028Y-94552326D01*
X154152782Y-94697080D01*
X154152787Y-94697084D01*
X154208640Y-94737664D01*
X154251306Y-94792994D01*
X154257285Y-94862607D01*
X154224679Y-94924402D01*
X154174761Y-94955687D01*
X154130669Y-94970298D01*
X154130666Y-94970299D01*
X154130663Y-94970300D01*
X153981342Y-95062402D01*
X153857289Y-95186455D01*
X153765187Y-95335776D01*
X153765186Y-95335779D01*
X153710001Y-95502316D01*
X153710001Y-95502317D01*
X153710000Y-95502317D01*
X153699500Y-95605096D01*
X153699500Y-96805114D01*
X153699501Y-96805131D01*
X153710000Y-96907909D01*
X153710001Y-96907912D01*
X153740258Y-96999219D01*
X153765186Y-97074447D01*
X153857288Y-97223769D01*
X153981344Y-97347825D01*
X154130666Y-97439927D01*
X154297203Y-97495112D01*
X154399991Y-97505613D01*
X155600008Y-97505612D01*
X155702797Y-97495112D01*
X155869334Y-97439927D01*
X156018656Y-97347825D01*
X156142712Y-97223769D01*
X156234814Y-97074447D01*
X156289999Y-96907910D01*
X156300500Y-96805122D01*
X156300499Y-96265513D01*
X158584613Y-96265513D01*
X158584613Y-96454486D01*
X158614172Y-96641118D01*
X158672567Y-96820836D01*
X158716934Y-96907910D01*
X158758353Y-96989199D01*
X158869423Y-97142073D01*
X159003040Y-97275690D01*
X159155914Y-97386760D01*
X159235460Y-97427290D01*
X159324276Y-97472545D01*
X159324278Y-97472545D01*
X159324281Y-97472547D01*
X159420610Y-97503846D01*
X159503994Y-97530940D01*
X159690627Y-97560500D01*
X159690632Y-97560500D01*
X159879599Y-97560500D01*
X160066231Y-97530940D01*
X160245945Y-97472547D01*
X160414312Y-97386760D01*
X160567186Y-97275690D01*
X160700803Y-97142073D01*
X160811873Y-96989199D01*
X160897660Y-96820832D01*
X160956053Y-96641118D01*
X160962193Y-96602351D01*
X160985613Y-96454486D01*
X160985613Y-96397648D01*
X162364613Y-96397648D01*
X162364613Y-96602351D01*
X162396635Y-96804534D01*
X162459894Y-96999223D01*
X162523804Y-97124653D01*
X162532681Y-97142074D01*
X162552828Y-97181613D01*
X162673141Y-97347213D01*
X162817899Y-97491971D01*
X162972862Y-97604556D01*
X162983503Y-97612287D01*
X163099720Y-97671503D01*
X163165889Y-97705218D01*
X163165891Y-97705218D01*
X163165894Y-97705220D01*
X163270250Y-97739127D01*
X163360578Y-97768477D01*
X163461670Y-97784488D01*
X163562761Y-97800500D01*
X163562762Y-97800500D01*
X163767464Y-97800500D01*
X163767465Y-97800500D01*
X163969647Y-97768477D01*
X164164332Y-97705220D01*
X164346723Y-97612287D01*
X164439703Y-97544732D01*
X164512326Y-97491971D01*
X164512328Y-97491968D01*
X164512332Y-97491966D01*
X164657079Y-97347219D01*
X164657081Y-97347215D01*
X164657084Y-97347213D01*
X164746769Y-97223770D01*
X164777400Y-97181610D01*
X164870333Y-96999219D01*
X164933590Y-96804534D01*
X164965613Y-96602352D01*
X164965613Y-96397648D01*
X164933590Y-96195465D01*
X164904240Y-96105137D01*
X164870333Y-96000781D01*
X164870331Y-96000778D01*
X164870331Y-96000776D01*
X164826975Y-95915687D01*
X164777400Y-95818390D01*
X164751015Y-95782074D01*
X164657084Y-95652786D01*
X164512326Y-95508028D01*
X164346726Y-95387715D01*
X164346725Y-95387714D01*
X164346723Y-95387713D01*
X164289766Y-95358691D01*
X164164336Y-95294781D01*
X163969647Y-95231522D01*
X163795108Y-95203878D01*
X163767465Y-95199500D01*
X163562761Y-95199500D01*
X163538442Y-95203351D01*
X163360578Y-95231522D01*
X163165889Y-95294781D01*
X162983499Y-95387715D01*
X162817899Y-95508028D01*
X162673141Y-95652786D01*
X162552828Y-95818386D01*
X162459894Y-96000776D01*
X162396635Y-96195465D01*
X162364613Y-96397648D01*
X160985613Y-96397648D01*
X160985613Y-96265513D01*
X160956053Y-96078881D01*
X160897658Y-95899163D01*
X160811872Y-95730800D01*
X160700803Y-95577927D01*
X160567186Y-95444310D01*
X160414312Y-95333240D01*
X160245949Y-95247454D01*
X160066231Y-95189059D01*
X159879599Y-95159500D01*
X159879594Y-95159500D01*
X159690632Y-95159500D01*
X159690627Y-95159500D01*
X159503994Y-95189059D01*
X159324276Y-95247454D01*
X159155913Y-95333240D01*
X159080939Y-95387713D01*
X159003040Y-95444310D01*
X159003038Y-95444312D01*
X159003037Y-95444312D01*
X158869425Y-95577924D01*
X158869425Y-95577925D01*
X158869423Y-95577927D01*
X158849678Y-95605104D01*
X158758353Y-95730800D01*
X158672567Y-95899163D01*
X158614172Y-96078881D01*
X158584613Y-96265513D01*
X156300499Y-96265513D01*
X156300499Y-96200500D01*
X156300499Y-95605111D01*
X156300498Y-95605094D01*
X156289999Y-95502316D01*
X156289998Y-95502313D01*
X156276254Y-95460836D01*
X156234814Y-95335779D01*
X156142712Y-95186457D01*
X156018656Y-95062401D01*
X155869334Y-94970299D01*
X155825239Y-94955687D01*
X155767795Y-94915915D01*
X155740972Y-94851399D01*
X155753287Y-94782623D01*
X155791359Y-94737663D01*
X155847219Y-94697079D01*
X155991966Y-94552332D01*
X155991968Y-94552328D01*
X155991971Y-94552326D01*
X156044732Y-94479703D01*
X156112287Y-94386723D01*
X156205220Y-94204332D01*
X156268477Y-94009647D01*
X156300500Y-93807465D01*
X156300500Y-93602761D01*
X156268477Y-93400579D01*
X156265224Y-93390568D01*
X156205218Y-93205889D01*
X156171503Y-93139720D01*
X156112287Y-93023503D01*
X156078872Y-92977511D01*
X155991971Y-92857899D01*
X155847213Y-92713141D01*
X155681613Y-92592828D01*
X155681612Y-92592827D01*
X155681610Y-92592826D01*
X155624653Y-92563804D01*
X155499223Y-92499894D01*
X155304534Y-92436635D01*
X155129995Y-92408991D01*
X155102352Y-92404613D01*
X154897648Y-92404613D01*
X154873329Y-92408464D01*
X154695465Y-92436635D01*
X154500776Y-92499894D01*
X154318386Y-92592828D01*
X154152786Y-92713141D01*
X154008028Y-92857899D01*
X153887715Y-93023499D01*
X153794781Y-93205889D01*
X153731522Y-93400578D01*
X153699500Y-93602761D01*
X120000000Y-93602761D01*
X120000000Y-91881902D01*
X125499500Y-91881902D01*
X125499500Y-92118097D01*
X125536446Y-92351368D01*
X125609433Y-92575996D01*
X125716657Y-92786433D01*
X125855483Y-92977510D01*
X126022490Y-93144517D01*
X126213567Y-93283343D01*
X126312991Y-93334002D01*
X126424003Y-93390566D01*
X126424005Y-93390566D01*
X126424008Y-93390568D01*
X126454816Y-93400578D01*
X126648631Y-93463553D01*
X126881903Y-93500500D01*
X126881908Y-93500500D01*
X127118097Y-93500500D01*
X127276470Y-93475416D01*
X127351368Y-93463553D01*
X127575992Y-93390568D01*
X127786433Y-93283343D01*
X127977510Y-93144517D01*
X128144517Y-92977510D01*
X128283343Y-92786433D01*
X128390568Y-92575992D01*
X128463553Y-92351368D01*
X128473608Y-92287882D01*
X159130782Y-92287882D01*
X159130783Y-92287883D01*
X159156172Y-92306329D01*
X159324475Y-92392085D01*
X159504110Y-92450451D01*
X159690666Y-92480000D01*
X159879560Y-92480000D01*
X160066115Y-92450451D01*
X160245750Y-92392085D01*
X160414050Y-92306331D01*
X160439441Y-92287883D01*
X160439441Y-92287882D01*
X159785114Y-91633554D01*
X159785113Y-91633554D01*
X159130782Y-92287882D01*
X128473608Y-92287882D01*
X128484166Y-92221225D01*
X128500500Y-92118097D01*
X128500500Y-91881902D01*
X128463553Y-91648631D01*
X128390566Y-91424003D01*
X128295273Y-91236981D01*
X128283342Y-91213566D01*
X128262989Y-91185552D01*
X158585113Y-91185552D01*
X158585113Y-91374447D01*
X158614661Y-91561002D01*
X158673027Y-91740637D01*
X158758779Y-91908933D01*
X158777229Y-91934328D01*
X159431559Y-91280000D01*
X159431559Y-91279999D01*
X159385482Y-91233922D01*
X159435113Y-91233922D01*
X159435113Y-91326078D01*
X159458965Y-91415095D01*
X159505043Y-91494905D01*
X159570208Y-91560070D01*
X159650018Y-91606148D01*
X159739035Y-91630000D01*
X159831191Y-91630000D01*
X159920208Y-91606148D01*
X160000018Y-91560070D01*
X160065183Y-91494905D01*
X160111261Y-91415095D01*
X160135113Y-91326078D01*
X160135113Y-91279999D01*
X160138667Y-91279999D01*
X160138667Y-91280000D01*
X160792995Y-91934328D01*
X160792996Y-91934328D01*
X160811444Y-91908937D01*
X160897198Y-91740637D01*
X160949288Y-91580320D01*
X160949288Y-91580319D01*
X160955565Y-91560999D01*
X160985113Y-91374447D01*
X160985113Y-91185552D01*
X160955564Y-90998997D01*
X160897198Y-90819362D01*
X160811444Y-90651061D01*
X160804670Y-90641738D01*
X160804668Y-90641736D01*
X160792995Y-90625669D01*
X160138667Y-91279999D01*
X160135113Y-91279999D01*
X160135113Y-91233922D01*
X160111261Y-91144905D01*
X160065183Y-91065095D01*
X160000018Y-90999930D01*
X159920208Y-90953852D01*
X159831191Y-90930000D01*
X159739035Y-90930000D01*
X159650018Y-90953852D01*
X159570208Y-90999930D01*
X159505043Y-91065095D01*
X159458965Y-91144905D01*
X159435113Y-91233922D01*
X159385482Y-91233922D01*
X158777229Y-90625669D01*
X158777229Y-90625670D01*
X158758782Y-90651060D01*
X158673027Y-90819362D01*
X158614661Y-90998997D01*
X158585113Y-91185552D01*
X128262989Y-91185552D01*
X128144517Y-91022490D01*
X127977510Y-90855483D01*
X127786433Y-90716657D01*
X127575996Y-90609433D01*
X127351368Y-90536446D01*
X127118097Y-90499500D01*
X127118092Y-90499500D01*
X126881908Y-90499500D01*
X126881903Y-90499500D01*
X126648631Y-90536446D01*
X126424003Y-90609433D01*
X126213566Y-90716657D01*
X126104550Y-90795862D01*
X126022490Y-90855483D01*
X126022488Y-90855485D01*
X126022487Y-90855485D01*
X125855485Y-91022487D01*
X125855485Y-91022488D01*
X125855483Y-91022490D01*
X125824529Y-91065095D01*
X125716657Y-91213566D01*
X125609433Y-91424003D01*
X125536446Y-91648631D01*
X125499500Y-91881902D01*
X120000000Y-91881902D01*
X120000000Y-90272116D01*
X159130782Y-90272116D01*
X159785113Y-90926446D01*
X159785114Y-90926446D01*
X160139403Y-90572155D01*
X162365113Y-90572155D01*
X162365113Y-91170000D01*
X163349427Y-91170000D01*
X163345033Y-91174394D01*
X163292372Y-91265606D01*
X163265113Y-91367339D01*
X163265113Y-91472661D01*
X163292372Y-91574394D01*
X163345033Y-91665606D01*
X163349427Y-91670000D01*
X162365113Y-91670000D01*
X162365113Y-92267844D01*
X162371514Y-92327372D01*
X162371516Y-92327379D01*
X162421758Y-92462086D01*
X162421762Y-92462093D01*
X162507922Y-92577187D01*
X162507925Y-92577190D01*
X162623019Y-92663350D01*
X162623026Y-92663354D01*
X162757733Y-92713596D01*
X162757740Y-92713598D01*
X162817268Y-92719999D01*
X162817285Y-92720000D01*
X163415113Y-92720000D01*
X163415113Y-91735686D01*
X163419507Y-91740080D01*
X163510719Y-91792741D01*
X163612452Y-91820000D01*
X163717774Y-91820000D01*
X163819507Y-91792741D01*
X163910719Y-91740080D01*
X163915113Y-91735686D01*
X163915113Y-92720000D01*
X164512941Y-92720000D01*
X164512957Y-92719999D01*
X164572485Y-92713598D01*
X164572492Y-92713596D01*
X164707199Y-92663354D01*
X164707206Y-92663350D01*
X164822300Y-92577190D01*
X164822303Y-92577187D01*
X164908463Y-92462093D01*
X164908467Y-92462086D01*
X164958709Y-92327379D01*
X164958711Y-92327372D01*
X164965112Y-92267844D01*
X164965113Y-92267827D01*
X164965113Y-91670000D01*
X163980799Y-91670000D01*
X163985193Y-91665606D01*
X164037854Y-91574394D01*
X164065113Y-91472661D01*
X164065113Y-91367339D01*
X164037854Y-91265606D01*
X163985193Y-91174394D01*
X163980799Y-91170000D01*
X164965113Y-91170000D01*
X164965113Y-90572172D01*
X164965112Y-90572155D01*
X164958711Y-90512627D01*
X164958709Y-90512620D01*
X164908467Y-90377913D01*
X164908463Y-90377906D01*
X164822303Y-90262812D01*
X164822300Y-90262809D01*
X164707206Y-90176649D01*
X164707199Y-90176645D01*
X164572492Y-90126403D01*
X164572485Y-90126401D01*
X164512957Y-90120000D01*
X163915113Y-90120000D01*
X163915113Y-91104314D01*
X163910719Y-91099920D01*
X163819507Y-91047259D01*
X163717774Y-91020000D01*
X163612452Y-91020000D01*
X163510719Y-91047259D01*
X163419507Y-91099920D01*
X163415113Y-91104314D01*
X163415113Y-90120000D01*
X162817268Y-90120000D01*
X162757740Y-90126401D01*
X162757733Y-90126403D01*
X162623026Y-90176645D01*
X162623019Y-90176649D01*
X162507925Y-90262809D01*
X162507922Y-90262812D01*
X162421762Y-90377906D01*
X162421758Y-90377913D01*
X162371516Y-90512620D01*
X162371514Y-90512627D01*
X162365113Y-90572155D01*
X160139403Y-90572155D01*
X160439441Y-90272116D01*
X160414046Y-90253666D01*
X160245750Y-90167914D01*
X160066115Y-90109548D01*
X159879560Y-90080000D01*
X159690666Y-90080000D01*
X159504110Y-90109548D01*
X159324475Y-90167914D01*
X159156173Y-90253669D01*
X159130783Y-90272116D01*
X159130782Y-90272116D01*
X120000000Y-90272116D01*
X120000000Y-90052097D01*
X120019685Y-89985058D01*
X120037209Y-89963535D01*
X132036352Y-78204375D01*
X132418367Y-77830000D01*
X162388504Y-77830000D01*
X163349427Y-77830000D01*
X163345033Y-77834394D01*
X163292372Y-77925606D01*
X163265113Y-78027339D01*
X163265113Y-78132661D01*
X163292372Y-78234394D01*
X163345033Y-78325606D01*
X163349427Y-78330000D01*
X162388504Y-78330000D01*
X162397122Y-78384413D01*
X162460357Y-78579029D01*
X162553253Y-78761349D01*
X162673530Y-78926894D01*
X162673530Y-78926895D01*
X162818217Y-79071582D01*
X162983763Y-79191859D01*
X163166081Y-79284754D01*
X163360691Y-79347988D01*
X163415113Y-79356607D01*
X163415113Y-78395686D01*
X163419507Y-78400080D01*
X163510719Y-78452741D01*
X163612452Y-78480000D01*
X163717774Y-78480000D01*
X163819507Y-78452741D01*
X163910719Y-78400080D01*
X163915113Y-78395686D01*
X163915113Y-79356606D01*
X163969534Y-79347988D01*
X164164144Y-79284754D01*
X164346462Y-79191859D01*
X164512007Y-79071582D01*
X164512008Y-79071582D01*
X164656695Y-78926895D01*
X164656695Y-78926894D01*
X164776972Y-78761349D01*
X164869868Y-78579029D01*
X164933103Y-78384413D01*
X164941722Y-78330000D01*
X163980799Y-78330000D01*
X163985193Y-78325606D01*
X164037854Y-78234394D01*
X164065113Y-78132661D01*
X164065113Y-78027339D01*
X164037854Y-77925606D01*
X163985193Y-77834394D01*
X163980799Y-77830000D01*
X164941722Y-77830000D01*
X164933103Y-77775586D01*
X164869868Y-77580970D01*
X164776972Y-77398650D01*
X164656695Y-77233105D01*
X164656695Y-77233104D01*
X164512008Y-77088417D01*
X164346462Y-76968140D01*
X164164142Y-76875244D01*
X163969526Y-76812009D01*
X163915113Y-76803390D01*
X163915113Y-77764314D01*
X163910719Y-77759920D01*
X163819507Y-77707259D01*
X163717774Y-77680000D01*
X163612452Y-77680000D01*
X163510719Y-77707259D01*
X163419507Y-77759920D01*
X163415113Y-77764314D01*
X163415113Y-76803390D01*
X163360699Y-76812009D01*
X163166083Y-76875244D01*
X162983763Y-76968140D01*
X162818218Y-77088417D01*
X162818217Y-77088417D01*
X162673530Y-77233104D01*
X162673530Y-77233105D01*
X162553253Y-77398650D01*
X162460357Y-77580970D01*
X162397122Y-77775586D01*
X162388504Y-77830000D01*
X132418367Y-77830000D01*
X132470917Y-77778501D01*
X132473892Y-77775586D01*
X140510221Y-69899983D01*
X157199500Y-69899983D01*
X157199500Y-71100001D01*
X157199501Y-71100018D01*
X157210000Y-71202796D01*
X157210001Y-71202799D01*
X157236691Y-71283343D01*
X157265186Y-71369334D01*
X157357288Y-71518656D01*
X157481344Y-71642712D01*
X157630666Y-71734814D01*
X157674759Y-71749425D01*
X157732203Y-71789196D01*
X157759027Y-71853711D01*
X157746713Y-71922487D01*
X157708642Y-71967447D01*
X157652784Y-72008031D01*
X157652782Y-72008032D01*
X157508028Y-72152786D01*
X157387715Y-72318386D01*
X157294781Y-72500776D01*
X157231522Y-72695465D01*
X157199500Y-72897648D01*
X157199500Y-73102351D01*
X157231522Y-73304534D01*
X157294781Y-73499223D01*
X157387715Y-73681613D01*
X157508028Y-73847213D01*
X157652786Y-73991971D01*
X157807749Y-74104556D01*
X157818390Y-74112287D01*
X157907212Y-74157544D01*
X158000776Y-74205218D01*
X158000778Y-74205218D01*
X158000781Y-74205220D01*
X158105137Y-74239127D01*
X158195465Y-74268477D01*
X158296557Y-74284488D01*
X158397648Y-74300500D01*
X158397649Y-74300500D01*
X158602351Y-74300500D01*
X158602352Y-74300500D01*
X158804534Y-74268477D01*
X158999219Y-74205220D01*
X159181610Y-74112287D01*
X159277901Y-74042328D01*
X159347213Y-73991971D01*
X159347215Y-73991968D01*
X159347219Y-73991966D01*
X159491966Y-73847219D01*
X159491968Y-73847215D01*
X159491971Y-73847213D01*
X159544732Y-73774590D01*
X159612287Y-73681610D01*
X159705220Y-73499219D01*
X159768477Y-73304534D01*
X159800500Y-73102352D01*
X159800500Y-72897648D01*
X159768477Y-72695466D01*
X159705220Y-72500781D01*
X159705218Y-72500778D01*
X159705218Y-72500776D01*
X159612287Y-72318390D01*
X159542032Y-72221691D01*
X159542031Y-72221688D01*
X159491971Y-72152787D01*
X159491967Y-72152782D01*
X159491320Y-72152135D01*
X162364613Y-72152135D01*
X162364613Y-73847870D01*
X162364614Y-73847876D01*
X162371021Y-73907483D01*
X162421315Y-74042328D01*
X162421319Y-74042335D01*
X162507565Y-74157544D01*
X162507568Y-74157547D01*
X162622777Y-74243793D01*
X162622784Y-74243797D01*
X162757630Y-74294091D01*
X162757629Y-74294091D01*
X162764557Y-74294835D01*
X162817240Y-74300500D01*
X164512985Y-74300499D01*
X164572596Y-74294091D01*
X164707444Y-74243796D01*
X164822659Y-74157546D01*
X164908909Y-74042331D01*
X164959204Y-73907483D01*
X164965613Y-73847873D01*
X164965612Y-72152128D01*
X164959204Y-72092517D01*
X164912556Y-71967448D01*
X164908910Y-71957671D01*
X164908906Y-71957664D01*
X164822660Y-71842455D01*
X164822657Y-71842452D01*
X164707448Y-71756206D01*
X164707441Y-71756202D01*
X164572595Y-71705908D01*
X164572596Y-71705908D01*
X164512996Y-71699501D01*
X164512994Y-71699500D01*
X164512986Y-71699500D01*
X164512977Y-71699500D01*
X162817242Y-71699500D01*
X162817236Y-71699501D01*
X162757629Y-71705908D01*
X162622784Y-71756202D01*
X162622777Y-71756206D01*
X162507568Y-71842452D01*
X162507565Y-71842455D01*
X162421319Y-71957664D01*
X162421315Y-71957671D01*
X162371021Y-72092517D01*
X162364614Y-72152116D01*
X162364614Y-72152123D01*
X162364613Y-72152135D01*
X159491320Y-72152135D01*
X159347217Y-72008032D01*
X159291358Y-71967448D01*
X159248693Y-71912118D01*
X159242714Y-71842504D01*
X159275320Y-71780709D01*
X159325236Y-71749426D01*
X159369334Y-71734814D01*
X159518656Y-71642712D01*
X159642712Y-71518656D01*
X159734814Y-71369334D01*
X159789999Y-71202797D01*
X159800500Y-71100009D01*
X159800499Y-69899992D01*
X159789999Y-69797203D01*
X159734814Y-69630666D01*
X159642712Y-69481344D01*
X159518656Y-69357288D01*
X159369334Y-69265186D01*
X159202797Y-69210001D01*
X159202795Y-69210000D01*
X159100010Y-69199500D01*
X157899998Y-69199500D01*
X157899981Y-69199501D01*
X157797203Y-69210000D01*
X157797200Y-69210001D01*
X157630668Y-69265185D01*
X157630663Y-69265187D01*
X157481342Y-69357289D01*
X157357289Y-69481342D01*
X157265187Y-69630663D01*
X157265185Y-69630668D01*
X157243562Y-69695924D01*
X157210001Y-69797203D01*
X157210001Y-69797204D01*
X157210000Y-69797204D01*
X157199500Y-69899983D01*
X140510221Y-69899983D01*
X141766480Y-68668849D01*
X144963839Y-65535438D01*
X145025497Y-65502574D01*
X145050630Y-65500000D01*
X166876000Y-65500000D01*
X166943039Y-65519685D01*
G37*
%TD.AperFunction*%
%TD*%
M02*
