%TF.GenerationSoftware,KiCad,Pcbnew,10.0.4*%
%TF.CreationDate,2026-08-13T11:40:52+06:00*%
%TF.ProjectId,NodePilot,4e6f6465-5069-46c6-9f74-2e6b69636164,rev?*%
%TF.SameCoordinates,Original*%
%TF.FileFunction,Soldermask,Bot*%
%TF.FilePolarity,Negative*%
%FSLAX46Y46*%
G04 Gerber Fmt 4.6, Leading zero omitted, Abs format (unit mm)*
G04 Created by KiCad (PCBNEW 10.0.4) date 2026-08-13 11:40:52*
%MOMM*%
%LPD*%
G01*
G04 APERTURE LIST*
G04 Aperture macros list*
%AMRoundRect*
0 Rectangle with rounded corners*
0 $1 Rounding radius*
0 $2 $3 $4 $5 $6 $7 $8 $9 X,Y pos of 4 corners*
0 Add a 4 corners polygon primitive as box body*
4,1,4,$2,$3,$4,$5,$6,$7,$8,$9,$2,$3,0*
0 Add four circle primitives for the rounded corners*
1,1,$1+$1,$2,$3*
1,1,$1+$1,$4,$5*
1,1,$1+$1,$6,$7*
1,1,$1+$1,$8,$9*
0 Add four rect primitives between the rounded corners*
20,1,$1+$1,$2,$3,$4,$5,0*
20,1,$1+$1,$4,$5,$6,$7,0*
20,1,$1+$1,$6,$7,$8,$9,0*
20,1,$1+$1,$8,$9,$2,$3,0*%
G04 Aperture macros list end*
%ADD10RoundRect,0.250000X0.550000X-0.550000X0.550000X0.550000X-0.550000X0.550000X-0.550000X-0.550000X0*%
%ADD11C,1.600000*%
%ADD12C,1.400000*%
%ADD13R,1.600000X1.600000*%
%ADD14O,1.600000X1.600000*%
%ADD15R,1.500000X1.050000*%
%ADD16O,1.500000X1.050000*%
%ADD17RoundRect,0.250000X-0.550000X0.550000X-0.550000X-0.550000X0.550000X-0.550000X0.550000X0.550000X0*%
%ADD18RoundRect,0.250001X0.949999X-0.949999X0.949999X0.949999X-0.949999X0.949999X-0.949999X-0.949999X0*%
%ADD19C,2.400000*%
%ADD20RoundRect,0.250000X-0.550000X-0.550000X0.550000X-0.550000X0.550000X0.550000X-0.550000X0.550000X0*%
%ADD21C,1.440000*%
%ADD22C,1.600200*%
%ADD23RoundRect,0.250000X0.550000X0.550000X-0.550000X0.550000X-0.550000X-0.550000X0.550000X-0.550000X0*%
%ADD24C,3.000000*%
%ADD25C,2.500000*%
G04 APERTURE END LIST*
D10*
%TO.C,C5*%
X144785113Y-118500000D03*
D11*
X144785113Y-116000000D03*
%TD*%
D12*
%TO.C,R13*%
X153205113Y-129500000D03*
X158285113Y-129500000D03*
%TD*%
%TO.C,R6*%
X175285113Y-72920000D03*
X175285113Y-78000000D03*
%TD*%
D13*
%TO.C,T1*%
X163665113Y-91420000D03*
D14*
X163665113Y-96500000D03*
X171285113Y-96500000D03*
X171285113Y-91420000D03*
%TD*%
D12*
%TO.C,R4*%
X128785113Y-116460000D03*
X128785113Y-121540000D03*
%TD*%
D15*
%TO.C,Q2*%
X149285113Y-129540000D03*
D16*
X149285113Y-128270000D03*
X149285113Y-127000000D03*
%TD*%
D15*
%TO.C,Q1*%
X176285113Y-107540000D03*
D16*
X176285113Y-106270000D03*
X176285113Y-105000000D03*
%TD*%
D11*
%TO.C,C10*%
X126600113Y-127000000D03*
X126600113Y-124500000D03*
%TD*%
D12*
%TO.C,R12*%
X145000000Y-95000000D03*
X150080000Y-95000000D03*
%TD*%
%TO.C,R7*%
X145705113Y-122500000D03*
X150785113Y-122500000D03*
%TD*%
%TO.C,R1*%
X187785113Y-108920000D03*
X192865113Y-108920000D03*
%TD*%
D17*
%TO.C,C3*%
X186000000Y-74000000D03*
D11*
X186000000Y-76500000D03*
%TD*%
D12*
%TO.C,R10*%
X155245113Y-104500000D03*
X160325113Y-104500000D03*
%TD*%
D18*
%TO.C,JP1*%
X192667500Y-97750000D03*
D19*
X192667500Y-94250000D03*
%TD*%
D11*
%TO.C,C9*%
X139285113Y-109250000D03*
X139285113Y-111750000D03*
%TD*%
D12*
%TO.C,R3*%
X144785113Y-101960000D03*
X144785113Y-107040000D03*
%TD*%
D13*
%TO.C,T2*%
X163665113Y-73000000D03*
D14*
X163665113Y-78080000D03*
X171285113Y-78080000D03*
X171285113Y-73000000D03*
%TD*%
D18*
%TO.C,*%
X192667500Y-120000000D03*
D19*
X192667500Y-116500000D03*
%TD*%
D12*
%TO.C,R15*%
X134285113Y-107420000D03*
X134285113Y-112500000D03*
%TD*%
D10*
%TO.C,C6*%
X138785113Y-118500000D03*
D11*
X138785113Y-116000000D03*
%TD*%
%TO.C,C7*%
X133285113Y-118500000D03*
X133285113Y-116000000D03*
%TD*%
D18*
%TO.C,*%
X192667500Y-128500000D03*
D19*
X192667500Y-125000000D03*
%TD*%
D11*
%TO.C,C11*%
X181285113Y-106250000D03*
X181285113Y-108750000D03*
%TD*%
D20*
%TO.C,U1*%
X129980113Y-124500000D03*
D11*
X129980113Y-127040000D03*
X137600113Y-127040000D03*
X137600113Y-124500000D03*
%TD*%
D12*
%TO.C,R9*%
X159785113Y-91280000D03*
X159785113Y-96360000D03*
%TD*%
D18*
%TO.C,*%
X192500000Y-79500000D03*
D19*
X192500000Y-76000000D03*
%TD*%
D17*
%TO.C,C2*%
X158500000Y-70500000D03*
D11*
X158500000Y-73000000D03*
%TD*%
D17*
%TO.C,D3*%
X157785113Y-118190000D03*
D11*
X157785113Y-125810000D03*
%TD*%
D10*
%TO.C,C8*%
X144785113Y-112000000D03*
D11*
X144785113Y-109500000D03*
%TD*%
D21*
%TO.C,RV1*%
X179785113Y-78000000D03*
X179785113Y-75460000D03*
X179785113Y-72920000D03*
%TD*%
D15*
%TO.C,Q4*%
X149285113Y-103000000D03*
D16*
X149285113Y-104270000D03*
X149285113Y-105540000D03*
%TD*%
D22*
%TO.C,U3*%
X150060113Y-110190000D03*
X150060113Y-112730000D03*
X150060113Y-115270000D03*
X150060113Y-117810000D03*
%TD*%
D12*
%TO.C,R8*%
X140205113Y-128000000D03*
X145285113Y-128000000D03*
%TD*%
D21*
%TO.C,RV2*%
X179785113Y-96320000D03*
X179785113Y-93780000D03*
X179785113Y-91240000D03*
%TD*%
D12*
%TO.C,R17*%
X192825113Y-106500000D03*
X187745113Y-106500000D03*
%TD*%
D17*
%TO.C,C4*%
X186000000Y-94000000D03*
D11*
X186000000Y-96500000D03*
%TD*%
D12*
%TO.C,R16*%
X184785113Y-106420000D03*
X184785113Y-111500000D03*
%TD*%
D23*
%TO.C,U2*%
X171285113Y-107275000D03*
D11*
X171285113Y-104735000D03*
X163665113Y-104735000D03*
X163665113Y-107275000D03*
%TD*%
D24*
%TO.C,K1*%
X161635113Y-122450000D03*
D25*
X163585113Y-128500000D03*
D24*
X175785113Y-128500000D03*
X175835113Y-116450000D03*
D25*
X163585113Y-116500000D03*
%TD*%
D12*
%TO.C,R5*%
X181705113Y-128500000D03*
X186785113Y-128500000D03*
%TD*%
%TO.C,R2*%
X169785113Y-111500000D03*
X164705113Y-111500000D03*
%TD*%
%TO.C,R11*%
X158785113Y-107500000D03*
X158785113Y-112580000D03*
%TD*%
D10*
%TO.C,C1*%
X155000000Y-96205113D03*
D11*
X155000000Y-93705113D03*
%TD*%
M02*
