%TF.GenerationSoftware,KiCad,Pcbnew,10.0.5*%
%TF.CreationDate,2026-08-13T00:49:08+06:00*%
%TF.ProjectId,NodePilot,4e6f6465-5069-46c6-9f74-2e6b69636164,rev?*%
%TF.SameCoordinates,Original*%
%TF.FileFunction,Copper,L2,Bot*%
%TF.FilePolarity,Positive*%
%FSLAX46Y46*%
G04 Gerber Fmt 4.6, Leading zero omitted, Abs format (unit mm)*
G04 Created by KiCad (PCBNEW 10.0.5) date 2026-08-13 00:49:08*
%MOMM*%
%LPD*%
G01*
G04 APERTURE LIST*
G04 Aperture macros list*
%AMRoundRect*
0 Rectangle with rounded corners*
0 $1 Rounding radius*
0 $2 $3 $4 $5 $6 $7 $8 $9 X,Y pos of 4 corners*
0 Add a 4 corners polygon primitive as box body*
4,1,4,$2,$3,$4,$5,$6,$7,$8,$9,$2,$3,0*
0 Add four circle primitives for the rounded corners*
1,1,$1+$1,$2,$3*
1,1,$1+$1,$4,$5*
1,1,$1+$1,$6,$7*
1,1,$1+$1,$8,$9*
0 Add four rect primitives between the rounded corners*
20,1,$1+$1,$2,$3,$4,$5,0*
20,1,$1+$1,$4,$5,$6,$7,0*
20,1,$1+$1,$6,$7,$8,$9,0*
20,1,$1+$1,$8,$9,$2,$3,0*%
G04 Aperture macros list end*
%TA.AperFunction,ComponentPad*%
%ADD10RoundRect,0.250000X0.550000X-0.550000X0.550000X0.550000X-0.550000X0.550000X-0.550000X-0.550000X0*%
%TD*%
%TA.AperFunction,ComponentPad*%
%ADD11C,1.600000*%
%TD*%
%TA.AperFunction,ComponentPad*%
%ADD12C,1.400000*%
%TD*%
%TA.AperFunction,ComponentPad*%
%ADD13R,1.600000X1.600000*%
%TD*%
%TA.AperFunction,ComponentPad*%
%ADD14O,1.600000X1.600000*%
%TD*%
%TA.AperFunction,ComponentPad*%
%ADD15R,1.500000X1.050000*%
%TD*%
%TA.AperFunction,ComponentPad*%
%ADD16O,1.500000X1.050000*%
%TD*%
%TA.AperFunction,ComponentPad*%
%ADD17RoundRect,0.250000X-0.550000X-0.550000X0.550000X-0.550000X0.550000X0.550000X-0.550000X0.550000X0*%
%TD*%
%TA.AperFunction,ComponentPad*%
%ADD18RoundRect,0.250001X0.949999X-0.949999X0.949999X0.949999X-0.949999X0.949999X-0.949999X-0.949999X0*%
%TD*%
%TA.AperFunction,ComponentPad*%
%ADD19C,2.400000*%
%TD*%
%TA.AperFunction,ComponentPad*%
%ADD20RoundRect,0.250000X-0.550000X0.550000X-0.550000X-0.550000X0.550000X-0.550000X0.550000X0.550000X0*%
%TD*%
%TA.AperFunction,ComponentPad*%
%ADD21C,1.440000*%
%TD*%
%TA.AperFunction,ComponentPad*%
%ADD22C,1.600200*%
%TD*%
%TA.AperFunction,ComponentPad*%
%ADD23RoundRect,0.250000X0.550000X0.550000X-0.550000X0.550000X-0.550000X-0.550000X0.550000X-0.550000X0*%
%TD*%
%TA.AperFunction,ComponentPad*%
%ADD24C,3.000000*%
%TD*%
%TA.AperFunction,ComponentPad*%
%ADD25C,2.500000*%
%TD*%
G04 APERTURE END LIST*
D10*
%TO.P,C5,1*%
%TO.N,Net-(D3-K)*%
X144785113Y-118500000D03*
D11*
%TO.P,C5,2*%
%TO.N,Net-(Q2-E)*%
X144785113Y-116000000D03*
%TD*%
D12*
%TO.P,R13,1*%
%TO.N,Net-(Q2-E)*%
X153205113Y-129500000D03*
%TO.P,R13,2*%
%TO.N,RIGGND*%
X158285113Y-129500000D03*
%TD*%
%TO.P,R6,1*%
%TO.N,Net-(T2-SB)*%
X175285113Y-74920000D03*
%TO.P,R6,2*%
%TO.N,RIGGND*%
X175285113Y-80000000D03*
%TD*%
D13*
%TO.P,T1,1,AA_1*%
%TO.N,GROUND*%
X163665113Y-92100000D03*
D14*
%TO.P,T1,2,AB_2*%
%TO.N,Net-(T1-AB)*%
X163665113Y-97180000D03*
%TO.P,T1,3,SA_3*%
%TO.N,Net-(T1-SA)*%
X171285113Y-97180000D03*
%TO.P,T1,4,SB_4*%
%TO.N,Net-(Q1-E)*%
X171285113Y-92100000D03*
%TD*%
D12*
%TO.P,R4,1*%
%TO.N,GPIO3*%
X128785113Y-116460000D03*
%TO.P,R4,2*%
%TO.N,Net-(C10-Pad2)*%
X128785113Y-121540000D03*
%TD*%
D15*
%TO.P,Q2,1,E_1*%
%TO.N,Net-(Q2-E)*%
X149285113Y-129540000D03*
D16*
%TO.P,Q2,2,B_2*%
%TO.N,Net-(Q2-B)*%
X149285113Y-128270000D03*
%TO.P,Q2,3,C_3*%
%TO.N,Net-(D3-A)*%
X149285113Y-127000000D03*
%TD*%
D15*
%TO.P,Q1,1,E_1*%
%TO.N,Net-(Q1-E)*%
X176285113Y-107540000D03*
D16*
%TO.P,Q1,2,B_2*%
%TO.N,Net-(Q1-B)*%
X176285113Y-106270000D03*
%TO.P,Q1,3,C_3*%
%TO.N,Net-(Q1-C)*%
X176285113Y-105000000D03*
%TD*%
D11*
%TO.P,C10,1*%
%TO.N,Net-(C10-Pad1)*%
X126600113Y-127000000D03*
%TO.P,C10,2*%
%TO.N,Net-(C10-Pad2)*%
X126600113Y-124500000D03*
%TD*%
D12*
%TO.P,R12,1*%
%TO.N,MICIN*%
X145000000Y-95000000D03*
%TO.P,R12,2*%
%TO.N,Net-(C1-Pad2)*%
X150080000Y-95000000D03*
%TD*%
%TO.P,R7,1*%
%TO.N,Net-(R7-Pad1)*%
X145705113Y-122500000D03*
%TO.P,R7,2*%
%TO.N,Net-(D3-K)*%
X150785113Y-122500000D03*
%TD*%
%TO.P,R1,1*%
%TO.N,Net-(Q1-B)*%
X187785113Y-108920000D03*
%TO.P,R1,2*%
%TO.N,EXT_COR*%
X192865113Y-108920000D03*
%TD*%
D17*
%TO.P,C3,1*%
%TO.N,Net-(C3-Pad1)*%
X184785113Y-77500000D03*
D11*
%TO.P,C3,2*%
%TO.N,RIGMICIN*%
X187285113Y-77500000D03*
%TD*%
D12*
%TO.P,R10,1*%
%TO.N,Net-(Q4-B)*%
X155245113Y-104500000D03*
%TO.P,R10,2*%
%TO.N,Net-(R10-Pad2)*%
X160325113Y-104500000D03*
%TD*%
D18*
%TO.P,JP1,1,A_1*%
%TO.N,Net-(JP1-A)*%
X192785113Y-101000000D03*
D19*
%TO.P,JP1,2,B_2*%
%TO.N,RIGAF*%
X192785113Y-97500000D03*
%TD*%
D11*
%TO.P,C9,1*%
%TO.N,GROUND*%
X139285113Y-109250000D03*
%TO.P,C9,2*%
%TO.N,USBPWR*%
X139285113Y-111750000D03*
%TD*%
D12*
%TO.P,R3,1*%
%TO.N,VOLDN*%
X144785113Y-101960000D03*
%TO.P,R3,2*%
%TO.N,GROUND*%
X144785113Y-107040000D03*
%TD*%
D13*
%TO.P,T2,1,AA_1*%
%TO.N,Net-(T2-AA)*%
X163665113Y-75000000D03*
D14*
%TO.P,T2,2,AB_2*%
%TO.N,GROUND*%
X163665113Y-80080000D03*
%TO.P,T2,3,SA_3*%
%TO.N,RIGGND*%
X171285113Y-80080000D03*
%TO.P,T2,4,SB_4*%
%TO.N,Net-(T2-SB)*%
X171285113Y-75000000D03*
%TD*%
D18*
%TO.P,,1*%
%TO.N,N/C*%
X192785113Y-120000000D03*
D19*
%TO.P,,2*%
%TO.N,EXT_COR*%
X192785113Y-116500000D03*
%TD*%
D12*
%TO.P,R15,1*%
%TO.N,GROUND*%
X134285113Y-107420000D03*
%TO.P,R15,2*%
%TO.N,Net-(C10-Pad1)*%
X134285113Y-112500000D03*
%TD*%
D10*
%TO.P,C6,1*%
%TO.N,Net-(D3-K)*%
X138785113Y-118500000D03*
D11*
%TO.P,C6,2*%
%TO.N,Net-(Q2-E)*%
X138785113Y-116000000D03*
%TD*%
%TO.P,C7,1*%
%TO.N,Net-(D3-K)*%
X133285113Y-118500000D03*
%TO.P,C7,2*%
%TO.N,Net-(Q2-E)*%
X133285113Y-116000000D03*
%TD*%
D18*
%TO.P,,1*%
%TO.N,PTT*%
X192785113Y-128500000D03*
D19*
%TO.P,,2*%
%TO.N,RIGGND*%
X192785113Y-125000000D03*
%TD*%
D11*
%TO.P,C11,1*%
%TO.N,Net-(Q1-B)*%
X181285113Y-106250000D03*
%TO.P,C11,2*%
%TO.N,Net-(Q1-E)*%
X181285113Y-108750000D03*
%TD*%
D17*
%TO.P,U1,1*%
%TO.N,Net-(C10-Pad2)*%
X129980113Y-124500000D03*
D11*
%TO.P,U1,2*%
%TO.N,Net-(C10-Pad1)*%
X129980113Y-127040000D03*
%TO.P,U1,3*%
%TO.N,Net-(R8-Pad1)*%
X137600113Y-127040000D03*
%TO.P,U1,4*%
%TO.N,Net-(R7-Pad1)*%
X137600113Y-124500000D03*
%TD*%
D12*
%TO.P,R9,1*%
%TO.N,GROUND*%
X159785113Y-91960000D03*
%TO.P,R9,2*%
%TO.N,Net-(T1-AB)*%
X159785113Y-97040000D03*
%TD*%
D18*
%TO.P,,1*%
%TO.N,RIGAF*%
X192785113Y-79500000D03*
D19*
%TO.P,,2*%
%TO.N,RIGMICIN*%
X192785113Y-76000000D03*
%TD*%
D17*
%TO.P,C2,1*%
%TO.N,LOL*%
X156285113Y-75000000D03*
D11*
%TO.P,C2,2*%
%TO.N,Net-(T2-AA)*%
X158785113Y-75000000D03*
%TD*%
D20*
%TO.P,D3,1,K_1*%
%TO.N,Net-(D3-K)*%
X157785113Y-118190000D03*
D11*
%TO.P,D3,2,A_2*%
%TO.N,Net-(D3-A)*%
X157785113Y-125810000D03*
%TD*%
D10*
%TO.P,C8,1*%
%TO.N,USBPWR*%
X144785113Y-112000000D03*
D11*
%TO.P,C8,2*%
%TO.N,GROUND*%
X144785113Y-109500000D03*
%TD*%
D21*
%TO.P,RV1,1,1_1*%
%TO.N,RIGGND*%
X179785113Y-80000000D03*
%TO.P,RV1,2,2_2*%
%TO.N,Net-(C3-Pad1)*%
X179785113Y-77460000D03*
%TO.P,RV1,3,3_3*%
%TO.N,Net-(T2-SB)*%
X179785113Y-74920000D03*
%TD*%
D15*
%TO.P,Q4,1,E_1*%
%TO.N,VOLDN*%
X149285113Y-103000000D03*
D16*
%TO.P,Q4,2,B_2*%
%TO.N,Net-(Q4-B)*%
X149285113Y-104270000D03*
%TO.P,Q4,3,C_3*%
%TO.N,Net-(Q4-C)*%
X149285113Y-105540000D03*
%TD*%
D22*
%TO.P,U3,1,GND_1*%
%TO.N,GROUND*%
X150060113Y-110190000D03*
%TO.P,U3,2,VIN_2*%
%TO.N,USBPWR*%
X150060113Y-112730000D03*
%TO.P,U3,3,0V_3*%
%TO.N,Net-(Q2-E)*%
X150060113Y-115270000D03*
%TO.P,U3,4,+VO_4*%
%TO.N,Net-(D3-K)*%
X150060113Y-117810000D03*
%TD*%
D12*
%TO.P,R8,1*%
%TO.N,Net-(R8-Pad1)*%
X140205113Y-128000000D03*
%TO.P,R8,2*%
%TO.N,Net-(Q2-B)*%
X145285113Y-128000000D03*
%TD*%
D21*
%TO.P,RV2,1,1_1*%
%TO.N,Net-(C4-Pad2)*%
X179785113Y-97000000D03*
%TO.P,RV2,2,2_2*%
%TO.N,Net-(T1-SA)*%
X179785113Y-94460000D03*
%TO.P,RV2,3,3_3*%
%TO.N,Net-(Q1-E)*%
X179785113Y-91920000D03*
%TD*%
D12*
%TO.P,R17,1*%
%TO.N,Net-(JP1-A)*%
X192825113Y-106500000D03*
%TO.P,R17,2*%
%TO.N,Net-(Q1-B)*%
X187745113Y-106500000D03*
%TD*%
D23*
%TO.P,C4,1*%
%TO.N,RIGAF*%
X186990226Y-97500000D03*
D11*
%TO.P,C4,2*%
%TO.N,Net-(C4-Pad2)*%
X184490226Y-97500000D03*
%TD*%
D12*
%TO.P,R16,1*%
%TO.N,Net-(Q1-B)*%
X184785113Y-106420000D03*
%TO.P,R16,2*%
%TO.N,Net-(Q1-E)*%
X184785113Y-111500000D03*
%TD*%
D23*
%TO.P,U2,1*%
%TO.N,Net-(R2-Pad1)*%
X171285113Y-107275000D03*
D11*
%TO.P,U2,2*%
%TO.N,Net-(Q1-C)*%
X171285113Y-104735000D03*
%TO.P,U2,3*%
%TO.N,Net-(R10-Pad2)*%
X163665113Y-104735000D03*
%TO.P,U2,4*%
%TO.N,Net-(Q4-C)*%
X163665113Y-107275000D03*
%TD*%
D24*
%TO.P,K1,1*%
%TO.N,RIGGND*%
X161635113Y-122450000D03*
D25*
%TO.P,K1,2*%
%TO.N,Net-(D3-A)*%
X163585113Y-128500000D03*
D24*
%TO.P,K1,3*%
%TO.N,Net-(K1-Pad3)*%
X175785113Y-128500000D03*
%TO.P,K1,4*%
%TO.N,Net-(Q1-E)*%
X175835113Y-116450000D03*
D25*
%TO.P,K1,5*%
%TO.N,Net-(D3-K)*%
X163585113Y-116500000D03*
%TD*%
D12*
%TO.P,R5,1*%
%TO.N,Net-(K1-Pad3)*%
X181705113Y-128500000D03*
%TO.P,R5,2*%
%TO.N,PTT*%
X186785113Y-128500000D03*
%TD*%
%TO.P,R2,1*%
%TO.N,Net-(R2-Pad1)*%
X169785113Y-111500000D03*
%TO.P,R2,2*%
%TO.N,Net-(D3-K)*%
X164705113Y-111500000D03*
%TD*%
%TO.P,R11,1*%
%TO.N,Net-(Q4-C)*%
X158785113Y-107500000D03*
%TO.P,R11,2*%
%TO.N,USBPWR*%
X158785113Y-112580000D03*
%TD*%
D23*
%TO.P,C1,1*%
%TO.N,Net-(T1-AB)*%
X155785113Y-95000000D03*
D11*
%TO.P,C1,2*%
%TO.N,Net-(C1-Pad2)*%
X153285113Y-95000000D03*
%TD*%
M02*
