%TF.GenerationSoftware,KiCad,Pcbnew,10.0.4*%
%TF.CreationDate,2026-08-12T16:23:41+06:00*%
%TF.ProjectId,NodePilot,4e6f6465-5069-46c6-9f74-2e6b69636164,rev?*%
%TF.SameCoordinates,Original*%
%TF.FileFunction,Copper,L1,Top*%
%TF.FilePolarity,Positive*%
%FSLAX46Y46*%
G04 Gerber Fmt 4.6, Leading zero omitted, Abs format (unit mm)*
G04 Created by KiCad (PCBNEW 10.0.4) date 2026-08-12 16:23:41*
%MOMM*%
%LPD*%
G01*
G04 APERTURE LIST*
G04 Aperture macros list*
%AMRoundRect*
0 Rectangle with rounded corners*
0 $1 Rounding radius*
0 $2 $3 $4 $5 $6 $7 $8 $9 X,Y pos of 4 corners*
0 Add a 4 corners polygon primitive as box body*
4,1,4,$2,$3,$4,$5,$6,$7,$8,$9,$2,$3,0*
0 Add four circle primitives for the rounded corners*
1,1,$1+$1,$2,$3*
1,1,$1+$1,$4,$5*
1,1,$1+$1,$6,$7*
1,1,$1+$1,$8,$9*
0 Add four rect primitives between the rounded corners*
20,1,$1+$1,$2,$3,$4,$5,0*
20,1,$1+$1,$4,$5,$6,$7,0*
20,1,$1+$1,$6,$7,$8,$9,0*
20,1,$1+$1,$8,$9,$2,$3,0*%
G04 Aperture macros list end*
%TA.AperFunction,SMDPad,CuDef*%
%ADD10R,1.500000X1.500000*%
%TD*%
%TA.AperFunction,ComponentPad*%
%ADD11R,1.500000X1.050000*%
%TD*%
%TA.AperFunction,ComponentPad*%
%ADD12O,1.500000X1.050000*%
%TD*%
%TA.AperFunction,ComponentPad*%
%ADD13R,1.600000X1.600000*%
%TD*%
%TA.AperFunction,ComponentPad*%
%ADD14O,1.600000X1.600000*%
%TD*%
%TA.AperFunction,ComponentPad*%
%ADD15C,1.400000*%
%TD*%
%TA.AperFunction,ComponentPad*%
%ADD16RoundRect,0.250000X0.550000X-0.550000X0.550000X0.550000X-0.550000X0.550000X-0.550000X-0.550000X0*%
%TD*%
%TA.AperFunction,ComponentPad*%
%ADD17C,1.600000*%
%TD*%
%TA.AperFunction,ComponentPad*%
%ADD18RoundRect,0.250000X0.550000X0.550000X-0.550000X0.550000X-0.550000X-0.550000X0.550000X-0.550000X0*%
%TD*%
%TA.AperFunction,ComponentPad*%
%ADD19RoundRect,0.250001X0.949999X-0.949999X0.949999X0.949999X-0.949999X0.949999X-0.949999X-0.949999X0*%
%TD*%
%TA.AperFunction,ComponentPad*%
%ADD20C,2.400000*%
%TD*%
%TA.AperFunction,ComponentPad*%
%ADD21RoundRect,0.250000X-0.550000X-0.550000X0.550000X-0.550000X0.550000X0.550000X-0.550000X0.550000X0*%
%TD*%
%TA.AperFunction,ComponentPad*%
%ADD22C,3.000000*%
%TD*%
%TA.AperFunction,ComponentPad*%
%ADD23C,2.500000*%
%TD*%
%TA.AperFunction,ComponentPad*%
%ADD24RoundRect,0.250000X-0.550000X0.550000X-0.550000X-0.550000X0.550000X-0.550000X0.550000X0.550000X0*%
%TD*%
%TA.AperFunction,ComponentPad*%
%ADD25C,1.600200*%
%TD*%
%TA.AperFunction,ComponentPad*%
%ADD26C,1.440000*%
%TD*%
%TA.AperFunction,Conductor*%
%ADD27C,0.500000*%
%TD*%
%TA.AperFunction,Conductor*%
%ADD28C,0.400000*%
%TD*%
%TA.AperFunction,Conductor*%
%ADD29C,0.200000*%
%TD*%
G04 APERTURE END LIST*
D10*
%TO.P,,3*%
%TO.N,VOLDN*%
X92000000Y-47000000D03*
%TD*%
D11*
%TO.P,Q1,1,E_1*%
%TO.N,Net-(Q1-E)*%
X118000000Y-63540000D03*
D12*
%TO.P,Q1,2,B_2*%
%TO.N,Net-(Q1-B)*%
X118000000Y-62270000D03*
%TO.P,Q1,3,C_3*%
%TO.N,Net-(Q1-C)*%
X118000000Y-61000000D03*
%TD*%
D11*
%TO.P,Q2,1,E_1*%
%TO.N,Net-(Q2-E)*%
X91000000Y-85540000D03*
D12*
%TO.P,Q2,2,B_2*%
%TO.N,Net-(Q2-B)*%
X91000000Y-84270000D03*
%TO.P,Q2,3,C_3*%
%TO.N,Net-(D3-A)*%
X91000000Y-83000000D03*
%TD*%
D13*
%TO.P,T2,1,AA_1*%
%TO.N,Net-(T2-AA)*%
X105380000Y-38920000D03*
D14*
%TO.P,T2,2,AB_2*%
%TO.N,GROUND*%
X105380000Y-44000000D03*
%TO.P,T2,3,SA_3*%
%TO.N,RIGGND*%
X113000000Y-44000000D03*
%TO.P,T2,4,SB_4*%
%TO.N,Net-(T2-SB)*%
X113000000Y-38920000D03*
%TD*%
D15*
%TO.P,R4,1*%
%TO.N,GPIO3*%
X70500000Y-72460000D03*
%TO.P,R4,2*%
%TO.N,Net-(C10-Pad2)*%
X70500000Y-77540000D03*
%TD*%
D10*
%TO.P,,4*%
%TO.N,GPIO3*%
X92000000Y-39500000D03*
%TD*%
%TO.P,,2*%
%TO.N,MICIN*%
X92000000Y-44500000D03*
%TD*%
D16*
%TO.P,C5,1*%
%TO.N,Net-(D3-K)*%
X86500000Y-74500000D03*
D17*
%TO.P,C5,2*%
%TO.N,Net-(Q2-E)*%
X86500000Y-72000000D03*
%TD*%
D16*
%TO.P,C6,1*%
%TO.N,Net-(D3-K)*%
X80500000Y-74500000D03*
D17*
%TO.P,C6,2*%
%TO.N,Net-(Q2-E)*%
X80500000Y-72000000D03*
%TD*%
D18*
%TO.P,C1,1*%
%TO.N,Net-(T1-AB)*%
X96705113Y-55000000D03*
D17*
%TO.P,C1,2*%
%TO.N,Net-(C1-Pad2)*%
X94205113Y-55000000D03*
%TD*%
D19*
%TO.P,,1*%
%TO.N,N/C*%
X134500000Y-76000000D03*
D20*
%TO.P,,2*%
%TO.N,EXT_COR*%
X134500000Y-72500000D03*
%TD*%
D21*
%TO.P,U1,1*%
%TO.N,Net-(C10-Pad2)*%
X71695000Y-80500000D03*
D17*
%TO.P,U1,2*%
%TO.N,Net-(C10-Pad1)*%
X71695000Y-83040000D03*
%TO.P,U1,3*%
%TO.N,Net-(R8-Pad1)*%
X79315000Y-83040000D03*
%TO.P,U1,4*%
%TO.N,Net-(R7-Pad1)*%
X79315000Y-80500000D03*
%TD*%
D15*
%TO.P,R15,1*%
%TO.N,GROUND*%
X76000000Y-63420000D03*
%TO.P,R15,2*%
%TO.N,Net-(C10-Pad1)*%
X76000000Y-68500000D03*
%TD*%
D19*
%TO.P,JP1,1,A_1*%
%TO.N,Net-(JP1-A)*%
X134500000Y-58500000D03*
D20*
%TO.P,JP1,2,B_2*%
%TO.N,RIGAF*%
X134500000Y-55000000D03*
%TD*%
D22*
%TO.P,K1,1*%
%TO.N,RIGGND*%
X103350000Y-78450000D03*
D23*
%TO.P,K1,2*%
%TO.N,Net-(D3-A)*%
X105300000Y-84500000D03*
D22*
%TO.P,K1,3*%
%TO.N,Net-(K1-Pad3)*%
X117500000Y-84500000D03*
%TO.P,K1,4*%
%TO.N,Net-(Q1-E)*%
X117550000Y-72450000D03*
D23*
%TO.P,K1,5*%
%TO.N,Net-(D3-K)*%
X105300000Y-72500000D03*
%TD*%
D10*
%TO.P,,1*%
%TO.N,LOL*%
X92000000Y-37000000D03*
%TD*%
D19*
%TO.P,,1*%
%TO.N,RIGAF*%
X134500000Y-42000000D03*
D20*
%TO.P,,2*%
%TO.N,RIGMICIN*%
X134500000Y-38500000D03*
%TD*%
D24*
%TO.P,D3,1,K_1*%
%TO.N,Net-(D3-K)*%
X99500000Y-74190000D03*
D17*
%TO.P,D3,2,A_2*%
%TO.N,Net-(D3-A)*%
X99500000Y-81810000D03*
%TD*%
D15*
%TO.P,R13,1*%
%TO.N,Net-(Q2-E)*%
X94920000Y-85500000D03*
%TO.P,R13,2*%
%TO.N,RIGGND*%
X100000000Y-85500000D03*
%TD*%
%TO.P,R9,1*%
%TO.N,GROUND*%
X102000000Y-49960000D03*
%TO.P,R9,2*%
%TO.N,Net-(T1-AB)*%
X102000000Y-55040000D03*
%TD*%
%TO.P,R2,1*%
%TO.N,Net-(R2-Pad1)*%
X111500000Y-67500000D03*
%TO.P,R2,2*%
%TO.N,Net-(D3-K)*%
X106420000Y-67500000D03*
%TD*%
%TO.P,R11,1*%
%TO.N,Net-(Q4-C)*%
X100500000Y-63500000D03*
%TO.P,R11,2*%
%TO.N,USBPWR*%
X100500000Y-68580000D03*
%TD*%
%TO.P,R12,1*%
%TO.N,MICIN*%
X85920000Y-55000000D03*
%TO.P,R12,2*%
%TO.N,Net-(C1-Pad2)*%
X91000000Y-55000000D03*
%TD*%
D25*
%TO.P,U3,1,GND_1*%
%TO.N,GROUND*%
X91775000Y-66190000D03*
%TO.P,U3,2,VIN_2*%
%TO.N,USBPWR*%
X91775000Y-68730000D03*
%TO.P,U3,3,0V_3*%
%TO.N,Net-(Q2-E)*%
X91775000Y-71270000D03*
%TO.P,U3,4,+VO_4*%
%TO.N,Net-(D3-K)*%
X91775000Y-73810000D03*
%TD*%
D26*
%TO.P,RV1,1,1_1*%
%TO.N,RIGGND*%
X121000000Y-44000000D03*
%TO.P,RV1,2,2_2*%
%TO.N,Net-(C3-Pad1)*%
X121000000Y-41460000D03*
%TO.P,RV1,3,3_3*%
%TO.N,Net-(T2-SB)*%
X121000000Y-38920000D03*
%TD*%
D15*
%TO.P,R3,1*%
%TO.N,VOLDN*%
X86500000Y-57960000D03*
%TO.P,R3,2*%
%TO.N,GROUND*%
X86500000Y-63040000D03*
%TD*%
D21*
%TO.P,C2,1*%
%TO.N,LOL*%
X99000000Y-39000000D03*
D17*
%TO.P,C2,2*%
%TO.N,Net-(T2-AA)*%
X101500000Y-39000000D03*
%TD*%
%TO.P,C11,1*%
%TO.N,Net-(Q1-B)*%
X123000000Y-62250000D03*
%TO.P,C11,2*%
%TO.N,Net-(Q1-E)*%
X123000000Y-64750000D03*
%TD*%
D15*
%TO.P,R10,1*%
%TO.N,Net-(Q4-B)*%
X96960000Y-60500000D03*
%TO.P,R10,2*%
%TO.N,Net-(R10-Pad2)*%
X102040000Y-60500000D03*
%TD*%
D17*
%TO.P,C9,1*%
%TO.N,GROUND*%
X81000000Y-65250000D03*
%TO.P,C9,2*%
%TO.N,USBPWR*%
X81000000Y-67750000D03*
%TD*%
D15*
%TO.P,R16,1*%
%TO.N,Net-(Q1-B)*%
X126500000Y-62420000D03*
%TO.P,R16,2*%
%TO.N,Net-(Q1-E)*%
X126500000Y-67500000D03*
%TD*%
D16*
%TO.P,C8,1*%
%TO.N,USBPWR*%
X86500000Y-68000000D03*
D17*
%TO.P,C8,2*%
%TO.N,GROUND*%
X86500000Y-65500000D03*
%TD*%
D18*
%TO.P,C4,1*%
%TO.N,RIGAF*%
X128705113Y-55000000D03*
D17*
%TO.P,C4,2*%
%TO.N,Net-(C4-Pad2)*%
X126205113Y-55000000D03*
%TD*%
D18*
%TO.P,U2,1*%
%TO.N,Net-(R2-Pad1)*%
X113000000Y-63275000D03*
D17*
%TO.P,U2,2*%
%TO.N,Net-(Q1-C)*%
X113000000Y-60735000D03*
%TO.P,U2,3*%
%TO.N,Net-(R10-Pad2)*%
X105380000Y-60735000D03*
%TO.P,U2,4*%
%TO.N,Net-(Q4-C)*%
X105380000Y-63275000D03*
%TD*%
D15*
%TO.P,R17,1*%
%TO.N,Net-(JP1-A)*%
X134540000Y-62500000D03*
%TO.P,R17,2*%
%TO.N,Net-(Q1-B)*%
X129460000Y-62500000D03*
%TD*%
D19*
%TO.P,,1*%
%TO.N,PTT*%
X134500000Y-84500000D03*
D20*
%TO.P,,2*%
%TO.N,RIGGND*%
X134500000Y-81000000D03*
%TD*%
D15*
%TO.P,R1,1*%
%TO.N,Net-(Q1-B)*%
X129500000Y-64920000D03*
%TO.P,R1,2*%
%TO.N,EXT_COR*%
X134580000Y-64920000D03*
%TD*%
%TO.P,R8,1*%
%TO.N,Net-(R8-Pad1)*%
X81920000Y-84000000D03*
%TO.P,R8,2*%
%TO.N,Net-(Q2-B)*%
X87000000Y-84000000D03*
%TD*%
D10*
%TO.P,,6*%
%TO.N,USBPWR*%
X92000000Y-42000000D03*
%TD*%
D26*
%TO.P,RV2,1,1_1*%
%TO.N,Net-(C4-Pad2)*%
X121000000Y-55040000D03*
%TO.P,RV2,2,2_2*%
%TO.N,Net-(T1-SA)*%
X121000000Y-52500000D03*
%TO.P,RV2,3,3_3*%
%TO.N,Net-(Q1-E)*%
X121000000Y-49960000D03*
%TD*%
D15*
%TO.P,R7,1*%
%TO.N,Net-(R7-Pad1)*%
X87420000Y-78500000D03*
%TO.P,R7,2*%
%TO.N,Net-(D3-K)*%
X92500000Y-78500000D03*
%TD*%
D10*
%TO.P,,5*%
%TO.N,GROUND*%
X92000000Y-49500000D03*
%TD*%
D11*
%TO.P,Q4,1,E_1*%
%TO.N,VOLDN*%
X91000000Y-59000000D03*
D12*
%TO.P,Q4,2,B_2*%
%TO.N,Net-(Q4-B)*%
X91000000Y-60270000D03*
%TO.P,Q4,3,C_3*%
%TO.N,Net-(Q4-C)*%
X91000000Y-61540000D03*
%TD*%
D15*
%TO.P,R5,1*%
%TO.N,Net-(K1-Pad3)*%
X123420000Y-84500000D03*
%TO.P,R5,2*%
%TO.N,PTT*%
X128500000Y-84500000D03*
%TD*%
D17*
%TO.P,C10,1*%
%TO.N,Net-(C10-Pad1)*%
X68315000Y-83000000D03*
%TO.P,C10,2*%
%TO.N,Net-(C10-Pad2)*%
X68315000Y-80500000D03*
%TD*%
D13*
%TO.P,T1,1,AA_1*%
%TO.N,GROUND*%
X105380000Y-50000000D03*
D14*
%TO.P,T1,2,AB_2*%
%TO.N,Net-(T1-AB)*%
X105380000Y-55080000D03*
%TO.P,T1,3,SA_3*%
%TO.N,Net-(T1-SA)*%
X113000000Y-55080000D03*
%TO.P,T1,4,SB_4*%
%TO.N,Net-(Q1-E)*%
X113000000Y-50000000D03*
%TD*%
D21*
%TO.P,C3,1*%
%TO.N,Net-(C3-Pad1)*%
X126000000Y-41500000D03*
D17*
%TO.P,C3,2*%
%TO.N,RIGMICIN*%
X128500000Y-41500000D03*
%TD*%
D15*
%TO.P,R6,1*%
%TO.N,Net-(T2-SB)*%
X116500000Y-38960000D03*
%TO.P,R6,2*%
%TO.N,RIGGND*%
X116500000Y-44040000D03*
%TD*%
D17*
%TO.P,C7,1*%
%TO.N,Net-(D3-K)*%
X75000000Y-74500000D03*
%TO.P,C7,2*%
%TO.N,Net-(Q2-E)*%
X75000000Y-72000000D03*
%TD*%
%TO.N,VOLDN*%
D27*
X86500000Y-57960000D02*
X89960000Y-57960000D01*
X89500000Y-49500000D02*
X89500000Y-54960000D01*
X89960000Y-57960000D02*
X91000000Y-59000000D01*
X92000000Y-47000000D02*
X89500000Y-49500000D01*
X89500000Y-54960000D02*
X86500000Y-57960000D01*
%TO.N,Net-(Q1-E)*%
X118000000Y-63540000D02*
X121790000Y-63540000D01*
D28*
X117735000Y-63500000D02*
X117775000Y-63540000D01*
D27*
X121790000Y-63540000D02*
X123000000Y-64750000D01*
D28*
X112000000Y-62000000D02*
X115000000Y-62000000D01*
D27*
X117550000Y-72450000D02*
X122500000Y-67500000D01*
X123750000Y-64750000D02*
X126500000Y-67500000D01*
D29*
X113500000Y-50000000D02*
X113540000Y-49960000D01*
D28*
X111000000Y-52000000D02*
X111000000Y-61000000D01*
X111000000Y-61000000D02*
X112000000Y-62000000D01*
D27*
X113540000Y-49960000D02*
X121000000Y-49960000D01*
D29*
X113000000Y-50000000D02*
X113500000Y-50000000D01*
D28*
X116500000Y-63500000D02*
X117735000Y-63500000D01*
D29*
X117775000Y-63540000D02*
X118000000Y-63540000D01*
D28*
X115000000Y-62000000D02*
X116500000Y-63500000D01*
D27*
X122500000Y-67500000D02*
X126500000Y-67500000D01*
X123000000Y-64750000D02*
X123750000Y-64750000D01*
D28*
X113000000Y-50000000D02*
X111000000Y-52000000D01*
%TO.N,Net-(Q1-B)*%
D27*
X129460000Y-62500000D02*
X129460000Y-64880000D01*
X129210000Y-62250000D02*
X129460000Y-62500000D01*
X126330000Y-62250000D02*
X126500000Y-62420000D01*
X129460000Y-64880000D02*
X129500000Y-64920000D01*
X129380000Y-62420000D02*
X129460000Y-62500000D01*
X122980000Y-62270000D02*
X123000000Y-62250000D01*
X118230000Y-62500000D02*
X118000000Y-62270000D01*
X126500000Y-62420000D02*
X129380000Y-62420000D01*
X118000000Y-62270000D02*
X122980000Y-62270000D01*
D29*
X118020000Y-62250000D02*
X118000000Y-62270000D01*
D27*
X123000000Y-62250000D02*
X126330000Y-62250000D01*
%TO.N,Net-(Q1-C)*%
D29*
X117735000Y-60735000D02*
X118000000Y-61000000D01*
D27*
X113000000Y-60735000D02*
X117735000Y-60735000D01*
%TO.N,Net-(Q2-E)*%
X91000000Y-85540000D02*
X94880000Y-85540000D01*
X86566346Y-76020000D02*
X88570000Y-78023654D01*
X74752233Y-76020000D02*
X73750000Y-75017767D01*
X88570000Y-78023654D02*
X88570000Y-78976346D01*
X75730000Y-71270000D02*
X75000000Y-72000000D01*
X85850000Y-81696346D02*
X88570000Y-78976346D01*
X73750000Y-75017767D02*
X73750000Y-73250000D01*
D29*
X94920000Y-85540000D02*
X94960000Y-85500000D01*
D27*
X74752233Y-76020000D02*
X86566346Y-76020000D01*
X73750000Y-73250000D02*
X75000000Y-72000000D01*
X91775000Y-71270000D02*
X75730000Y-71270000D01*
X94880000Y-85540000D02*
X94920000Y-85500000D01*
X85850000Y-84476346D02*
X85850000Y-81696346D01*
X86913654Y-85540000D02*
X85850000Y-84476346D01*
X91000000Y-85540000D02*
X86913654Y-85540000D01*
%TO.N,Net-(Q2-B)*%
D29*
X90730000Y-84000000D02*
X91000000Y-84270000D01*
D27*
X87000000Y-84000000D02*
X90730000Y-84000000D01*
%TO.N,Net-(D3-A)*%
X92690000Y-81810000D02*
X99500000Y-81810000D01*
X91500000Y-83000000D02*
X92690000Y-81810000D01*
X99500000Y-81810000D02*
X102610000Y-81810000D01*
X102610000Y-81810000D02*
X105300000Y-84500000D01*
D29*
X91000000Y-83000000D02*
X91500000Y-83000000D01*
%TO.N,Net-(T2-AA)*%
D27*
X102080000Y-38920000D02*
X105380000Y-38920000D01*
D29*
X102000000Y-39000000D02*
X102080000Y-38920000D01*
X101500000Y-39000000D02*
X102000000Y-39000000D01*
%TO.N,GROUND*%
D27*
X90835000Y-65250000D02*
X91775000Y-66190000D01*
D29*
X92000000Y-49500000D02*
X92500000Y-49500000D01*
D27*
X106000000Y-66000000D02*
X91965000Y-66000000D01*
X108500000Y-63500000D02*
X106000000Y-66000000D01*
X105380000Y-50000000D02*
X107000000Y-50000000D01*
X76000000Y-63420000D02*
X79170000Y-63420000D01*
X107000000Y-50000000D02*
X108500000Y-51500000D01*
X79170000Y-63420000D02*
X81000000Y-65250000D01*
X91965000Y-66000000D02*
X91775000Y-66190000D01*
X101500000Y-49960000D02*
X101540000Y-50000000D01*
X108500000Y-51500000D02*
X108500000Y-63500000D01*
X101000000Y-49960000D02*
X102000000Y-49960000D01*
X101540000Y-50000000D02*
X105380000Y-50000000D01*
X86500000Y-63040000D02*
X86500000Y-65500000D01*
X81000000Y-65250000D02*
X90835000Y-65250000D01*
D29*
X105340000Y-49960000D02*
X105380000Y-50000000D01*
D27*
X92960000Y-49960000D02*
X101000000Y-49960000D01*
X92500000Y-49500000D02*
X92960000Y-49960000D01*
X101000000Y-49960000D02*
X101500000Y-49960000D01*
X105380000Y-44000000D02*
X105380000Y-50000000D01*
%TO.N,RIGGND*%
X109450000Y-86500000D02*
X101000000Y-86500000D01*
X103350000Y-78450000D02*
X114000000Y-78450000D01*
X110000000Y-50540000D02*
X110000000Y-73000000D01*
X109450000Y-86500000D02*
X114000000Y-81950000D01*
X114000000Y-81950000D02*
X114000000Y-78450000D01*
X114000000Y-77000000D02*
X114000000Y-78450000D01*
X114000000Y-78450000D02*
X117500000Y-78450000D01*
X123950000Y-78450000D02*
X126500000Y-81000000D01*
X110000000Y-73000000D02*
X114000000Y-77000000D01*
X113000000Y-44000000D02*
X121000000Y-44000000D01*
X101000000Y-86500000D02*
X100000000Y-85500000D01*
X126500000Y-81000000D02*
X134500000Y-81000000D01*
X113000000Y-47540000D02*
X110000000Y-50540000D01*
X117500000Y-78450000D02*
X123950000Y-78450000D01*
X113000000Y-44000000D02*
X113000000Y-47540000D01*
%TO.N,Net-(T2-SB)*%
X121000000Y-38920000D02*
X113000000Y-38920000D01*
%TO.N,GPIO3*%
X70500000Y-59500000D02*
X90500000Y-39500000D01*
X70500000Y-72460000D02*
X70500000Y-59500000D01*
X90500000Y-39500000D02*
X92000000Y-39500000D01*
%TO.N,Net-(C10-Pad2)*%
X68315000Y-80500000D02*
X71695000Y-80500000D01*
X70500000Y-77540000D02*
X70500000Y-79305000D01*
X70500000Y-79305000D02*
X71695000Y-80500000D01*
%TO.N,MICIN*%
X92000000Y-44500000D02*
X85920000Y-50580000D01*
X85920000Y-50580000D02*
X85920000Y-55000000D01*
%TO.N,Net-(D3-K)*%
X90000000Y-74500000D02*
X75000000Y-74500000D01*
D29*
X99120000Y-73810000D02*
X99500000Y-74190000D01*
D27*
X91775000Y-73810000D02*
X99120000Y-73810000D01*
X105300000Y-72500000D02*
X105300000Y-68620000D01*
X90690000Y-73810000D02*
X90000000Y-74500000D01*
X105300000Y-68620000D02*
X106420000Y-67500000D01*
X91775000Y-77775000D02*
X92500000Y-78500000D01*
X105300000Y-72500000D02*
X101190000Y-72500000D01*
X91775000Y-73810000D02*
X90690000Y-73810000D01*
X101190000Y-72500000D02*
X99500000Y-74190000D01*
X91775000Y-73810000D02*
X91775000Y-77775000D01*
%TO.N,Net-(T1-AB)*%
D29*
X96785113Y-55080000D02*
X96705113Y-55000000D01*
D27*
X105380000Y-55080000D02*
X96785113Y-55080000D01*
%TO.N,Net-(C1-Pad2)*%
X91000000Y-55000000D02*
X94205113Y-55000000D01*
%TO.N,EXT_COR*%
X134580000Y-64920000D02*
X134580000Y-72420000D01*
D29*
X134580000Y-72420000D02*
X134500000Y-72500000D01*
%TO.N,Net-(C10-Pad1)*%
D27*
X68315000Y-83000000D02*
X71655000Y-83000000D01*
X72500000Y-77000000D02*
X73500000Y-78000000D01*
X76000000Y-68500000D02*
X72500000Y-72000000D01*
D29*
X71655000Y-83000000D02*
X71695000Y-83040000D01*
D27*
X71695000Y-83040000D02*
X73500000Y-81235000D01*
X72500000Y-72000000D02*
X72500000Y-77000000D01*
X73500000Y-81235000D02*
X73500000Y-78000000D01*
%TO.N,Net-(R8-Pad1)*%
X79315000Y-83040000D02*
X80960000Y-83040000D01*
X80960000Y-83040000D02*
X81920000Y-84000000D01*
%TO.N,Net-(R7-Pad1)*%
X79315000Y-80500000D02*
X85420000Y-80500000D01*
X85420000Y-80500000D02*
X87420000Y-78500000D01*
%TO.N,Net-(JP1-A)*%
X134500000Y-58500000D02*
X134500000Y-62460000D01*
D29*
X134500000Y-62460000D02*
X134540000Y-62500000D01*
%TO.N,RIGAF*%
D27*
X134500000Y-42000000D02*
X134500000Y-55000000D01*
X128705113Y-55000000D02*
X134500000Y-55000000D01*
%TO.N,Net-(K1-Pad3)*%
X117500000Y-84500000D02*
X123420000Y-84500000D01*
%TO.N,LOL*%
X98500000Y-39000000D02*
X96500000Y-37000000D01*
D29*
X99000000Y-39000000D02*
X98500000Y-39000000D01*
D27*
X96500000Y-37000000D02*
X92000000Y-37000000D01*
%TO.N,RIGMICIN*%
X128500000Y-41500000D02*
X131500000Y-41500000D01*
X131500000Y-41500000D02*
X134500000Y-38500000D01*
%TO.N,Net-(R2-Pad1)*%
X113000000Y-66000000D02*
X113000000Y-63275000D01*
X111500000Y-67500000D02*
X113000000Y-66000000D01*
%TO.N,Net-(Q4-C)*%
X92960000Y-63500000D02*
X91000000Y-61540000D01*
X100500000Y-63500000D02*
X92960000Y-63500000D01*
D29*
X105155000Y-63500000D02*
X105380000Y-63275000D01*
D27*
X100500000Y-63500000D02*
X105155000Y-63500000D01*
%TO.N,USBPWR*%
X81830000Y-68580000D02*
X81000000Y-67750000D01*
X74500000Y-57000000D02*
X89500000Y-42000000D01*
X74500000Y-64500000D02*
X74500000Y-57000000D01*
X77750000Y-67750000D02*
X74500000Y-64500000D01*
X89500000Y-42000000D02*
X92000000Y-42000000D01*
X81000000Y-67750000D02*
X77750000Y-67750000D01*
X100500000Y-68580000D02*
X81830000Y-68580000D01*
%TO.N,Net-(C3-Pad1)*%
X121000000Y-41460000D02*
X125960000Y-41460000D01*
D29*
X125960000Y-41460000D02*
X126000000Y-41500000D01*
%TO.N,Net-(Q4-B)*%
X96730000Y-60270000D02*
X96960000Y-60500000D01*
D27*
X91000000Y-60270000D02*
X96730000Y-60270000D01*
%TO.N,Net-(R10-Pad2)*%
X102040000Y-60500000D02*
X105145000Y-60500000D01*
D29*
X105145000Y-60500000D02*
X105380000Y-60735000D01*
%TO.N,Net-(C4-Pad2)*%
X121040000Y-55000000D02*
X121000000Y-55040000D01*
D27*
X126205113Y-55000000D02*
X121040000Y-55000000D01*
%TO.N,PTT*%
X128500000Y-84500000D02*
X134500000Y-84500000D01*
%TO.N,Net-(T1-SA)*%
X115580000Y-52500000D02*
X113000000Y-55080000D01*
X121000000Y-52500000D02*
X115580000Y-52500000D01*
%TD*%
M02*
