%TF.GenerationSoftware,KiCad,Pcbnew,10.0.4*%
%TF.CreationDate,2026-08-12T16:23:41+06:00*%
%TF.ProjectId,NodePilot,4e6f6465-5069-46c6-9f74-2e6b69636164,rev?*%
%TF.SameCoordinates,Original*%
%TF.FileFunction,Soldermask,Bot*%
%TF.FilePolarity,Negative*%
%FSLAX46Y46*%
G04 Gerber Fmt 4.6, Leading zero omitted, Abs format (unit mm)*
G04 Created by KiCad (PCBNEW 10.0.4) date 2026-08-12 16:23:41*
%MOMM*%
%LPD*%
G01*
G04 APERTURE LIST*
G04 Aperture macros list*
%AMRoundRect*
0 Rectangle with rounded corners*
0 $1 Rounding radius*
0 $2 $3 $4 $5 $6 $7 $8 $9 X,Y pos of 4 corners*
0 Add a 4 corners polygon primitive as box body*
4,1,4,$2,$3,$4,$5,$6,$7,$8,$9,$2,$3,0*
0 Add four circle primitives for the rounded corners*
1,1,$1+$1,$2,$3*
1,1,$1+$1,$4,$5*
1,1,$1+$1,$6,$7*
1,1,$1+$1,$8,$9*
0 Add four rect primitives between the rounded corners*
20,1,$1+$1,$2,$3,$4,$5,0*
20,1,$1+$1,$4,$5,$6,$7,0*
20,1,$1+$1,$6,$7,$8,$9,0*
20,1,$1+$1,$8,$9,$2,$3,0*%
G04 Aperture macros list end*
%ADD10R,1.500000X1.050000*%
%ADD11O,1.500000X1.050000*%
%ADD12R,1.600000X1.600000*%
%ADD13O,1.600000X1.600000*%
%ADD14C,1.400000*%
%ADD15RoundRect,0.250000X0.550000X-0.550000X0.550000X0.550000X-0.550000X0.550000X-0.550000X-0.550000X0*%
%ADD16C,1.600000*%
%ADD17RoundRect,0.250000X0.550000X0.550000X-0.550000X0.550000X-0.550000X-0.550000X0.550000X-0.550000X0*%
%ADD18RoundRect,0.250001X0.949999X-0.949999X0.949999X0.949999X-0.949999X0.949999X-0.949999X-0.949999X0*%
%ADD19C,2.400000*%
%ADD20RoundRect,0.250000X-0.550000X-0.550000X0.550000X-0.550000X0.550000X0.550000X-0.550000X0.550000X0*%
%ADD21C,3.000000*%
%ADD22C,2.500000*%
%ADD23RoundRect,0.250000X-0.550000X0.550000X-0.550000X-0.550000X0.550000X-0.550000X0.550000X0.550000X0*%
%ADD24C,1.600200*%
%ADD25C,1.440000*%
G04 APERTURE END LIST*
D10*
%TO.C,Q1*%
X118000000Y-63540000D03*
D11*
X118000000Y-62270000D03*
X118000000Y-61000000D03*
%TD*%
D10*
%TO.C,Q2*%
X91000000Y-85540000D03*
D11*
X91000000Y-84270000D03*
X91000000Y-83000000D03*
%TD*%
D12*
%TO.C,T2*%
X105380000Y-38920000D03*
D13*
X105380000Y-44000000D03*
X113000000Y-44000000D03*
X113000000Y-38920000D03*
%TD*%
D14*
%TO.C,R4*%
X70500000Y-72460000D03*
X70500000Y-77540000D03*
%TD*%
D15*
%TO.C,C5*%
X86500000Y-74500000D03*
D16*
X86500000Y-72000000D03*
%TD*%
D15*
%TO.C,C6*%
X80500000Y-74500000D03*
D16*
X80500000Y-72000000D03*
%TD*%
D17*
%TO.C,C1*%
X96705113Y-55000000D03*
D16*
X94205113Y-55000000D03*
%TD*%
D18*
%TO.C,*%
X134500000Y-76000000D03*
D19*
X134500000Y-72500000D03*
%TD*%
D20*
%TO.C,U1*%
X71695000Y-80500000D03*
D16*
X71695000Y-83040000D03*
X79315000Y-83040000D03*
X79315000Y-80500000D03*
%TD*%
D14*
%TO.C,R15*%
X76000000Y-63420000D03*
X76000000Y-68500000D03*
%TD*%
D18*
%TO.C,JP1*%
X134500000Y-58500000D03*
D19*
X134500000Y-55000000D03*
%TD*%
D21*
%TO.C,K1*%
X103350000Y-78450000D03*
D22*
X105300000Y-84500000D03*
D21*
X117500000Y-84500000D03*
X117550000Y-72450000D03*
D22*
X105300000Y-72500000D03*
%TD*%
D18*
%TO.C,*%
X134500000Y-42000000D03*
D19*
X134500000Y-38500000D03*
%TD*%
D23*
%TO.C,D3*%
X99500000Y-74190000D03*
D16*
X99500000Y-81810000D03*
%TD*%
D14*
%TO.C,R13*%
X94920000Y-85500000D03*
X100000000Y-85500000D03*
%TD*%
%TO.C,R9*%
X102000000Y-49960000D03*
X102000000Y-55040000D03*
%TD*%
%TO.C,R2*%
X111500000Y-67500000D03*
X106420000Y-67500000D03*
%TD*%
%TO.C,R11*%
X100500000Y-63500000D03*
X100500000Y-68580000D03*
%TD*%
%TO.C,R12*%
X85920000Y-55000000D03*
X91000000Y-55000000D03*
%TD*%
D24*
%TO.C,U3*%
X91775000Y-66190000D03*
X91775000Y-68730000D03*
X91775000Y-71270000D03*
X91775000Y-73810000D03*
%TD*%
D25*
%TO.C,RV1*%
X121000000Y-44000000D03*
X121000000Y-41460000D03*
X121000000Y-38920000D03*
%TD*%
D14*
%TO.C,R3*%
X86500000Y-57960000D03*
X86500000Y-63040000D03*
%TD*%
D20*
%TO.C,C2*%
X99000000Y-39000000D03*
D16*
X101500000Y-39000000D03*
%TD*%
%TO.C,C11*%
X123000000Y-62250000D03*
X123000000Y-64750000D03*
%TD*%
D14*
%TO.C,R10*%
X96960000Y-60500000D03*
X102040000Y-60500000D03*
%TD*%
D16*
%TO.C,C9*%
X81000000Y-65250000D03*
X81000000Y-67750000D03*
%TD*%
D14*
%TO.C,R16*%
X126500000Y-62420000D03*
X126500000Y-67500000D03*
%TD*%
D15*
%TO.C,C8*%
X86500000Y-68000000D03*
D16*
X86500000Y-65500000D03*
%TD*%
D17*
%TO.C,C4*%
X128705113Y-55000000D03*
D16*
X126205113Y-55000000D03*
%TD*%
D17*
%TO.C,U2*%
X113000000Y-63275000D03*
D16*
X113000000Y-60735000D03*
X105380000Y-60735000D03*
X105380000Y-63275000D03*
%TD*%
D14*
%TO.C,R17*%
X134540000Y-62500000D03*
X129460000Y-62500000D03*
%TD*%
D18*
%TO.C,*%
X134500000Y-84500000D03*
D19*
X134500000Y-81000000D03*
%TD*%
D14*
%TO.C,R1*%
X129500000Y-64920000D03*
X134580000Y-64920000D03*
%TD*%
%TO.C,R8*%
X81920000Y-84000000D03*
X87000000Y-84000000D03*
%TD*%
D25*
%TO.C,RV2*%
X121000000Y-55040000D03*
X121000000Y-52500000D03*
X121000000Y-49960000D03*
%TD*%
D14*
%TO.C,R7*%
X87420000Y-78500000D03*
X92500000Y-78500000D03*
%TD*%
D10*
%TO.C,Q4*%
X91000000Y-59000000D03*
D11*
X91000000Y-60270000D03*
X91000000Y-61540000D03*
%TD*%
D14*
%TO.C,R5*%
X123420000Y-84500000D03*
X128500000Y-84500000D03*
%TD*%
D16*
%TO.C,C10*%
X68315000Y-83000000D03*
X68315000Y-80500000D03*
%TD*%
D12*
%TO.C,T1*%
X105380000Y-50000000D03*
D13*
X105380000Y-55080000D03*
X113000000Y-55080000D03*
X113000000Y-50000000D03*
%TD*%
D20*
%TO.C,C3*%
X126000000Y-41500000D03*
D16*
X128500000Y-41500000D03*
%TD*%
D14*
%TO.C,R6*%
X116500000Y-38960000D03*
X116500000Y-44040000D03*
%TD*%
D16*
%TO.C,C7*%
X75000000Y-74500000D03*
X75000000Y-72000000D03*
%TD*%
M02*
