M48
; DRILL file KiCad 10.0.4 date 2026-08-11T17:01:59
; FORMAT={-:-/ absolute / metric / decimal}
; #@! TF.CreationDate,2026-08-11T17:01:59+06:00
; #@! TF.GenerationSoftware,Kicad,Pcbnew,10.0.4
; #@! TF.FileFunction,Plated,1,2,PTH
FMAT,2
METRIC
; #@! TA.AperFunction,Plated,PTH,ComponentDrill
T1C0.700
; #@! TA.AperFunction,Plated,PTH,ComponentDrill
T2C0.750
; #@! TA.AperFunction,Plated,PTH,ComponentDrill
T3C0.800
; #@! TA.AperFunction,Plated,PTH,ComponentDrill
T4C1.000
; #@! TA.AperFunction,Plated,PTH,ComponentDrill
T5C1.092
; #@! TA.AperFunction,Plated,PTH,ComponentDrill
T6C1.200
; #@! TA.AperFunction,Plated,PTH,ComponentDrill
T7C1.300
%
G90
G05
T1
X70.5Y-72.46
X70.5Y-77.54
X76.0Y-63.42
X76.0Y-68.5
X81.92Y-84.0
X85.92Y-55.0
X86.5Y-57.96
X86.5Y-63.04
X87.0Y-84.0
X87.42Y-78.5
X91.0Y-55.0
X92.5Y-78.5
X94.92Y-85.5
X96.96Y-60.5
X100.0Y-85.5
X100.5Y-63.5
X100.5Y-68.58
X102.0Y-49.96
X102.0Y-55.04
X102.04Y-60.5
X106.42Y-67.5
X111.5Y-67.5
X116.5Y-38.96
X116.5Y-44.04
X123.42Y-84.5
X126.5Y-62.42
X126.5Y-67.5
X128.5Y-84.5
X129.46Y-62.5
X129.5Y-64.92
X134.54Y-62.5
X134.58Y-64.92
T2
X91.0Y-59.0
X91.0Y-60.27
X91.0Y-61.54
X91.0Y-83.0
X91.0Y-84.27
X91.0Y-85.54
X118.0Y-61.0
X118.0Y-62.27
X118.0Y-63.54
T3
X68.315Y-80.5
X68.315Y-83.0
X71.695Y-80.5
X71.695Y-83.04
X75.0Y-72.0
X75.0Y-74.5
X79.315Y-80.5
X79.315Y-83.04
X80.5Y-72.0
X80.5Y-74.5
X81.0Y-65.25
X81.0Y-67.75
X86.5Y-65.5
X86.5Y-68.0
X86.5Y-72.0
X86.5Y-74.5
X94.205Y-55.0
X96.705Y-55.0
X99.0Y-39.0
X99.5Y-74.19
X99.5Y-81.81
X101.5Y-39.0
X105.38Y-38.92
X105.38Y-44.0
X105.38Y-50.0
X105.38Y-55.08
X105.38Y-60.735
X105.38Y-63.275
X113.0Y-38.92
X113.0Y-44.0
X113.0Y-50.0
X113.0Y-55.08
X113.0Y-60.735
X113.0Y-63.275
X121.0Y-38.92
X121.0Y-41.46
X121.0Y-44.0
X121.0Y-49.96
X121.0Y-52.5
X121.0Y-55.04
X123.0Y-62.25
X123.0Y-64.75
X126.0Y-41.5
X126.205Y-55.0
X128.5Y-41.5
X128.705Y-55.0
T4
X105.3Y-72.5
X105.3Y-84.5
T5
X91.775Y-66.19
X91.775Y-68.73
X91.775Y-71.27
X91.775Y-73.81
T6
X134.5Y-38.5
X134.5Y-42.0
X134.5Y-55.0
X134.5Y-58.5
X134.5Y-72.5
X134.5Y-76.0
X134.5Y-81.0
X134.5Y-84.5
T7
X103.35Y-78.45
X117.5Y-84.5
X117.55Y-72.45
M30
