M48
; DRILL file KiCad 10.0.5 date 2026-08-13T01:42:37
; FORMAT={-:-/ absolute / metric / decimal}
; #@! TF.CreationDate,2026-08-13T01:42:37+06:00
; #@! TF.GenerationSoftware,Kicad,Pcbnew,10.0.5
; #@! TF.FileFunction,Plated,1,2,PTH
FMAT,2
METRIC
; #@! TA.AperFunction,Plated,PTH,ComponentDrill
T1C0.700
; #@! TA.AperFunction,Plated,PTH,ComponentDrill
T2C0.750
; #@! TA.AperFunction,Plated,PTH,ComponentDrill
T3C0.800
; #@! TA.AperFunction,Plated,PTH,ComponentDrill
T4C1.000
; #@! TA.AperFunction,Plated,PTH,ComponentDrill
T5C1.092
; #@! TA.AperFunction,Plated,PTH,ComponentDrill
T6C1.200
; #@! TA.AperFunction,Plated,PTH,ComponentDrill
T7C1.300
%
G90
G05
T1
X128.785Y-116.46
X128.785Y-121.54
X134.285Y-107.42
X134.285Y-112.5
X140.205Y-128.0
X144.785Y-101.96
X144.785Y-107.04
X145.0Y-95.0
X145.285Y-128.0
X145.705Y-122.5
X150.08Y-95.0
X150.785Y-122.5
X153.205Y-129.5
X155.245Y-104.5
X158.285Y-129.5
X158.785Y-107.5
X158.785Y-112.58
X159.785Y-91.96
X159.785Y-97.04
X160.325Y-104.5
X164.705Y-111.5
X169.785Y-111.5
X175.285Y-74.92
X175.285Y-80.0
X181.705Y-128.5
X184.785Y-106.42
X184.785Y-111.5
X186.785Y-128.5
X187.745Y-106.5
X187.785Y-108.92
X192.825Y-106.5
X192.865Y-108.92
T2
X149.285Y-103.0
X149.285Y-104.27
X149.285Y-105.54
X149.285Y-127.0
X149.285Y-128.27
X149.285Y-129.54
X176.285Y-105.0
X176.285Y-106.27
X176.285Y-107.54
T3
X126.6Y-124.5
X126.6Y-127.0
X129.98Y-124.5
X129.98Y-127.04
X133.285Y-116.0
X133.285Y-118.5
X137.6Y-124.5
X137.6Y-127.04
X138.785Y-116.0
X138.785Y-118.5
X139.285Y-109.25
X139.285Y-111.75
X144.785Y-109.5
X144.785Y-112.0
X144.785Y-116.0
X144.785Y-118.5
X153.285Y-95.0
X155.785Y-95.0
X156.285Y-75.0
X157.785Y-118.19
X157.785Y-125.81
X158.785Y-75.0
X163.665Y-75.0
X163.665Y-80.08
X163.665Y-92.1
X163.665Y-97.18
X163.665Y-104.735
X163.665Y-107.275
X171.285Y-75.0
X171.285Y-80.08
X171.285Y-92.1
X171.285Y-97.18
X171.285Y-104.735
X171.285Y-107.275
X179.785Y-74.92
X179.785Y-77.46
X179.785Y-80.0
X179.785Y-91.92
X179.785Y-94.46
X179.785Y-97.0
X181.285Y-106.25
X181.285Y-108.75
X184.49Y-97.5
X184.785Y-77.5
X186.99Y-97.5
X187.285Y-77.5
T4
X163.585Y-116.5
X163.585Y-128.5
T5
X150.06Y-110.19
X150.06Y-112.73
X150.06Y-115.27
X150.06Y-117.81
T6
X192.785Y-76.0
X192.785Y-79.5
X192.785Y-97.5
X192.785Y-101.0
X192.785Y-116.5
X192.785Y-120.0
X192.785Y-125.0
X192.785Y-128.5
T7
X161.635Y-122.45
X175.785Y-128.5
X175.835Y-116.45
M30
